SplineFontDB: 3.2
FontName: Samaano-Wide-Bold
FullName: Samaano Wide Bold
FamilyName: Samaano
Weight: Wide-Bold
Copyright: Copyright 2024 The Samaano Project Authors (https://github.com/mitradranirban/samaano-fonts)
UComments: "2024-8-27: Created with FontForge (http://fontforge.org)"
Version: 1.600
StyleMapFamilyName: Samaano
ItalicAngle: 0
UnderlinePosition: 0
UnderlineWidth: 102
Ascent: 1638
Descent: 410
InvalidEm: 0
UFOAscent: 1638
UFODescent: -410
LayerCount: 2
Layer: 0 1 "Back" 1
Layer: 1 1 "public.default" 0 "glyphs"
StyleMap: 0x0020
FSType: 0
OS2Version: 0
OS2_WeightWidthSlopeOnly: 0
OS2_UseTypoMetrics: 0
CreationTime: 1731342366
ModificationTime: 1731342766
PfmFamily: 16
TTFWeight: 700
TTFWidth: 9
LineGap: 0
VLineGap: 0
Panose: 2 7 8 9 0 0 0 0 0 0
OS2TypoAscent: 2457
OS2TypoAOffset: 0
OS2TypoDescent: -615
OS2TypoDOffset: 0
OS2TypoLinegap: 0
OS2WinAscent: 3225
OS2WinAOffset: 0
OS2WinDescent: 978
OS2WinDOffset: 0
HheadAscent: 2457
HheadAOffset: 0
HheadDescent: -615
HheadDOffset: 0
OS2CapHeight: 1548
OS2XHeight: 1023
OS2FamilyClass: 1031
OS2Vendor: 'anir'
Lookup: 4 0 1 "ligaStandardLigaturesinLatinlookup0" { "ligaStandardLigaturesinLatinlookup0 subtable"  } ['liga' ('latn' <'dflt' > 'DFLT' <'dflt' > ) ]
Lookup: 4 0 0 "nuktNuktaFormsinDevanagari2lookup0" { "nuktNuktaFormsinDevanagari2lookup0 subtable"  } ['nukt' ('dev2' <'dflt' > 'DFLT' <'dflt' > ) ]
Lookup: 4 0 0 "akhnAkhandinDevanagari2lookup0" { "akhnAkhandinDevanagari2lookup0 subtable"  } ['akhn' ('dev2' <'dflt' > 'DFLT' <'dflt' > ) ]
Lookup: 4 0 0 "rphfRephForminDevanagari2lookup0" { "rphfRephForminDevanagari2lookup0 subtable"  } ['rphf' ('dev2' <'dflt' > 'DFLT' <'dflt' > ) ]
Lookup: 4 0 0 "rkrfRakarVariantsinDevanagari2lookup0" { "rkrfRakarVariantsinDevanagari2lookup0 subtable"  } ['rkrf' ('dev2' <'dflt' > 'DFLT' <'dflt' > ) ]
Lookup: 4 0 0 "blwfBelowBaseFormsinDevanagari2lookup0" { "blwfBelowBaseFormsinDevanagari2lookup0 subtable"  } ['blwf' ('dev2' <'dflt' > 'DFLT' <'dflt' > ) ]

StartChar: .notdef
Encoding: 0 0 0
GlifName: _notdef
Width: 2048
VWidth: 0
Flags: W
LayerCount: 2
Fore
SplineSet
525 -16 m 257,0,-1
 1523 -16 l 257,1,-1
 1523 1624 l 257,2,-1
 525 1624 l 257,3,-1
 525 -16 l 257,0,-1
599 64 m 257,4,-1
 599 1548 l 257,5,-1
 992 827 l 257,6,-1
 599 64 l 257,4,-1
691 64 m 257,7,-1
 1030 750 l 257,8,-1
 1371 64 l 257,9,-1
 691 64 l 257,7,-1
719 1558 m 257,10,-1
 1350 1558 l 257,11,-1
 1032 909 l 257,12,-1
 719 1558 l 257,10,-1
1070 832 m 257,13,-1
 1446 1559 l 257,14,-1
 1446 64 l 257,15,-1
 1070 832 l 257,13,-1
EndSplineSet
EndChar

StartChar: A
Encoding: 65 65 1
GlifName: A_
Width: 2048
VWidth: 0
GlyphClass: 2
Flags: W
AnchorPoint: "top" 1014 1637 basechar 0
AnchorPoint: "base" 1020 -11 basechar 0
LayerCount: 2
Fore
SplineSet
121 0 m 257,0,-1
 320 0 l 257,1,-1
 320 1548 l 257,2,-1
 121 1548 l 257,3,-1
 121 0 l 257,0,-1
182 1332 m 257,4,-1
 1850 1332 l 257,5,-1
 1850 1548 l 257,6,-1
 182 1548 l 257,7,-1
 182 1332 l 257,4,-1
200 1023 m 257,8,-1
 200 849 l 257,9,-1
 1838 849 l 257,10,-1
 1838 1023 l 257,11,-1
 200 1023 l 257,8,-1
1725 0 m 257,12,-1
 1925 0 l 257,13,-1
 1925 1548 l 257,14,-1
 1725 1548 l 257,15,-1
 1725 0 l 257,12,-1
EndSplineSet
EndChar

StartChar: AE
Encoding: 198 198 2
GlifName: A_E_
Width: 2048
VWidth: 0
GlyphClass: 2
Flags: W
LayerCount: 2
Fore
SplineSet
1158 185 m 257,0,-1
 1158 0 l 257,1,-1
 2020 0 l 257,2,-1
 2020 185 l 257,3,-1
 1158 185 l 257,0,-1
125 0 m 257,4,-1
 324 0 l 257,5,-1
 324 1548 l 257,6,-1
 125 1548 l 257,7,-1
 125 0 l 257,4,-1
186 1332 m 257,8,-1
 1998 1332 l 257,9,-1
 1998 1548 l 257,10,-1
 186 1548 l 257,11,-1
 186 1332 l 257,8,-1
204 1023 m 257,12,-1
 204 849 l 257,13,-1
 1946 849 l 257,14,-1
 1946 1023 l 257,15,-1
 204 1023 l 257,12,-1
1063 0 m 257,16,-1
 1263 0 l 257,17,-1
 1263 1548 l 257,18,-1
 1063 1548 l 257,19,-1
 1063 0 l 257,16,-1
EndSplineSet
EndChar

StartChar: B
Encoding: 66 66 14
GlifName: B_
Width: 2048
VWidth: 0
GlyphClass: 2
Flags: W
AnchorPoint: "top" 1037 1623 basechar 0
AnchorPoint: "base" 1021 -59 basechar 0
LayerCount: 2
Fore
SplineSet
90 0 m 257,0,-1
 298 0 l 257,1,-1
 298 1537 l 257,2,-1
 90 1537 l 257,3,-1
 90 0 l 257,0,-1
1438 1331 m 257,4,-1
 1952 989 l 257,5,-1
 1952 1215 l 257,6,-1
 1438 1537 l 257,7,-1
 1438 1331 l 257,4,-1
1438 820 m 257,8,-1
 1952 991 l 257,9,-1
 1952 1215 l 257,10,-1
 1438 1023 l 257,11,-1
 1438 820 l 257,8,-1
1380 201 m 257,12,-1
 1380 0 l 257,13,-1
 1934 364 l 257,14,-1
 1934 588 l 257,15,-1
 1380 201 l 257,12,-1
1446 567 m 257,16,-1
 1934 364 l 257,17,-1
 1934 586 l 257,18,-1
 1446 766 l 257,19,-1
 1446 567 l 257,16,-1
252 1023 m 257,20,-1
 252 820 l 257,21,-1
 1438 820 l 257,22,-1
 1438 1023 l 257,23,-1
 252 1023 l 257,20,-1
250 766 m 257,24,-1
 250 567 l 257,25,-1
 1446 567 l 257,26,-1
 1446 766 l 257,27,-1
 250 766 l 257,24,-1
188 200 m 257,28,-1
 188 0 l 257,29,-1
 1380 0 l 257,30,-1
 1380 200 l 257,31,-1
 188 200 l 257,28,-1
250 1537 m 257,32,-1
 250 1331 l 257,33,-1
 1438 1331 l 257,34,-1
 1438 1537 l 257,35,-1
 250 1537 l 257,32,-1
EndSplineSet
EndChar

StartChar: C
Encoding: 67 67 15
GlifName: C_
Width: 2048
VWidth: 0
GlyphClass: 2
Flags: W
AnchorPoint: "top" 1016 1588 basechar 0
AnchorPoint: "base" 1007 -88 basechar 0
LayerCount: 2
Fore
SplineSet
71 1537 m 257,0,-1
 71 0 l 257,1,-1
 271 0 l 257,2,-1
 271 1537 l 257,3,-1
 71 1537 l 257,0,-1
170 1537 m 257,4,-1
 170 1338 l 257,5,-1
 1977 1338 l 257,6,-1
 1977 1537 l 257,7,-1
 170 1537 l 257,4,-1
156 199 m 257,8,-1
 156 0 l 257,9,-1
 1975 0 l 257,10,-1
 1975 199 l 257,11,-1
 156 199 l 257,8,-1
EndSplineSet
EndChar

StartChar: D
Encoding: 68 68 21
GlifName: D_
Width: 2048
VWidth: 0
GlyphClass: 2
Flags: W
AnchorPoint: "base" 1009 -104 basechar 0
AnchorPoint: "top" 1013 1600 basechar 0
LayerCount: 2
Fore
SplineSet
118 1548 m 257,0,-1
 118 0 l 257,1,-1
 320 0 l 257,2,-1
 320 1548 l 257,3,-1
 118 1548 l 257,0,-1
1444 1548 m 257,4,-1
 1444 1350 l 257,5,-1
 1928 767 l 257,6,-1
 1928 1023 l 257,7,-1
 1444 1548 l 257,4,-1
1452 201 m 257,8,-1
 1452 0 l 257,9,-1
 1924 769 l 257,10,-1
 1924 1023 l 257,11,-1
 1452 201 l 257,8,-1
282 1548 m 257,12,-1
 282 1349 l 257,13,-1
 1444 1349 l 257,14,-1
 1444 1548 l 257,15,-1
 282 1548 l 257,12,-1
290 200 m 257,16,-1
 290 0 l 257,17,-1
 1452 0 l 257,18,-1
 1452 200 l 257,19,-1
 290 200 l 257,16,-1
EndSplineSet
EndChar

StartChar: Dcroat
Encoding: 272 272 23
GlifName: D_croat
Width: 2048
VWidth: 0
GlyphClass: 2
Flags: W
AnchorPoint: "top" 1026 1631 basechar 0
AnchorPoint: "base" 1039 -155 basechar 0
LayerCount: 2
Fore
SplineSet
0 935 m 257,0,-1
 0 730 l 257,1,-1
 600 730 l 257,2,-1
 600 935 l 257,3,-1
 0 935 l 257,0,-1
107 1548 m 257,4,-1
 107 0 l 257,5,-1
 309 0 l 257,6,-1
 309 1548 l 257,7,-1
 107 1548 l 257,4,-1
1457 1548 m 257,8,-1
 1457 1350 l 257,9,-1
 1940 767 l 257,10,-1
 1940 1023 l 257,11,-1
 1457 1548 l 257,8,-1
1465 201 m 257,12,-1
 1465 0 l 257,13,-1
 1937 769 l 257,14,-1
 1937 1023 l 257,15,-1
 1465 201 l 257,12,-1
271 1548 m 257,16,-1
 271 1349 l 257,17,-1
 1457 1349 l 257,18,-1
 1457 1548 l 257,19,-1
 271 1548 l 257,16,-1
279 200 m 257,20,-1
 279 0 l 257,21,-1
 1465 0 l 257,22,-1
 1465 200 l 257,23,-1
 279 200 l 257,20,-1
EndSplineSet
EndChar

StartChar: E
Encoding: 69 69 24
GlifName: E_
Width: 2048
VWidth: 0
GlyphClass: 2
Flags: W
AnchorPoint: "top" 959 1637 basechar 0
AnchorPoint: "base" 1035 -100 basechar 0
LayerCount: 2
Fore
SplineSet
116 1537 m 257,0,-1
 116 0 l 257,1,-1
 316 0 l 257,2,-1
 316 1537 l 257,3,-1
 116 1537 l 257,0,-1
194 1537 m 257,4,-1
 194 1333 l 257,5,-1
 1912 1333 l 257,6,-1
 1912 1537 l 257,7,-1
 194 1537 l 257,4,-1
182 203 m 257,8,-1
 182 0 l 257,9,-1
 1928 0 l 257,10,-1
 1928 203 l 257,11,-1
 182 203 l 257,8,-1
182 888 m 257,12,-1
 182 688 l 257,13,-1
 1682 688 l 257,14,-1
 1682 888 l 257,15,-1
 182 888 l 257,12,-1
EndSplineSet
EndChar

StartChar: Eng
Encoding: 330 330 33
GlifName: E_ng
Width: 2048
VWidth: 0
GlyphClass: 2
Flags: W
AnchorPoint: "top" 1010 1623 basechar 0
AnchorPoint: "base" 884 -400 basechar 0
LayerCount: 2
Fore
SplineSet
1548 -211 m 257,0,-1
 1548 -408 l 257,1,-1
 1935 -408 l 257,2,-1
 1935 -211 l 257,3,-1
 1548 -211 l 257,0,-1
112 1547 m 257,4,-1
 112 0 l 257,5,-1
 313 0 l 257,6,-1
 313 1547 l 257,7,-1
 112 1547 l 257,4,-1
1735 1476 m 257,8,-1
 1735 -408 l 257,9,-1
 1936 -408 l 257,10,-1
 1936 1476 l 257,11,-1
 1735 1476 l 257,8,-1
112 1477 m 257,12,-1
 112 1280 l 257,13,-1
 1935 1280 l 257,14,-1
 1935 1477 l 257,15,-1
 112 1477 l 257,12,-1
EndSplineSet
EndChar

StartChar: Eth
Encoding: 208 208 35
GlifName: E_th
Width: 2048
VWidth: 0
GlyphClass: 2
Flags: W
AnchorPoint: "top" 989 1645 basechar 0
AnchorPoint: "base" 1013 -149 basechar 0
LayerCount: 2
Fore
SplineSet
0 935 m 257,0,-1
 0 730 l 257,1,-1
 476 730 l 257,2,-1
 476 935 l 257,3,-1
 0 935 l 257,0,-1
107 1548 m 257,4,-1
 107 0 l 257,5,-1
 309 0 l 257,6,-1
 309 1548 l 257,7,-1
 107 1548 l 257,4,-1
1457 1548 m 257,8,-1
 1457 1350 l 257,9,-1
 1940 767 l 257,10,-1
 1940 1023 l 257,11,-1
 1457 1548 l 257,8,-1
1465 201 m 257,12,-1
 1465 0 l 257,13,-1
 1937 769 l 257,14,-1
 1937 1023 l 257,15,-1
 1465 201 l 257,12,-1
271 1548 m 257,16,-1
 271 1349 l 257,17,-1
 1457 1349 l 257,18,-1
 1457 1548 l 257,19,-1
 271 1548 l 257,16,-1
279 200 m 257,20,-1
 279 0 l 257,21,-1
 1465 0 l 257,22,-1
 1465 200 l 257,23,-1
 279 200 l 257,20,-1
EndSplineSet
EndChar

StartChar: Euro
Encoding: 8364 8364 36
GlifName: E_uro
Width: 2048
VWidth: 0
GlyphClass: 2
Flags: W
LayerCount: 2
Fore
SplineSet
626 520 m 257,0,-1
 626 372 l 257,1,-1
 1422 372 l 257,2,-1
 1422 520 l 257,3,-1
 626 520 l 257,0,-1
638 935 m 257,4,-1
 638 788 l 257,5,-1
 1418 788 l 257,6,-1
 1418 935 l 257,7,-1
 638 935 l 257,4,-1
894 1023 m 257,8,-1
 894 179 l 257,9,-1
 1084 179 l 257,10,-1
 1084 1023 l 257,11,-1
 894 1023 l 257,8,-1
1212 1633 m 257,12,-1
 894 1023 l 257,13,-1
 1084 1023 l 257,14,-1
 1332 1601 l 257,15,-1
 1212 1633 l 257,12,-1
894 179 m 257,16,-1
 1238 -406 l 257,17,-1
 1390 -406 l 257,18,-1
 1084 179 l 257,19,-1
 894 179 l 257,16,-1
EndSplineSet
EndChar

StartChar: F
Encoding: 70 70 37
GlifName: F_
Width: 2048
VWidth: 0
GlyphClass: 2
Flags: W
AnchorPoint: "top" 1030 1648 basechar 0
AnchorPoint: "base" 266 -71 basechar 0
LayerCount: 2
Fore
SplineSet
153 1548 m 257,0,-1
 153 0 l 257,1,-1
 353 0 l 257,2,-1
 353 1548 l 257,3,-1
 153 1548 l 257,0,-1
255 1548 m 257,4,-1
 255 1347 l 257,5,-1
 1889 1347 l 257,6,-1
 1889 1548 l 257,7,-1
 255 1548 l 257,4,-1
243 875 m 257,8,-1
 243 672 l 257,9,-1
 1792 672 l 257,10,-1
 1792 875 l 257,11,-1
 243 875 l 257,8,-1
EndSplineSet
EndChar

StartChar: G
Encoding: 71 71 38
GlifName: G_
Width: 2048
VWidth: 0
GlyphClass: 2
Flags: W
AnchorPoint: "top" 980 1589 basechar 0
AnchorPoint: "base" 1018 -102 basechar 0
LayerCount: 2
Fore
SplineSet
127 1548 m 257,0,-1
 127 0 l 257,1,-1
 329 0 l 257,2,-1
 329 1548 l 257,3,-1
 127 1548 l 257,0,-1
185 1548 m 257,4,-1
 185 1347 l 257,5,-1
 1885 1347 l 257,6,-1
 1885 1548 l 257,7,-1
 185 1548 l 257,4,-1
158 202 m 257,8,-1
 158 0 l 257,9,-1
 1921 0 l 257,10,-1
 1921 202 l 257,11,-1
 158 202 l 257,8,-1
1722 561 m 257,12,-1
 1722 18 l 257,13,-1
 1921 18 l 257,14,-1
 1921 561 l 257,15,-1
 1722 561 l 257,12,-1
EndSplineSet
EndChar

StartChar: H
Encoding: 72 72 42
GlifName: H_
Width: 2048
VWidth: 0
GlyphClass: 2
Flags: W
AnchorPoint: "top" 1026 1627 basechar 0
AnchorPoint: "base" 1026 -45 basechar 0
LayerCount: 2
Fore
SplineSet
126 1537 m 257,0,-1
 126 0 l 257,1,-1
 326 0 l 257,2,-1
 326 1537 l 257,3,-1
 126 1537 l 257,0,-1
1712 1537 m 257,4,-1
 1712 0 l 257,5,-1
 1922 0 l 257,6,-1
 1922 1537 l 257,7,-1
 1712 1537 l 257,4,-1
246 1023 m 257,8,-1
 246 818 l 257,9,-1
 1792 818 l 257,10,-1
 1792 1023 l 257,11,-1
 246 1023 l 257,8,-1
EndSplineSet
EndChar

StartChar: Hbar
Encoding: 294 294 43
GlifName: H_bar
Width: 2048
VWidth: 0
GlyphClass: 2
Flags: W
LayerCount: 2
Fore
SplineSet
89 1537 m 257,0,-1
 89 0 l 257,1,-1
 289 0 l 257,2,-1
 289 1537 l 257,3,-1
 89 1537 l 257,0,-1
1699 1537 m 257,4,-1
 1699 0 l 257,5,-1
 1909 0 l 257,6,-1
 1909 1537 l 257,7,-1
 1699 1537 l 257,4,-1
209 1023 m 257,8,-1
 209 818 l 257,9,-1
 1779 818 l 257,10,-1
 1779 1023 l 257,11,-1
 209 1023 l 257,8,-1
28 1434 m 257,12,-1
 28 1226 l 257,13,-1
 1977 1226 l 257,14,-1
 1977 1434 l 257,15,-1
 28 1434 l 257,12,-1
EndSplineSet
EndChar

StartChar: I
Encoding: 73 73 45
GlifName: I_
Width: 2048
VWidth: 0
GlyphClass: 2
Flags: W
AnchorPoint: "top" 1027 1618 basechar 0
AnchorPoint: "base" 1029 -86 basechar 0
LayerCount: 2
Fore
SplineSet
144 1537 m 257,0,-1
 144 1335 l 257,1,-1
 1889 1335 l 257,2,-1
 1889 1537 l 257,3,-1
 144 1537 l 257,0,-1
975 1468 m 257,4,-1
 975 84 l 257,5,-1
 1175 84 l 257,6,-1
 1175 1468 l 257,7,-1
 975 1468 l 257,4,-1
124 204 m 257,8,-1
 124 6 l 257,9,-1
 1924 6 l 257,10,-1
 1924 204 l 257,11,-1
 124 204 l 257,8,-1
EndSplineSet
EndChar

StartChar: J
Encoding: 74 74 56
GlifName: J_
Width: 2048
VWidth: 0
GlyphClass: 2
Flags: W
AnchorPoint: "base" 1017 -54 basechar 0
AnchorPoint: "top" 1801 1649 basechar 0
LayerCount: 2
Fore
SplineSet
1712 1527 m 257,0,-1
 1712 0 l 257,1,-1
 1912 0 l 257,2,-1
 1912 1527 l 257,3,-1
 1712 1527 l 257,0,-1
138 208 m 257,4,-1
 138 0 l 257,5,-1
 1752 0 l 257,6,-1
 1752 208 l 257,7,-1
 138 208 l 257,4,-1
136 503 m 257,8,-1
 136 52 l 257,9,-1
 334 52 l 257,10,-1
 334 503 l 257,11,-1
 136 503 l 257,8,-1
EndSplineSet
EndChar

StartChar: K
Encoding: 75 75 58
GlifName: K_
Width: 2048
VWidth: 0
GlyphClass: 2
Flags: W
AnchorPoint: "base" 1030 -39 basechar 0
AnchorPoint: "top" 236 1629 basechar 0
LayerCount: 2
Fore
SplineSet
112 1537 m 257,0,-1
 112 5 l 257,1,-1
 313 5 l 257,2,-1
 313 1537 l 257,3,-1
 112 1537 l 257,0,-1
157 999 m 257,4,-1
 276 835 l 257,5,-1
 1883 1529 l 257,6,-1
 1616 1529 l 257,7,-1
 157 999 l 257,4,-1
287 798 m 257,8,-1
 150 643 l 257,9,-1
 1655 0 l 257,10,-1
 1936 0 l 257,11,-1
 287 798 l 257,8,-1
EndSplineSet
EndChar

StartChar: L
Encoding: 76 76 59
GlifName: L_
Width: 2048
VWidth: 0
GlyphClass: 2
Flags: W
AnchorPoint: "base" 1012 -84 basechar 0
AnchorPoint: "top" 140 1650 basechar 0
LayerCount: 2
Fore
SplineSet
129 1542 m 257,0,-1
 129 0 l 257,1,-1
 327 0 l 257,2,-1
 327 1542 l 257,3,-1
 129 1542 l 257,0,-1
238 202 m 257,4,-1
 238 0 l 257,5,-1
 1914 0 l 257,6,-1
 1914 202 l 257,7,-1
 238 202 l 257,4,-1
EndSplineSet
EndChar

StartChar: Lcaron
Encoding: 317 317 61
GlifName: L_caron
Width: 2048
VWidth: 0
GlyphClass: 2
Flags: W
LayerCount: 2
Fore
SplineSet
53 1542 m 257,0,-1
 53 0 l 257,1,-1
 251 0 l 257,2,-1
 251 1542 l 257,3,-1
 53 1542 l 257,0,-1
162 202 m 257,4,-1
 162 0 l 257,5,-1
 1912 0 l 257,6,-1
 1912 202 l 257,7,-1
 162 202 l 257,4,-1
447 1496 m 257,8,-1
 447 1264 l 257,9,-1
 577 1264 l 257,10,-1
 577 1496 l 257,11,-1
 447 1496 l 257,8,-1
EndSplineSet
EndChar

StartChar: Lslash
Encoding: 321 321 63
GlifName: L_slash
Width: 2048
VWidth: 0
GlyphClass: 2
Flags: W
LayerCount: 2
Fore
SplineSet
171 1542 m 257,0,-1
 171 0 l 257,1,-1
 369 0 l 257,2,-1
 369 1542 l 257,3,-1
 171 1542 l 257,0,-1
280 202 m 257,4,-1
 280 0 l 257,5,-1
 2030 0 l 257,6,-1
 2030 202 l 257,7,-1
 280 202 l 257,4,-1
16 902 m 257,8,-1
 96 730 l 257,9,-1
 530 932 l 257,10,-1
 450 1104 l 257,11,-1
 16 902 l 257,8,-1
EndSplineSet
EndChar

StartChar: M
Encoding: 77 77 64
GlifName: M_
Width: 2048
VWidth: 0
GlyphClass: 2
Flags: W
AnchorPoint: "base" 1022 -20 basechar 0
AnchorPoint: "top" 1040 1661 basechar 0
LayerCount: 2
Fore
SplineSet
138 1548 m 257,0,-1
 138 0 l 257,1,-1
 340 0 l 257,2,-1
 340 1548 l 257,3,-1
 138 1548 l 257,0,-1
1708 1537 m 257,4,-1
 1708 0 l 257,5,-1
 1910 0 l 257,6,-1
 1910 1537 l 257,7,-1
 1708 1537 l 257,4,-1
174 1429 m 257,8,-1
 890 1031 l 257,9,-1
 1078 1031 l 257,10,-1
 316 1548 l 257,11,-1
 174 1429 l 257,8,-1
1736 1537 m 257,12,-1
 888 1023 l 257,13,-1
 1076 1023 l 257,14,-1
 1902 1488 l 257,15,-1
 1736 1537 l 257,12,-1
EndSplineSet
EndChar

StartChar: N
Encoding: 78 78 65
GlifName: N_
Width: 2048
VWidth: 0
GlyphClass: 2
Flags: W
AnchorPoint: "top" 1018 1617 basechar 0
AnchorPoint: "base" 1027 -36 basechar 0
LayerCount: 2
Fore
SplineSet
134 1548 m 257,0,-1
 134 0 l 257,1,-1
 338 0 l 257,2,-1
 338 1548 l 257,3,-1
 134 1548 l 257,0,-1
1710 1548 m 257,4,-1
 1710 0 l 257,5,-1
 1912 0 l 257,6,-1
 1912 1548 l 257,7,-1
 1710 1548 l 257,4,-1
134 1548 m 257,8,-1
 1712 0 l 257,9,-1
 1914 0 l 257,10,-1
 340 1548 l 257,11,-1
 134 1548 l 257,8,-1
EndSplineSet
EndChar

StartChar: O
Encoding: 79 79 69
GlifName: O_
Width: 2048
VWidth: 0
GlyphClass: 2
Flags: W
AnchorPoint: "top" 1029 1661 basechar 0
AnchorPoint: "base" 1029 -28 basechar 0
LayerCount: 2
Fore
SplineSet
149 1537 m 257,0,-1
 149 0 l 257,1,-1
 350 0 l 257,2,-1
 350 1537 l 257,3,-1
 149 1537 l 257,0,-1
1696 1537 m 257,4,-1
 1696 0 l 257,5,-1
 1899 0 l 257,6,-1
 1899 1537 l 257,7,-1
 1696 1537 l 257,4,-1
213 1537 m 257,8,-1
 213 1337 l 257,9,-1
 1806 1337 l 257,10,-1
 1806 1537 l 257,11,-1
 213 1537 l 257,8,-1
189 204 m 257,12,-1
 189 0 l 257,13,-1
 1812 0 l 257,14,-1
 1812 204 l 257,15,-1
 189 204 l 257,12,-1
EndSplineSet
EndChar

StartChar: OE
Encoding: 338 338 70
GlifName: O_E_
Width: 2048
VWidth: 0
GlyphClass: 2
Flags: W
AnchorPoint: "top" 1032 1615 basechar 0
AnchorPoint: "base" 1020 -113 basechar 0
LayerCount: 2
Fore
SplineSet
111 1548 m 257,0,-1
 111 0 l 257,1,-1
 312 0 l 257,2,-1
 312 1548 l 257,3,-1
 111 1548 l 257,0,-1
1015 1548 m 257,4,-1
 1015 0 l 257,5,-1
 1216 0 l 257,6,-1
 1216 1548 l 257,7,-1
 1015 1548 l 257,4,-1
148 1548 m 257,8,-1
 148 1349 l 257,9,-1
 1904 1349 l 257,10,-1
 1904 1548 l 257,11,-1
 148 1548 l 257,8,-1
150 200 m 257,12,-1
 150 0 l 257,13,-1
 1912 0 l 257,14,-1
 1912 200 l 257,15,-1
 150 200 l 257,12,-1
1118 859 m 257,16,-1
 1118 659 l 257,17,-1
 1874 659 l 257,18,-1
 1874 859 l 257,19,-1
 1118 859 l 257,16,-1
EndSplineSet
EndChar

StartChar: Oslash
Encoding: 216 216 79
GlifName: O_slash
Width: 2048
VWidth: 0
GlyphClass: 2
Flags: W
AnchorPoint: "top" 1026 1673 basechar 0
AnchorPoint: "base" 1014 -115 basechar 0
LayerCount: 2
Fore
SplineSet
1812 1667 m 257,0,-1
 35 -45 l 257,1,-1
 223 -118 l 257,2,-1
 2000 1594 l 257,3,-1
 1812 1667 l 257,0,-1
110 1537 m 257,4,-1
 110 0 l 257,5,-1
 311 0 l 257,6,-1
 311 1537 l 257,7,-1
 110 1537 l 257,4,-1
1731 1537 m 257,8,-1
 1731 0 l 257,9,-1
 1934 0 l 257,10,-1
 1934 1537 l 257,11,-1
 1731 1537 l 257,8,-1
174 1537 m 257,12,-1
 174 1337 l 257,13,-1
 1841 1337 l 257,14,-1
 1841 1537 l 257,15,-1
 174 1537 l 257,12,-1
150 204 m 257,16,-1
 150 0 l 257,17,-1
 1847 0 l 257,18,-1
 1847 204 l 257,19,-1
 150 204 l 257,16,-1
EndSplineSet
EndChar

StartChar: P
Encoding: 80 80 82
GlifName: P_
Width: 2048
VWidth: 0
GlyphClass: 2
Flags: W
AnchorPoint: "base" 1025 -82 basechar 0
AnchorPoint: "top" 1021 1648 basechar 0
LayerCount: 2
Fore
SplineSet
172 1548 m 257,0,-1
 172 9 l 257,1,-1
 362 9 l 257,2,-1
 362 1548 l 257,3,-1
 172 1548 l 257,0,-1
250 1548 m 257,4,-1
 250 1346 l 257,5,-1
 1856 1346 l 257,6,-1
 1856 1548 l 257,7,-1
 250 1548 l 257,4,-1
1676 1548 m 257,8,-1
 1676 881 l 257,9,-1
 1876 881 l 257,10,-1
 1876 1548 l 257,11,-1
 1676 1548 l 257,8,-1
234 1068 m 257,12,-1
 234 868 l 257,13,-1
 1872 868 l 257,14,-1
 1872 1068 l 257,15,-1
 234 1068 l 257,12,-1
EndSplineSet
EndChar

StartChar: Q
Encoding: 81 81 83
GlifName: Q_
Width: 2048
VWidth: 0
GlyphClass: 2
Flags: W
AnchorPoint: "base" 1025 -101 basechar 0
AnchorPoint: "top" 1021 1629 basechar 0
LayerCount: 2
Fore
SplineSet
149 1537 m 257,0,-1
 149 5 l 257,1,-1
 348 5 l 257,2,-1
 348 1537 l 257,3,-1
 149 1537 l 257,0,-1
1698 1537 m 257,4,-1
 1698 0 l 257,5,-1
 1899 0 l 257,6,-1
 1899 1537 l 257,7,-1
 1698 1537 l 257,4,-1
213 1537 m 257,8,-1
 213 1337 l 257,9,-1
 1806 1337 l 257,10,-1
 1806 1537 l 257,11,-1
 213 1537 l 257,8,-1
189 205 m 257,12,-1
 189 0 l 257,13,-1
 1812 0 l 257,14,-1
 1812 205 l 257,15,-1
 189 205 l 257,12,-1
1247 21 m 257,16,-1
 1433 -285 l 257,17,-1
 1624 -169 l 257,18,-1
 1438 137 l 257,19,-1
 1247 21 l 257,16,-1
EndSplineSet
EndChar

StartChar: R
Encoding: 82 82 84
GlifName: R_
Width: 2048
VWidth: 0
GlyphClass: 2
Flags: W
AnchorPoint: "base" 1037 -69 basechar 0
AnchorPoint: "top" 1007 1601 basechar 0
LayerCount: 2
Fore
SplineSet
102 1537 m 257,0,-1
 102 0 l 257,1,-1
 303 0 l 257,2,-1
 303 1537 l 257,3,-1
 102 1537 l 257,0,-1
181 1537 m 257,4,-1
 181 1335 l 257,5,-1
 1837 1335 l 257,6,-1
 1837 1537 l 257,7,-1
 181 1537 l 257,4,-1
1664 1537 m 257,8,-1
 1664 872 l 257,9,-1
 1864 872 l 257,10,-1
 1864 1537 l 257,11,-1
 1664 1537 l 257,8,-1
165 1079 m 257,12,-1
 165 868 l 257,13,-1
 1852 868 l 257,14,-1
 1852 1079 l 257,15,-1
 165 1079 l 257,12,-1
305 892 m 257,16,-1
 1706 0 l 257,17,-1
 1946 0 l 257,18,-1
 504 892 l 257,19,-1
 305 892 l 257,16,-1
EndSplineSet
EndChar

StartChar: S
Encoding: 83 83 87
GlifName: S_
Width: 2048
VWidth: 0
GlyphClass: 2
Flags: W
AnchorPoint: "top" 1016 1644 basechar 0
AnchorPoint: "base" 1020 -67 basechar 0
LayerCount: 2
Fore
SplineSet
138 1537 m 257,0,-1
 138 1336 l 257,1,-1
 1736 1336 l 257,2,-1
 1736 1537 l 257,3,-1
 138 1537 l 257,0,-1
138 1542 m 257,4,-1
 138 1028 l 257,5,-1
 340 1028 l 257,6,-1
 340 1542 l 257,7,-1
 138 1542 l 257,4,-1
166 199 m 257,8,-1
 166 0 l 257,9,-1
 1874 0 l 257,10,-1
 1874 199 l 257,11,-1
 166 199 l 257,8,-1
1709 0 m 257,12,-1
 1910 0 l 257,13,-1
 1910 355 l 257,14,-1
 1709 355 l 257,15,-1
 1709 0 l 257,12,-1
138 1028 m 257,16,-1
 1709 355 l 257,17,-1
 1910 355 l 257,18,-1
 340 1028 l 257,19,-1
 138 1028 l 257,16,-1
EndSplineSet
EndChar

StartChar: T
Encoding: 84 84 92
GlifName: T_
Width: 2048
VWidth: 0
GlyphClass: 2
Flags: W
AnchorPoint: "top" 1027 1613 basechar 0
AnchorPoint: "base" 1016 -92 basechar 0
LayerCount: 2
Fore
SplineSet
125 1548 m 257,0,-1
 125 1348 l 257,1,-1
 1923 1348 l 257,2,-1
 1923 1548 l 257,3,-1
 125 1548 l 257,0,-1
924 1436 m 257,4,-1
 924 6 l 257,5,-1
 1124 6 l 257,6,-1
 1124 1436 l 257,7,-1
 924 1436 l 257,4,-1
EndSplineSet
EndChar

StartChar: Thorn
Encoding: 222 222 94
GlifName: T_horn
Width: 2048
VWidth: 0
GlyphClass: 2
Flags: W
LayerCount: 2
Fore
SplineSet
112 1542 m 257,0,-1
 112 9 l 257,1,-1
 302 9 l 257,2,-1
 302 1542 l 257,3,-1
 112 1542 l 257,0,-1
191 1234 m 257,4,-1
 191 1035 l 257,5,-1
 1871 1035 l 257,6,-1
 1871 1234 l 257,7,-1
 191 1234 l 257,4,-1
1691 1233 m 257,8,-1
 1691 569 l 257,9,-1
 1891 569 l 257,10,-1
 1891 1233 l 257,11,-1
 1691 1233 l 257,8,-1
179 684 m 257,12,-1
 179 484 l 257,13,-1
 1890 484 l 257,14,-1
 1890 684 l 257,15,-1
 179 684 l 257,12,-1
EndSplineSet
EndChar

StartChar: U
Encoding: 85 85 95
GlifName: U_
Width: 2048
VWidth: 0
GlyphClass: 2
Flags: W
AnchorPoint: "top" 1013 1626 basechar 0
AnchorPoint: "base" 1041 -110 basechar 0
LayerCount: 2
Fore
SplineSet
156 1537 m 257,0,-1
 156 0 l 257,1,-1
 356 0 l 257,2,-1
 356 1537 l 257,3,-1
 156 1537 l 257,0,-1
1692 1537 m 257,4,-1
 1692 0 l 257,5,-1
 1890 0 l 257,6,-1
 1890 1537 l 257,7,-1
 1692 1537 l 257,4,-1
204 200 m 257,8,-1
 204 0 l 257,9,-1
 1848 0 l 257,10,-1
 1848 200 l 257,11,-1
 204 200 l 257,8,-1
EndSplineSet
EndChar

StartChar: V
Encoding: 86 86 107
GlifName: V_
Width: 2048
VWidth: 0
GlyphClass: 2
Flags: W
AnchorPoint: "top" 1020 1630 basechar 0
AnchorPoint: "base" 1041 -60 basechar 0
LayerCount: 2
Fore
SplineSet
118 1548 m 257,0,-1
 890 0 l 257,1,-1
 1112 0 l 257,2,-1
 320 1548 l 257,3,-1
 118 1548 l 257,0,-1
1728 1548 m 257,4,-1
 1016 0 l 257,5,-1
 1238 0 l 257,6,-1
 1930 1548 l 257,7,-1
 1728 1548 l 257,4,-1
EndSplineSet
EndChar

StartChar: W
Encoding: 87 87 108
GlifName: W_
Width: 2048
VWidth: 0
GlyphClass: 2
Flags: W
AnchorPoint: "base" 1021 -92 basechar 0
AnchorPoint: "top" 1003 1618 basechar 0
LayerCount: 2
Fore
SplineSet
104 1548 m 257,0,-1
 104 0 l 257,1,-1
 304 0 l 257,2,-1
 304 1548 l 257,3,-1
 104 1548 l 257,0,-1
1744 1548 m 257,4,-1
 1744 12 l 257,5,-1
 1946 12 l 257,6,-1
 1946 1548 l 257,7,-1
 1744 1548 l 257,4,-1
926 1028 m 257,8,-1
 926 0 l 257,9,-1
 1128 0 l 257,10,-1
 1128 1028 l 257,11,-1
 926 1028 l 257,8,-1
102 201 m 257,12,-1
 102 0 l 257,13,-1
 1946 0 l 257,14,-1
 1946 201 l 257,15,-1
 102 201 l 257,12,-1
EndSplineSet
EndChar

StartChar: X
Encoding: 88 88 113
GlifName: X_
Width: 2048
VWidth: 0
GlyphClass: 2
Flags: W
AnchorPoint: "top" 1031 1630 basechar 0
AnchorPoint: "base" 1019 -38 basechar 0
LayerCount: 2
Fore
SplineSet
82 1548 m 257,0,-1
 1766 0 l 257,1,-1
 1966 0 l 257,2,-1
 281 1548 l 257,3,-1
 82 1548 l 257,0,-1
85 6 m 257,4,-1
 286 6 l 257,5,-1
 1958 1548 l 257,6,-1
 1759 1548 l 257,7,-1
 85 6 l 257,4,-1
EndSplineSet
EndChar

StartChar: Y
Encoding: 89 89 114
GlifName: Y_
Width: 2048
VWidth: 0
GlyphClass: 2
Flags: W
AnchorPoint: "top" 988 1642 basechar 0
AnchorPoint: "base" 1004 -82 basechar 0
LayerCount: 2
Fore
SplineSet
914 897 m 257,0,-1
 914 0 l 257,1,-1
 1116 0 l 257,2,-1
 1116 897 l 257,3,-1
 914 897 l 257,0,-1
110 1548 m 257,4,-1
 110 859 l 257,5,-1
 310 859 l 257,6,-1
 310 1548 l 257,7,-1
 110 1548 l 257,4,-1
1738 1548 m 257,8,-1
 1738 859 l 257,9,-1
 1938 859 l 257,10,-1
 1938 1548 l 257,11,-1
 1738 1548 l 257,8,-1
178 1023 m 257,12,-1
 178 859 l 257,13,-1
 1848 859 l 257,14,-1
 1848 1023 l 257,15,-1
 178 1023 l 257,12,-1
EndSplineSet
EndChar

StartChar: Z
Encoding: 90 90 119
GlifName: Z_
Width: 2048
VWidth: 0
GlyphClass: 2
Flags: W
AnchorPoint: "top" 1016 1646 basechar 0
AnchorPoint: "base" 1021 -55 basechar 0
LayerCount: 2
Fore
SplineSet
107 1548 m 257,0,-1
 107 1336 l 257,1,-1
 1941 1336 l 257,2,-1
 1941 1548 l 257,3,-1
 107 1548 l 257,0,-1
108 212 m 257,4,-1
 108 0 l 257,5,-1
 1936 0 l 257,6,-1
 1936 212 l 257,7,-1
 108 212 l 257,4,-1
1680 1335 m 257,8,-1
 108 211 l 257,9,-1
 315 211 l 257,10,-1
 1925 1335 l 257,11,-1
 1680 1335 l 257,8,-1
EndSplineSet
EndChar

StartChar: a
Encoding: 97 97 123
GlifName: a
Width: 2048
VWidth: 0
GlyphClass: 2
Flags: W
AnchorPoint: "top" 1028 1103 basechar 0
AnchorPoint: "base" 1027 -82 basechar 0
LayerCount: 2
Fore
SplineSet
178 1023 m 257,0,-1
 178 824 l 257,1,-1
 1784 824 l 257,2,-1
 1784 1023 l 257,3,-1
 178 1023 l 257,0,-1
1671 1023 m 257,4,-1
 1671 0 l 257,5,-1
 1865 0 l 257,6,-1
 1865 1023 l 257,7,-1
 1671 1023 l 257,4,-1
182 599 m 257,8,-1
 182 400 l 257,9,-1
 1806 400 l 257,10,-1
 1806 599 l 257,11,-1
 182 599 l 257,8,-1
182 575 m 257,12,-1
 182 0 l 257,13,-1
 383 0 l 257,14,-1
 383 575 l 257,15,-1
 182 575 l 257,12,-1
180 201 m 257,16,-1
 180 0 l 257,17,-1
 1870 0 l 257,18,-1
 1870 201 l 257,19,-1
 180 201 l 257,16,-1
EndSplineSet
EndChar

StartChar: acute
Encoding: 180 180 127
GlifName: acute
Width: 2048
VWidth: 0
GlyphClass: 2
Flags: W
LayerCount: 2
Fore
SplineSet
1044 1158 m 257,0,-1
 914 904 l 257,1,-1
 1002 858 l 257,2,-1
 1134 1113 l 257,3,-1
 1044 1158 l 257,0,-1
EndSplineSet
EndChar

StartChar: acutecomb
Encoding: 769 769 128
GlifName: acutecomb
Width: 0
VWidth: 0
GlyphClass: 4
Flags: W
AnchorPoint: "top" -3 794 mark 0
LayerCount: 2
Fore
SplineSet
92 1114 m 257,0,-1
 -38 860 l 257,1,-1
 50 814 l 257,2,-1
 182 1069 l 257,3,-1
 92 1114 l 257,0,-1
EndSplineSet
EndChar

StartChar: ae
Encoding: 230 230 130
GlifName: ae
Width: 2048
VWidth: 0
GlyphClass: 2
Flags: W
AnchorPoint: "top" 1044 1151 basechar 0
AnchorPoint: "base" 1032 -97 basechar 0
LayerCount: 2
Fore
SplineSet
48 1023 m 257,0,-1
 48 824 l 257,1,-1
 1891 824 l 257,2,-1
 1891 1023 l 257,3,-1
 48 1023 l 257,0,-1
961 1023 m 257,4,-1
 961 0 l 257,5,-1
 1155 0 l 257,6,-1
 1155 1023 l 257,7,-1
 961 1023 l 257,4,-1
71 599 m 257,8,-1
 71 400 l 257,9,-1
 1892 400 l 257,10,-1
 1892 599 l 257,11,-1
 71 599 l 257,8,-1
71 575 m 257,12,-1
 71 0 l 257,13,-1
 272 0 l 257,14,-1
 272 575 l 257,15,-1
 71 575 l 257,12,-1
69 201 m 257,16,-1
 69 0 l 257,17,-1
 2013 0 l 257,18,-1
 2013 201 l 257,19,-1
 69 201 l 257,16,-1
1797 1023 m 257,20,-1
 1797 400 l 257,21,-1
 1992 400 l 257,22,-1
 1992 1023 l 257,23,-1
 1797 1023 l 257,20,-1
EndSplineSet
EndChar

StartChar: ampersand
Encoding: 38 38 134
GlifName: ampersand
Width: 2048
VWidth: 0
GlyphClass: 2
Flags: W
LayerCount: 2
Fore
SplineSet
772 1537 m 257,0,-1
 1220 12 l 257,1,-1
 1366 56 l 257,2,-1
 934 1537 l 257,3,-1
 772 1537 l 257,0,-1
1316 1401 m 257,4,-1
 1316 1537 l 257,5,-1
 850 1537 l 257,6,-1
 850 1401 l 257,7,-1
 1316 1401 l 257,4,-1
1156 1446 m 257,8,-1
 1156 917 l 257,9,-1
 1316 917 l 257,10,-1
 1316 1446 l 257,11,-1
 1156 1446 l 257,8,-1
620 1045 m 257,12,-1
 620 843 l 257,13,-1
 1316 843 l 257,14,-1
 1316 1045 l 257,15,-1
 620 1045 l 257,12,-1
620 1045 m 257,16,-1
 620 24 l 257,17,-1
 830 24 l 257,18,-1
 830 1045 l 257,19,-1
 620 1045 l 257,16,-1
620 190 m 257,20,-1
 620 6 l 257,21,-1
 1428 6 l 257,22,-1
 1428 190 l 257,23,-1
 620 190 l 257,20,-1
EndSplineSet
EndChar

StartChar: asciicircum
Encoding: 94 94 138
GlifName: asciicircum
Width: 2048
VWidth: 0
GlyphClass: 2
Flags: W
LayerCount: 2
Fore
SplineSet
1100 1023 m 257,0,-1
 950 1023 l 257,1,-1
 686 407 l 257,2,-1
 836 345 l 257,3,-1
 1100 1023 l 257,0,-1
956 904 m 257,4,-1
 1212 343 l 257,5,-1
 1362 400 l 257,6,-1
 1100 1023 l 257,7,-1
 956 904 l 257,4,-1
EndSplineSet
EndChar

StartChar: asciitilde
Encoding: 126 126 139
GlifName: asciitilde
Width: 2048
VWidth: 0
GlyphClass: 2
Flags: W
LayerCount: 2
Fore
SplineSet
878 815 m 257,0,-1
 878 716 l 257,1,-1
 1228 655 l 257,2,-1
 1228 754 l 257,3,-1
 878 815 l 257,0,-1
640 757 m 257,4,-1
 654 659 l 257,5,-1
 878 716 l 257,6,-1
 878 815 l 257,7,-1
 640 757 l 257,4,-1
1228 754 m 257,8,-1
 1228 655 l 257,9,-1
 1408 796 l 257,10,-1
 1384 892 l 257,11,-1
 1228 754 l 257,8,-1
EndSplineSet
EndChar

StartChar: asterisk
Encoding: 42 42 140
GlifName: asterisk
Width: 2048
VWidth: 0
GlyphClass: 2
Flags: W
LayerCount: 2
Fore
SplineSet
934 1297 m 257,0,-1
 934 300 l 257,1,-1
 1164 300 l 257,2,-1
 1164 1297 l 257,3,-1
 934 1297 l 257,0,-1
577 1099 m 257,4,-1
 1305 360 l 257,5,-1
 1464 504 l 257,6,-1
 732 1241 l 257,7,-1
 577 1099 l 257,4,-1
1329 1232 m 257,8,-1
 606 525 l 257,9,-1
 748 372 l 257,10,-1
 1471 1079 l 257,11,-1
 1329 1232 l 257,8,-1
EndSplineSet
EndChar

StartChar: at
Encoding: 64 64 141
GlifName: at
Width: 2048
VWidth: 0
GlyphClass: 2
Flags: W
LayerCount: 2
Fore
SplineSet
613 1023 m 257,0,-1
 613 879 l 257,1,-1
 1432 879 l 257,2,-1
 1432 1023 l 257,3,-1
 613 1023 l 257,0,-1
1149 592 m 257,4,-1
 1149 0 l 257,5,-1
 1302 0 l 257,6,-1
 1302 592 l 257,7,-1
 1149 592 l 257,4,-1
816 600 m 257,8,-1
 816 444 l 257,9,-1
 1241 444 l 257,10,-1
 1241 600 l 257,11,-1
 816 600 l 257,8,-1
813 589 m 257,12,-1
 813 12 l 257,13,-1
 987 12 l 257,14,-1
 987 589 l 257,15,-1
 813 589 l 257,12,-1
811 188 m 257,16,-1
 811 0 l 257,17,-1
 1305 0 l 257,18,-1
 1305 188 l 257,19,-1
 811 188 l 257,16,-1
525 1023 m 257,20,-1
 525 -223 l 257,21,-1
 701 -223 l 257,22,-1
 701 1023 l 257,23,-1
 525 1023 l 257,20,-1
523 -86 m 257,24,-1
 523 -258 l 257,25,-1
 1471 -258 l 257,26,-1
 1471 -86 l 257,27,-1
 523 -86 l 257,24,-1
1374 1011 m 257,28,-1
 1374 0 l 257,29,-1
 1525 0 l 257,30,-1
 1525 1011 l 257,31,-1
 1374 1011 l 257,28,-1
1246 175 m 257,32,-1
 1246 0 l 257,33,-1
 1455 0 l 257,34,-1
 1455 175 l 257,35,-1
 1246 175 l 257,32,-1
EndSplineSet
EndChar

StartChar: b
Encoding: 98 98 143
GlifName: b
Width: 2048
VWidth: 0
GlyphClass: 2
Flags: W
AnchorPoint: "base" 1014 -78 basechar 0
AnchorPoint: "top" 258 1604 basechar 0
LayerCount: 2
Fore
SplineSet
143 1537 m 257,0,-1
 143 0 l 257,1,-1
 342 0 l 257,2,-1
 342 1537 l 257,3,-1
 143 1537 l 257,0,-1
240 1033 m 257,4,-1
 240 834 l 257,5,-1
 1766 834 l 257,6,-1
 1766 1033 l 257,7,-1
 240 1033 l 257,4,-1
1706 1033 m 257,8,-1
 1706 0 l 257,9,-1
 1905 0 l 257,10,-1
 1905 1033 l 257,11,-1
 1706 1033 l 257,8,-1
268 207 m 257,12,-1
 268 0 l 257,13,-1
 1826 0 l 257,14,-1
 1826 207 l 257,15,-1
 268 207 l 257,12,-1
EndSplineSet
EndChar

StartChar: backslash
Encoding: 92 92 144
GlifName: backslash
Width: 2048
VWidth: 0
GlyphClass: 2
Flags: W
LayerCount: 2
Fore
SplineSet
615 1441 m 257,0,-1
 1242 -13 l 257,1,-1
 1433 65 l 257,2,-1
 807 1519 l 257,3,-1
 615 1441 l 257,0,-1
EndSplineSet
EndChar

StartChar: bar
Encoding: 124 124 145
GlifName: bar
Width: 2048
VWidth: 0
GlyphClass: 2
Flags: W
LayerCount: 2
Fore
SplineSet
922 1435 m 257,0,-1
 922 -90 l 257,1,-1
 1126 -90 l 257,2,-1
 1126 1435 l 257,3,-1
 922 1435 l 257,0,-1
EndSplineSet
EndChar

StartChar: braceleft
Encoding: 123 123 146
GlifName: braceleft
Width: 2048
VWidth: 0
GlyphClass: 2
Flags: W
LayerCount: 2
Fore
SplineSet
1024 1548 m 257,0,-1
 1024 838 l 257,1,-1
 1170 838 l 257,2,-1
 1170 1548 l 257,3,-1
 1024 1548 l 257,0,-1
1036 424 m 257,4,-1
 1036 -286 l 257,5,-1
 1182 -286 l 257,6,-1
 1182 424 l 257,7,-1
 1036 424 l 257,4,-1
735 690 m 257,8,-1
 735 630 l 257,9,-1
 1170 838 l 257,10,-1
 1024 838 l 257,11,-1
 735 690 l 257,8,-1
735 690 m 257,12,-1
 735 630 l 257,13,-1
 1034 425 l 257,14,-1
 1183 425 l 257,15,-1
 735 690 l 257,12,-1
1025 1603 m 257,16,-1
 1025 1452 l 257,17,-1
 1293 1574 l 257,18,-1
 1297 1603 l 257,19,-1
 1025 1603 l 257,16,-1
1037 -140 m 257,20,-1
 1037 -287 l 257,21,-1
 1313 -287 l 257,22,-1
 1313 -274 l 257,23,-1
 1037 -140 l 257,20,-1
EndSplineSet
EndChar

StartChar: braceright
Encoding: 125 125 147
GlifName: braceright
Width: 2048
VWidth: 0
GlyphClass: 2
Flags: W
LayerCount: 2
Fore
SplineSet
1040 1548 m 257,0,-1
 878 1548 l 257,1,-1
 878 838 l 257,2,-1
 1036 838 l 257,3,-1
 1040 1548 l 257,0,-1
1026 424 m 257,4,-1
 866 424 l 257,5,-1
 866 -286 l 257,6,-1
 1026 -286 l 257,7,-1
 1026 424 l 257,4,-1
1313 690 m 257,8,-1
 1035 838 l 257,9,-1
 874 838 l 257,10,-1
 1313 630 l 257,11,-1
 1313 690 l 257,8,-1
1313 690 m 257,12,-1
 866 424 l 257,13,-1
 1026 424 l 257,14,-1
 1313 630 l 257,15,-1
 1313 690 l 257,12,-1
1041 1603 m 257,16,-1
 766 1603 l 257,17,-1
 770 1574 l 257,18,-1
 1038 1452 l 257,19,-1
 1041 1603 l 257,16,-1
1011 -140 m 257,20,-1
 735 -274 l 257,21,-1
 735 -284 l 257,22,-1
 1011 -284 l 257,23,-1
 1011 -140 l 257,20,-1
EndSplineSet
EndChar

StartChar: bracketleft
Encoding: 91 91 148
GlifName: bracketleft
Width: 2048
VWidth: 0
GlyphClass: 2
Flags: W
LayerCount: 2
Fore
SplineSet
890 1542 m 257,0,-1
 890 -242 l 257,1,-1
 1012 -242 l 257,2,-1
 1012 1542 l 257,3,-1
 890 1542 l 257,0,-1
944 1543 m 257,4,-1
 944 1416 l 257,5,-1
 1153 1416 l 257,6,-1
 1153 1543 l 257,7,-1
 944 1543 l 257,4,-1
944 -91 m 257,8,-1
 944 -242 l 257,9,-1
 1158 -242 l 257,10,-1
 1158 -91 l 257,11,-1
 944 -91 l 257,8,-1
EndSplineSet
EndChar

StartChar: bracketright
Encoding: 93 93 149
GlifName: bracketright
Width: 2048
VWidth: 0
GlyphClass: 2
Flags: W
LayerCount: 2
Fore
SplineSet
1036 1542 m 257,0,-1
 1036 -242 l 257,1,-1
 1158 -242 l 257,2,-1
 1158 1542 l 257,3,-1
 1036 1542 l 257,0,-1
886 1543 m 257,4,-1
 886 1416 l 257,5,-1
 1094 1416 l 257,6,-1
 1094 1543 l 257,7,-1
 886 1543 l 257,4,-1
886 -91 m 257,8,-1
 886 -242 l 257,9,-1
 1100 -242 l 257,10,-1
 1100 -91 l 257,11,-1
 886 -91 l 257,8,-1
EndSplineSet
EndChar

StartChar: breve
Encoding: 728 728 150
GlifName: breve
Width: 2048
VWidth: 0
GlyphClass: 2
Flags: W
VStem: 694 660<1213 1295 1213 1310>
LayerCount: 2
Fore
SplineSet
1189 1213 m 257,0,-1
 1189 1145 l 257,1,-1
 1354 1213 l 257,2,-1
 1354 1310 l 257,3,-1
 1189 1213 l 257,0,-1
865 1213 m 257,4,-1
 865 1145 l 257,5,-1
 1189 1145 l 257,6,-1
 1189 1213 l 257,7,-1
 865 1213 l 257,4,-1
694 1295 m 257,8,-1
 694 1213 l 257,9,-1
 865 1145 l 257,10,-1
 865 1213 l 257,11,-1
 694 1295 l 257,8,-1
EndSplineSet
PickledDataWithLists: "(dp0
Vcom.fontlab.hintData
p1
(dp2
Vvhints
p3
(lp4
(dp5
Vposition
p6
I694
sVwidth
p7
I660
sass."
EndChar

StartChar: brokenbar
Encoding: 166 166 151
GlifName: brokenbar
Width: 2048
VWidth: 0
GlyphClass: 2
Flags: W
LayerCount: 2
Fore
SplineSet
967 -332 m 257,0,-1
 1077 -332 l 257,1,-1
 1077 682 l 257,2,-1
 967 682 l 257,3,-1
 967 -332 l 257,0,-1
970 790 m 257,4,-1
 1081 790 l 257,5,-1
 1081 1636 l 257,6,-1
 970 1636 l 257,7,-1
 970 790 l 257,4,-1
EndSplineSet
EndChar

StartChar: bullet
Encoding: 8226 8226 152
GlifName: bullet
Width: 2048
VWidth: 0
GlyphClass: 2
Flags: W
LayerCount: 2
Fore
SplineSet
882 1023 m 257,0,-1
 882 765 l 257,1,-1
 1166 765 l 257,2,-1
 1166 1023 l 257,3,-1
 882 1023 l 257,0,-1
EndSplineSet
EndChar

StartChar: c
Encoding: 99 99 153
GlifName: c
Width: 2048
VWidth: 0
GlyphClass: 2
Flags: W
AnchorPoint: "base" 1028 -71 basechar 0
AnchorPoint: "top" 1010 1123 basechar 0
LayerCount: 2
Fore
SplineSet
171 1023 m 257,0,-1
 171 826 l 257,1,-1
 1877 826 l 257,2,-1
 1877 1023 l 257,3,-1
 171 1023 l 257,0,-1
173 984 m 257,4,-1
 173 0 l 257,5,-1
 375 0 l 257,6,-1
 375 984 l 257,7,-1
 173 984 l 257,4,-1
279 201 m 257,8,-1
 279 0 l 257,9,-1
 1871 0 l 257,10,-1
 1871 201 l 257,11,-1
 279 201 l 257,8,-1
EndSplineSet
EndChar

StartChar: caron
Encoding: 711 711 155
GlifName: caron
Width: 2048
VWidth: 0
GlyphClass: 2
Flags: W
LayerCount: 2
Fore
SplineSet
979 1158 m 257,0,-1
 873 1430 l 257,1,-1
 813 1405 l 257,2,-1
 919 1158 l 257,3,-1
 979 1158 l 257,0,-1
921 1206 m 257,4,-1
 979 1158 l 257,5,-1
 1084 1408 l 257,6,-1
 1024 1430 l 257,7,-1
 921 1206 l 257,4,-1
EndSplineSet
EndChar

StartChar: cedilla
Encoding: 184 184 160
GlifName: cedilla
Width: 2048
VWidth: 0
GlyphClass: 2
Flags: W
LayerCount: 2
Fore
SplineSet
800 20 m 257,0,-1
 800 -304 l 257,1,-1
 956 -304 l 257,2,-1
 956 20 l 257,3,-1
 800 20 l 257,0,-1
802 -448 m 257,4,-1
 802 -566 l 257,5,-1
 1248 -566 l 257,6,-1
 1248 -448 l 257,7,-1
 802 -448 l 257,4,-1
1096 -160 m 257,8,-1
 1096 -532 l 257,9,-1
 1248 -532 l 257,10,-1
 1248 -160 l 257,11,-1
 1096 -160 l 257,8,-1
802 -160 m 257,12,-1
 802 -316 l 257,13,-1
 1248 -316 l 257,14,-1
 1248 -160 l 257,15,-1
 802 -160 l 257,12,-1
EndSplineSet
EndChar

StartChar: cent
Encoding: 162 162 161
GlifName: cent
Width: 2048
VWidth: 0
GlyphClass: 2
Flags: W
LayerCount: 2
Fore
SplineSet
1203 1183 m 257,0,-1
 1056 1183 l 257,1,-1
 1056 -86 l 257,2,-1
 1203 -86 l 257,3,-1
 1203 1183 l 257,0,-1
676 1023 m 257,4,-1
 676 826 l 257,5,-1
 1372 826 l 257,6,-1
 1372 1023 l 257,7,-1
 676 1023 l 257,4,-1
678 984 m 257,8,-1
 678 0 l 257,9,-1
 880 0 l 257,10,-1
 880 984 l 257,11,-1
 678 984 l 257,8,-1
784 201 m 257,12,-1
 784 0 l 257,13,-1
 1366 0 l 257,14,-1
 1366 201 l 257,15,-1
 784 201 l 257,12,-1
EndSplineSet
EndChar

StartChar: circumflex
Encoding: 710 710 162
GlifName: circumflex
Width: 2048
VWidth: 0
GlyphClass: 2
Flags: W
LayerCount: 2
Fore
SplineSet
1085 1298 m 257,0,-1
 1025 1298 l 257,1,-1
 919 1051 l 257,2,-1
 979 1026 l 257,3,-1
 1085 1298 l 257,0,-1
1027 1250 m 257,4,-1
 1131 1026 l 257,5,-1
 1191 1048 l 257,6,-1
 1085 1298 l 257,7,-1
 1027 1250 l 257,4,-1
EndSplineSet
EndChar

StartChar: colon
Encoding: 58 58 163
GlifName: colon
Width: 2048
VWidth: 0
GlyphClass: 2
Flags: W
LayerCount: 2
Fore
SplineSet
912 430 m 257,0,-1
 912 201 l 257,1,-1
 1160 201 l 257,2,-1
 1160 430 l 257,3,-1
 912 430 l 257,0,-1
888 1294 m 257,4,-1
 888 1047 l 257,5,-1
 1154 1047 l 257,6,-1
 1154 1294 l 257,7,-1
 888 1294 l 257,4,-1
EndSplineSet
EndChar

StartChar: comma
Encoding: 44 44 164
GlifName: comma
Width: 2048
VWidth: 0
GlyphClass: 2
Flags: W
LayerCount: 2
Fore
SplineSet
910 237 m 257,0,-1
 910 8 l 257,1,-1
 1158 8 l 257,2,-1
 1158 237 l 257,3,-1
 910 237 l 257,0,-1
1008 135 m 257,4,-1
 890 -146 l 257,5,-1
 1034 -206 l 257,6,-1
 1156 0 l 257,7,-1
 1008 135 l 257,4,-1
EndSplineSet
EndChar

StartChar: copyright
Encoding: 169 169 165
GlifName: copyright
Width: 2048
VWidth: 0
GlyphClass: 2
Flags: W
LayerCount: 2
Fore
SplineSet
24 1537 m 257,0,-1
 24 0 l 257,1,-1
 224 0 l 257,2,-1
 224 1537 l 257,3,-1
 24 1537 l 257,0,-1
1822 1537 m 257,4,-1
 1822 0 l 257,5,-1
 2024 0 l 257,6,-1
 2024 1537 l 257,7,-1
 1822 1537 l 257,4,-1
134 1537 m 257,8,-1
 134 1337 l 257,9,-1
 1824 1337 l 257,10,-1
 1824 1537 l 257,11,-1
 134 1537 l 257,8,-1
158 204 m 257,12,-1
 158 0 l 257,13,-1
 1830 0 l 257,14,-1
 1830 204 l 257,15,-1
 158 204 l 257,12,-1
270 1197 m 257,16,-1
 270 996 l 257,17,-1
 1704 996 l 257,18,-1
 1704 1197 l 257,19,-1
 270 1197 l 257,16,-1
270 1154 m 257,20,-1
 270 340 l 257,21,-1
 440 340 l 257,22,-1
 440 1154 l 257,23,-1
 270 1154 l 257,20,-1
270 495 m 257,24,-1
 270 294 l 257,25,-1
 1710 294 l 257,26,-1
 1710 495 l 257,27,-1
 270 495 l 257,24,-1
EndSplineSet
EndChar

StartChar: currency
Encoding: 164 164 166
GlifName: currency
Width: 2048
VWidth: 0
GlyphClass: 2
Flags: W
LayerCount: 2
Fore
SplineSet
116 1202 m 257,0,-1
 116 180 l 257,1,-1
 316 180 l 257,2,-1
 316 1202 l 257,3,-1
 116 1202 l 257,0,-1
1731 1204 m 257,4,-1
 1731 180 l 257,5,-1
 1933 180 l 257,6,-1
 1933 1204 l 257,7,-1
 1731 1204 l 257,4,-1
239 1204 m 257,8,-1
 239 1002 l 257,9,-1
 1825 1002 l 257,10,-1
 1825 1204 l 257,11,-1
 239 1204 l 257,8,-1
243 380 m 257,12,-1
 243 181 l 257,13,-1
 1815 181 l 257,14,-1
 1815 380 l 257,15,-1
 243 380 l 257,12,-1
52 1372 m 257,16,-1
 52 1125 l 257,17,-1
 318 1125 l 257,18,-1
 318 1372 l 257,19,-1
 52 1372 l 257,16,-1
1730 1371 m 257,20,-1
 1730 1124 l 257,21,-1
 1996 1124 l 257,22,-1
 1996 1371 l 257,23,-1
 1730 1371 l 257,20,-1
50 270 m 257,24,-1
 50 23 l 257,25,-1
 316 23 l 257,26,-1
 316 270 l 257,27,-1
 50 270 l 257,24,-1
1732 279 m 257,28,-1
 1732 32 l 257,29,-1
 1998 32 l 257,30,-1
 1998 279 l 257,31,-1
 1732 279 l 257,28,-1
EndSplineSet
EndChar

StartChar: d
Encoding: 100 100 167
GlifName: d
Width: 2048
VWidth: 0
GlyphClass: 2
Flags: W
AnchorPoint: "base" 1025 -70 basechar 0
AnchorPoint: "top" 1035 1597 basechar 0
LayerCount: 2
Fore
SplineSet
1704 1527 m 257,0,-1
 1704 0 l 257,1,-1
 1904 0 l 257,2,-1
 1904 1527 l 257,3,-1
 1704 1527 l 257,0,-1
240 1023 m 257,4,-1
 240 822 l 257,5,-1
 1792 822 l 257,6,-1
 1792 1023 l 257,7,-1
 240 1023 l 257,4,-1
144 1023 m 257,8,-1
 144 0 l 257,9,-1
 344 0 l 257,10,-1
 344 1023 l 257,11,-1
 144 1023 l 257,8,-1
240 195 m 257,12,-1
 240 0 l 257,13,-1
 1856 0 l 257,14,-1
 1856 195 l 257,15,-1
 240 195 l 257,12,-1
EndSplineSet
EndChar

StartChar: dagger
Encoding: 8224 8224 168
GlifName: dagger
Width: 2048
VWidth: 0
GlyphClass: 2
Flags: W
LayerCount: 2
Fore
SplineSet
721 1251 m 257,0,-1
 721 1086 l 257,1,-1
 1327 1086 l 257,2,-1
 1327 1251 l 257,3,-1
 721 1251 l 257,0,-1
945 1548 m 257,4,-1
 945 0 l 257,5,-1
 1090 0 l 257,6,-1
 1090 1548 l 257,7,-1
 945 1548 l 257,4,-1
EndSplineSet
EndChar

StartChar: daggerdbl
Encoding: 8225 8225 169
GlifName: daggerdbl
Width: 2048
VWidth: 0
GlyphClass: 2
Flags: W
LayerCount: 2
Fore
SplineSet
721 937 m 257,0,-1
 721 772 l 257,1,-1
 1327 772 l 257,2,-1
 1327 937 l 257,3,-1
 721 937 l 257,0,-1
721 1251 m 257,4,-1
 721 1086 l 257,5,-1
 1327 1086 l 257,6,-1
 1327 1251 l 257,7,-1
 721 1251 l 257,4,-1
945 1548 m 257,8,-1
 945 0 l 257,9,-1
 1090 0 l 257,10,-1
 1090 1548 l 257,11,-1
 945 1548 l 257,8,-1
EndSplineSet
EndChar

StartChar: dcaron
Encoding: 271 271 170
GlifName: dcaron
Width: 2048
VWidth: 0
GlyphClass: 2
Flags: W
LayerCount: 2
Fore
SplineSet
1637 1527 m 257,0,-1
 1637 0 l 257,1,-1
 1838 0 l 257,2,-1
 1838 1527 l 257,3,-1
 1637 1527 l 257,0,-1
149 1023 m 257,4,-1
 149 822 l 257,5,-1
 1726 822 l 257,6,-1
 1726 1023 l 257,7,-1
 149 1023 l 257,4,-1
53 1023 m 257,8,-1
 53 0 l 257,9,-1
 254 0 l 257,10,-1
 254 1023 l 257,11,-1
 53 1023 l 257,8,-1
149 195 m 257,12,-1
 149 0 l 257,13,-1
 1790 0 l 257,14,-1
 1790 195 l 257,15,-1
 149 195 l 257,12,-1
1884 1496 m 257,16,-1
 1884 1264 l 257,17,-1
 2014 1264 l 257,18,-1
 2014 1496 l 257,19,-1
 1884 1496 l 257,16,-1
EndSplineSet
EndChar

StartChar: dcroat
Encoding: 273 273 171
GlifName: dcroat
Width: 2048
VWidth: 0
GlyphClass: 2
Flags: W
AnchorPoint: "top" 1827 1627 basechar 0
AnchorPoint: "base" 1026 -86 basechar 0
LayerCount: 2
Fore
SplineSet
1716 1527 m 257,0,-1
 1716 0 l 257,1,-1
 1917 0 l 257,2,-1
 1917 1527 l 257,3,-1
 1716 1527 l 257,0,-1
228 1023 m 257,4,-1
 228 822 l 257,5,-1
 1805 822 l 257,6,-1
 1805 1023 l 257,7,-1
 228 1023 l 257,4,-1
132 1023 m 257,8,-1
 132 0 l 257,9,-1
 333 0 l 257,10,-1
 333 1023 l 257,11,-1
 132 1023 l 257,8,-1
228 195 m 257,12,-1
 228 0 l 257,13,-1
 1869 0 l 257,14,-1
 1869 195 l 257,15,-1
 228 195 l 257,12,-1
1579 1403 m 257,16,-1
 1579 1202 l 257,17,-1
 2023 1202 l 257,18,-1
 2023 1403 l 257,19,-1
 1579 1403 l 257,16,-1
EndSplineSet
EndChar

StartChar: degree
Encoding: 176 176 172
GlifName: degree
Width: 2048
VWidth: 0
GlyphClass: 2
Flags: W
LayerCount: 2
Fore
SplineSet
949 1456 m 257,0,-1
 1097 1456 l 257,1,-1
 1097 1326 l 257,2,-1
 949 1326 l 257,3,-1
 949 1456 l 257,0,-1
844 1548 m 257,4,-1
 844 1238 l 257,5,-1
 1204 1238 l 257,6,-1
 1204 1548 l 257,7,-1
 844 1548 l 257,4,-1
EndSplineSet
EndChar

StartChar: dieresis
Encoding: 168 168 173
GlifName: dieresis
Width: 2048
VWidth: 0
GlyphClass: 2
Flags: W
HStem: 122 151<758 926 1122 1290>
LayerCount: 2
Fore
SplineSet
758 273 m 257,0,-1
 758 122 l 257,1,-1
 926 122 l 257,2,-1
 926 273 l 257,3,-1
 758 273 l 257,0,-1
1122 273 m 257,4,-1
 1122 122 l 257,5,-1
 1290 122 l 257,6,-1
 1290 273 l 257,7,-1
 1122 273 l 257,4,-1
EndSplineSet
PickledDataWithLists: "(dp0
Vcom.fontlab.hintData
p1
(dp2
Vhhints
p3
(lp4
(dp5
Vposition
p6
I122
sVwidth
p7
I151
sass."
EndChar

StartChar: divide
Encoding: 247 247 174
GlifName: divide
Width: 2048
VWidth: 0
GlyphClass: 2
Flags: W
LayerCount: 2
Fore
SplineSet
912 430 m 257,0,-1
 912 201 l 257,1,-1
 1160 201 l 257,2,-1
 1160 430 l 257,3,-1
 912 430 l 257,0,-1
888 1294 m 257,4,-1
 888 1047 l 257,5,-1
 1154 1047 l 257,6,-1
 1154 1294 l 257,7,-1
 888 1294 l 257,4,-1
611 808 m 257,8,-1
 611 600 l 257,9,-1
 1437 600 l 257,10,-1
 1437 808 l 257,11,-1
 611 808 l 257,8,-1
EndSplineSet
EndChar

StartChar: dollar
Encoding: 36 36 175
GlifName: dollar
Width: 2048
VWidth: 0
GlyphClass: 2
Flags: W
LayerCount: 2
Fore
SplineSet
638 1537 m 257,0,-1
 638 1358 l 257,1,-1
 1236 1358 l 257,2,-1
 1236 1537 l 257,3,-1
 638 1537 l 257,0,-1
638 1542 m 257,4,-1
 638 1028 l 257,5,-1
 843 1028 l 257,6,-1
 843 1542 l 257,7,-1
 638 1542 l 257,4,-1
666 163 m 257,8,-1
 666 0 l 257,9,-1
 1374 0 l 257,10,-1
 1374 163 l 257,11,-1
 666 163 l 257,8,-1
1204 0 m 257,12,-1
 1410 0 l 257,13,-1
 1410 355 l 257,14,-1
 1204 355 l 257,15,-1
 1204 0 l 257,12,-1
638 1028 m 257,16,-1
 1204 355 l 257,17,-1
 1410 355 l 257,18,-1
 843 1028 l 257,19,-1
 638 1028 l 257,16,-1
897 1636 m 257,20,-1
 897 -215 l 257,21,-1
 1111 -215 l 257,22,-1
 1111 1636 l 257,23,-1
 897 1636 l 257,20,-1
EndSplineSet
EndChar

StartChar: dotaccent
Encoding: 729 729 176
GlifName: dotaccent
Width: 2048
VWidth: 0
GlyphClass: 2
Flags: W
HStem: 1145 202<912 1136>
VStem: 912 224<1145 1347 1145 1347>
LayerCount: 2
Fore
SplineSet
912 1347 m 257,0,-1
 912 1145 l 257,1,-1
 1136 1145 l 257,2,-1
 1136 1347 l 257,3,-1
 912 1347 l 257,0,-1
EndSplineSet
PickledDataWithLists: "(dp0
Vcom.fontlab.hintData
p1
(dp2
Vhhints
p3
(lp4
(dp5
Vposition
p6
I1145
sVwidth
p7
I202
sasVvhints
p8
(lp9
(dp10
g6
I912
sg7
I224
sass."
EndChar

StartChar: dotbelowcomb
Encoding: 803 803 177
GlifName: dotbelowcomb
Width: 0
VWidth: 0
GlyphClass: 4
Flags: W
HStem: -451 247<-132 132>
VStem: -132 264<-451 -204 -451 -204>
AnchorPoint: "base" 4 -195 mark 0
LayerCount: 2
Fore
SplineSet
-132 -204 m 257,0,-1
 -132 -451 l 257,1,-1
 132 -451 l 257,2,-1
 132 -204 l 257,3,-1
 -132 -204 l 257,0,-1
EndSplineSet
PickledDataWithLists: "(dp0
Vcom.fontlab.hintData
p1
(dp2
Vhhints
p3
(lp4
(dp5
Vposition
p6
I-451
sVwidth
p7
I247
sasVvhints
p8
(lp9
(dp10
g6
I-132
sg7
I264
sass."
EndChar

StartChar: dotlessi
Encoding: 305 305 178
GlifName: dotlessi
Width: 2048
VWidth: 0
GlyphClass: 2
Flags: W
AnchorPoint: "top" 1021 1160 basechar 0
AnchorPoint: "base" 1182 -9 basechar 0
LayerCount: 2
Fore
SplineSet
923 1018 m 257,0,-1
 923 139 l 257,1,-1
 1125 139 l 257,2,-1
 1125 1018 l 257,3,-1
 923 1018 l 257,0,-1
153 204 m 257,4,-1
 153 6 l 257,5,-1
 1895 6 l 257,6,-1
 1895 204 l 257,7,-1
 153 204 l 257,4,-1
203 1018 m 257,8,-1
 203 818 l 257,9,-1
 1079 818 l 257,10,-1
 1079 1018 l 257,11,-1
 203 1018 l 257,8,-1
EndSplineSet
EndChar

StartChar: e
Encoding: 101 101 179
GlifName: e
Width: 2048
VWidth: 0
GlyphClass: 2
Flags: W
AnchorPoint: "top" 983 1092 basechar 0
AnchorPoint: "base" 1019 -82 basechar 0
LayerCount: 2
Fore
SplineSet
230 1023 m 257,0,-1
 230 812 l 257,1,-1
 1864 812 l 257,2,-1
 1864 1023 l 257,3,-1
 230 1023 l 257,0,-1
180 1023 m 257,4,-1
 180 0 l 257,5,-1
 382 0 l 257,6,-1
 382 1023 l 257,7,-1
 180 1023 l 257,4,-1
282 201 m 257,8,-1
 282 0 l 257,9,-1
 1864 0 l 257,10,-1
 1864 201 l 257,11,-1
 282 201 l 257,8,-1
250 625 m 257,12,-1
 250 446 l 257,13,-1
 1840 446 l 257,14,-1
 1840 625 l 257,15,-1
 250 625 l 257,12,-1
1668 993 m 257,16,-1
 1668 445 l 257,17,-1
 1862 445 l 257,18,-1
 1862 993 l 257,19,-1
 1668 993 l 257,16,-1
EndSplineSet
EndChar

StartChar: eight
Encoding: 56 56 187
GlifName: eight
Width: 2048
VWidth: 0
GlyphClass: 2
Flags: W
LayerCount: 2
Fore
SplineSet
56 1548 m 257,0,-1
 56 0 l 257,1,-1
 1993 0 l 257,2,-1
 1993 1548 l 257,3,-1
 56 1548 l 257,0,-1
1791 759 m 257,4,-1
 1791 197 l 257,5,-1
 260 197 l 257,6,-1
 260 759 l 257,7,-1
 1791 759 l 257,4,-1
1792 959 m 257,8,-1
 260 959 l 257,9,-1
 260 1350 l 257,10,-1
 1792 1350 l 257,11,-1
 1792 959 l 257,8,-1
EndSplineSet
EndChar

StartChar: ellipsis
Encoding: 8230 8230 188
GlifName: ellipsis
Width: 2048
VWidth: 0
GlyphClass: 2
Flags: W
LayerCount: 2
Fore
SplineSet
692 114 m 257,0,-1
 692 0 l 257,1,-1
 834 0 l 257,2,-1
 834 114 l 257,3,-1
 692 114 l 257,0,-1
948 114 m 257,4,-1
 948 0 l 257,5,-1
 1092 0 l 257,6,-1
 1092 114 l 257,7,-1
 948 114 l 257,4,-1
1214 114 m 257,8,-1
 1214 0 l 257,9,-1
 1356 0 l 257,10,-1
 1356 114 l 257,11,-1
 1214 114 l 257,8,-1
EndSplineSet
EndChar

StartChar: emdash
Encoding: 8212 8212 190
GlifName: emdash
Width: 2048
VWidth: 0
GlyphClass: 2
Flags: W
LayerCount: 2
Fore
SplineSet
87 600 m 257,0,-1
 1950 600 l 257,1,-1
 1950 808 l 257,2,-1
 87 808 l 257,3,-1
 87 600 l 257,0,-1
EndSplineSet
EndChar

StartChar: endash
Encoding: 8211 8211 191
GlifName: endash
Width: 2048
VWidth: 0
GlyphClass: 2
Flags: W
LayerCount: 2
Fore
SplineSet
611 600 m 257,0,-1
 1437 600 l 257,1,-1
 1437 808 l 257,2,-1
 611 808 l 257,3,-1
 611 600 l 257,0,-1
EndSplineSet
EndChar

StartChar: eng
Encoding: 331 331 192
GlifName: eng
Width: 2048
VWidth: 0
GlyphClass: 2
Flags: W
AnchorPoint: "top" 1035 1181 basechar 0
AnchorPoint: "base" 1077 -469 basechar 0
LayerCount: 2
Fore
SplineSet
1480 -211 m 257,0,-1
 1480 -408 l 257,1,-1
 1867 -408 l 257,2,-1
 1867 -211 l 257,3,-1
 1480 -211 l 257,0,-1
244 990 m 257,4,-1
 244 0 l 257,5,-1
 445 0 l 257,6,-1
 445 990 l 257,7,-1
 244 990 l 257,4,-1
1667 976 m 257,8,-1
 1667 -408 l 257,9,-1
 1868 -408 l 257,10,-1
 1868 976 l 257,11,-1
 1667 976 l 257,8,-1
65 1023 m 257,12,-1
 65 826 l 257,13,-1
 1867 826 l 257,14,-1
 1867 1023 l 257,15,-1
 65 1023 l 257,12,-1
EndSplineSet
EndChar

StartChar: equal
Encoding: 61 61 194
GlifName: equal
Width: 2048
VWidth: 0
GlyphClass: 2
Flags: W
LayerCount: 2
Fore
SplineSet
616 914 m 257,0,-1
 616 724 l 257,1,-1
 1432 724 l 257,2,-1
 1432 914 l 257,3,-1
 616 914 l 257,0,-1
616 540 m 257,4,-1
 616 350 l 257,5,-1
 1432 350 l 257,6,-1
 1432 540 l 257,7,-1
 616 540 l 257,4,-1
EndSplineSet
EndChar

StartChar: eth
Encoding: 240 240 195
GlifName: eth
Width: 2048
VWidth: 0
GlyphClass: 2
Flags: W
AnchorPoint: "top" 1348 1664 basechar 0
AnchorPoint: "base" 1084 -112 basechar 0
LayerCount: 2
Fore
SplineSet
1265 1548 m 257,0,-1
 1716 0 l 257,1,-1
 1917 0 l 257,2,-1
 1466 1548 l 257,3,-1
 1265 1548 l 257,0,-1
228 1023 m 257,4,-1
 228 822 l 257,5,-1
 1593 822 l 257,6,-1
 1593 1023 l 257,7,-1
 228 1023 l 257,4,-1
132 1023 m 257,8,-1
 132 0 l 257,9,-1
 333 0 l 257,10,-1
 333 1023 l 257,11,-1
 132 1023 l 257,8,-1
228 195 m 257,12,-1
 228 0 l 257,13,-1
 1869 0 l 257,14,-1
 1869 195 l 257,15,-1
 228 195 l 257,12,-1
1185 1416 m 257,16,-1
 1185 1229 l 257,17,-1
 1717 1229 l 257,18,-1
 1717 1416 l 257,19,-1
 1185 1416 l 257,16,-1
EndSplineSet
EndChar

StartChar: exclam
Encoding: 33 33 196
GlifName: exclam
Width: 2048
VWidth: 0
GlyphClass: 2
Flags: W
LayerCount: 2
Fore
SplineSet
952 126 m 257,0,-1
 1096 126 l 257,1,-1
 1096 374 l 257,2,-1
 952 374 l 257,3,-1
 952 126 l 257,0,-1
962 611 m 257,4,-1
 1090 611 l 257,5,-1
 1090 1629 l 257,6,-1
 962 1629 l 257,7,-1
 962 611 l 257,4,-1
EndSplineSet
EndChar

StartChar: exclamdown
Encoding: 161 161 197
GlifName: exclamdown
Width: 2048
VWidth: 0
GlyphClass: 2
Flags: W
LayerCount: 2
Fore
SplineSet
1096 1520 m 257,0,-1
 952 1520 l 257,1,-1
 952 1272 l 257,2,-1
 1096 1272 l 257,3,-1
 1096 1520 l 257,0,-1
1086 1035 m 257,4,-1
 958 1035 l 257,5,-1
 958 17 l 257,6,-1
 1086 17 l 257,7,-1
 1086 1035 l 257,4,-1
EndSplineSet
EndChar

StartChar: f
Encoding: 102 102 198
GlifName: f
Width: 2048
VWidth: 0
GlyphClass: 2
Flags: W
AnchorPoint: "top" 1556 1637 basechar 0
AnchorPoint: "base" 971 -130 basechar 0
LayerCount: 2
Fore
SplineSet
847 1551 m 257,0,-1
 840 -6 l 257,1,-1
 1022 -6 l 257,2,-1
 1029 1551 l 257,3,-1
 847 1551 l 257,0,-1
905 1551 m 257,4,-1
 905 1359 l 257,5,-1
 1983 1359 l 257,6,-1
 1983 1551 l 257,7,-1
 905 1551 l 257,4,-1
72 959 m 257,8,-1
 72 756 l 257,9,-1
 1880 756 l 257,10,-1
 1880 959 l 257,11,-1
 72 959 l 257,8,-1
EndSplineSet
EndChar

StartChar: five
Encoding: 53 53 199
GlifName: five
Width: 2048
VWidth: 0
GlyphClass: 2
Flags: W
LayerCount: 2
Fore
SplineSet
1796 759 m 257,0,-1
 1796 198 l 257,1,-1
 59 198 l 257,2,-1
 59 0 l 257,3,-1
 2001 0 l 257,4,-1
 2001 959 l 257,5,-1
 260 959 l 257,6,-1
 260 1352 l 257,7,-1
 2011 1352 l 257,8,-1
 2011 1548 l 257,9,-1
 60 1548 l 257,10,-1
 60 759 l 257,11,-1
 1796 759 l 257,0,-1
EndSplineSet
EndChar

StartChar: four
Encoding: 52 52 200
GlifName: four
Width: 2048
VWidth: 0
GlyphClass: 2
Flags: W
LayerCount: 2
Fore
SplineSet
91 761 m 257,0,-1
 1757 761 l 257,1,-1
 1757 7 l 257,2,-1
 1953 7 l 257,3,-1
 1953 1548 l 257,4,-1
 1754 1548 l 257,5,-1
 1754 961 l 257,6,-1
 291 961 l 257,7,-1
 291 1548 l 257,8,-1
 91 1548 l 257,9,-1
 91 761 l 257,0,-1
EndSplineSet
EndChar

StartChar: g
Encoding: 103 103 201
GlifName: g
Width: 2048
VWidth: 0
GlyphClass: 2
Flags: W
AnchorPoint: "top" 1022 1186 basechar 0
AnchorPoint: "base" 1014 -450 basechar 0
LayerCount: 2
Fore
SplineSet
238 1023 m 257,0,-1
 238 0 l 257,1,-1
 430 0 l 257,2,-1
 430 1023 l 257,3,-1
 238 1023 l 257,0,-1
278 1023 m 257,4,-1
 278 823 l 257,5,-1
 1794 823 l 257,6,-1
 1794 1023 l 257,7,-1
 278 1023 l 257,4,-1
1622 1023 m 257,8,-1
 1622 -411 l 257,9,-1
 1816 -411 l 257,10,-1
 1816 1023 l 257,11,-1
 1622 1023 l 257,8,-1
301 198 m 257,12,-1
 301 0 l 257,13,-1
 1758 0 l 257,14,-1
 1758 198 l 257,15,-1
 301 198 l 257,12,-1
232 -214 m 257,16,-1
 232 -413 l 257,17,-1
 1767 -413 l 257,18,-1
 1767 -214 l 257,19,-1
 232 -214 l 257,16,-1
EndSplineSet
EndChar

StartChar: germandbls
Encoding: 223 223 205
GlifName: germandbls
Width: 2048
VWidth: 0
GlyphClass: 2
Flags: W
LayerCount: 2
Fore
SplineSet
18 1221 m 257,0,-1
 18 1023 l 257,1,-1
 269 1023 l 257,2,-1
 269 1221 l 257,3,-1
 18 1221 l 257,0,-1
204 1548 m 257,4,-1
 204 0 l 257,5,-1
 410 0 l 257,6,-1
 410 1548 l 257,7,-1
 204 1548 l 257,4,-1
410 1548 m 257,8,-1
 410 1328 l 257,9,-1
 1829 1328 l 257,10,-1
 1829 1548 l 257,11,-1
 410 1548 l 257,8,-1
1714 1548 m 257,12,-1
 1714 1023 l 257,13,-1
 1913 1023 l 257,14,-1
 1913 1548 l 257,15,-1
 1714 1548 l 257,12,-1
1714 1062 m 257,16,-1
 490 1062 l 257,17,-1
 490 826 l 257,18,-1
 1714 826 l 257,19,-1
 1714 1062 l 257,16,-1
1714 848 m 257,20,-1
 1714 175 l 257,21,-1
 1914 175 l 257,22,-1
 1914 848 l 257,23,-1
 1714 848 l 257,20,-1
547 251 m 257,24,-1
 547 40 l 257,25,-1
 1914 40 l 257,26,-1
 1914 251 l 257,27,-1
 547 251 l 257,24,-1
EndSplineSet
EndChar

StartChar: grave
Encoding: 96 96 206
GlifName: grave
Width: 2048
VWidth: 0
GlyphClass: 2
Flags: W
LayerCount: 2
Fore
SplineSet
877 1358 m 257,0,-1
 1022 1057 l 257,1,-1
 1171 1129 l 257,2,-1
 1025 1430 l 257,3,-1
 877 1358 l 257,0,-1
EndSplineSet
EndChar

StartChar: gravecomb
Encoding: 768 768 207
GlifName: gravecomb
Width: 0
VWidth: 0
GlyphClass: 4
Flags: W
AnchorPoint: "top" 66 650 mark 0
LayerCount: 2
Fore
SplineSet
-106 907 m 257,0,-1
 14 671 l 257,1,-1
 106 717 l 257,2,-1
 -14 954 l 257,3,-1
 -106 907 l 257,0,-1
EndSplineSet
EndChar

StartChar: greater
Encoding: 62 62 208
GlifName: greater
Width: 2048
VWidth: 0
GlyphClass: 2
Flags: W
LayerCount: 2
Fore
SplineSet
1436 777 m 257,0,-1
 614 1013 l 257,1,-1
 614 807 l 257,2,-1
 1437 568 l 257,3,-1
 1436 777 l 257,0,-1
1436 777 m 257,4,-1
 616 319 l 257,5,-1
 616 122 l 257,6,-1
 1437 568 l 257,7,-1
 1436 777 l 257,4,-1
EndSplineSet
EndChar

StartChar: guillemotleft
Encoding: 171 171 209
GlifName: guillemotleft
Width: 2048
VWidth: 0
GlyphClass: 2
Flags: W
LayerCount: 2
Fore
SplineSet
632 609 m 257,0,-1
 632 454 l 257,1,-1
 1001 631 l 257,2,-1
 1001 784 l 257,3,-1
 632 609 l 257,0,-1
632 609 m 257,4,-1
 632 454 l 257,5,-1
 1000 122 l 257,6,-1
 1000 268 l 257,7,-1
 632 609 l 257,4,-1
1047 609 m 257,8,-1
 1047 454 l 257,9,-1
 1416 631 l 257,10,-1
 1416 784 l 257,11,-1
 1047 609 l 257,8,-1
1047 609 m 257,12,-1
 1047 454 l 257,13,-1
 1415 122 l 257,14,-1
 1415 268 l 257,15,-1
 1047 609 l 257,12,-1
EndSplineSet
EndChar

StartChar: guillemotright
Encoding: 187 187 210
GlifName: guillemotright
Width: 2048
VWidth: 0
GlyphClass: 2
Flags: W
LayerCount: 2
Fore
SplineSet
1416 609 m 257,0,-1
 1047 784 l 257,1,-1
 1047 631 l 257,2,-1
 1416 454 l 257,3,-1
 1416 609 l 257,0,-1
1416 609 m 257,4,-1
 1048 268 l 257,5,-1
 1048 122 l 257,6,-1
 1416 454 l 257,7,-1
 1416 609 l 257,4,-1
1001 609 m 257,8,-1
 632 784 l 257,9,-1
 632 631 l 257,10,-1
 1001 454 l 257,11,-1
 1001 609 l 257,8,-1
1001 609 m 257,12,-1
 633 268 l 257,13,-1
 633 122 l 257,14,-1
 1001 454 l 257,15,-1
 1001 609 l 257,12,-1
EndSplineSet
EndChar

StartChar: guilsinglleft
Encoding: 8249 8249 211
GlifName: guilsinglleft
Width: 2048
VWidth: 0
GlyphClass: 2
Flags: W
LayerCount: 2
Fore
SplineSet
614 777 m 257,0,-1
 614 569 l 257,1,-1
 1432 807 l 257,2,-1
 1432 1013 l 257,3,-1
 614 777 l 257,0,-1
614 777 m 257,4,-1
 614 569 l 257,5,-1
 1430 122 l 257,6,-1
 1430 319 l 257,7,-1
 614 777 l 257,4,-1
EndSplineSet
EndChar

StartChar: guilsinglright
Encoding: 8250 8250 212
GlifName: guilsinglright
Width: 2048
VWidth: 0
GlyphClass: 2
Flags: W
LayerCount: 2
Fore
SplineSet
1436 777 m 257,0,-1
 614 1013 l 257,1,-1
 614 807 l 257,2,-1
 1437 568 l 257,3,-1
 1436 777 l 257,0,-1
1436 777 m 257,4,-1
 616 319 l 257,5,-1
 616 122 l 257,6,-1
 1437 568 l 257,7,-1
 1436 777 l 257,4,-1
EndSplineSet
EndChar

StartChar: h
Encoding: 104 104 213
GlifName: h
Width: 2048
VWidth: 0
GlyphClass: 2
Flags: W
AnchorPoint: "top" 248 1646 basechar 0
AnchorPoint: "base" 1014 -49 basechar 0
LayerCount: 2
Fore
SplineSet
186 1537 m 257,0,-1
 186 6 l 257,1,-1
 386 6 l 257,2,-1
 386 1537 l 257,3,-1
 186 1537 l 257,0,-1
323 1023 m 257,4,-1
 323 826 l 257,5,-1
 1854 826 l 257,6,-1
 1854 1023 l 257,7,-1
 323 1023 l 257,4,-1
1663 1023 m 257,8,-1
 1663 0 l 257,9,-1
 1862 0 l 257,10,-1
 1862 1023 l 257,11,-1
 1663 1023 l 257,8,-1
EndSplineSet
EndChar

StartChar: hbar
Encoding: 295 295 214
GlifName: hbar
Width: 2048
VWidth: 0
GlyphClass: 2
Flags: W
LayerCount: 2
Fore
SplineSet
174 1537 m 257,0,-1
 174 6 l 257,1,-1
 374 6 l 257,2,-1
 374 1537 l 257,3,-1
 174 1537 l 257,0,-1
311 1023 m 257,4,-1
 311 826 l 257,5,-1
 1866 826 l 257,6,-1
 1866 1023 l 257,7,-1
 311 1023 l 257,4,-1
1675 1023 m 257,8,-1
 1675 0 l 257,9,-1
 1874 0 l 257,10,-1
 1874 1023 l 257,11,-1
 1675 1023 l 257,8,-1
38 1429 m 257,12,-1
 38 1221 l 257,13,-1
 494 1221 l 257,14,-1
 494 1429 l 257,15,-1
 38 1429 l 257,12,-1
EndSplineSet
EndChar

StartChar: hookabovecomb
Encoding: 777 777 216
GlifName: hookabovecomb
Width: 0
VWidth: 0
GlyphClass: 4
Flags: W
HStem: 1190 584
VStem: -230 460
AnchorPoint: "top" -4 781 mark 0
LayerCount: 2
Fore
SplineSet
-95 1157 m 257,0,-1
 -95 1052 l 257,1,-1
 115 1052 l 257,2,-1
 115 1157 l 257,3,-1
 -95 1157 l 257,0,-1
21 1157 m 257,4,-1
 21 953 l 257,5,-1
 117 953 l 257,6,-1
 117 1157 l 257,7,-1
 21 1157 l 257,4,-1
-55 965 m 257,8,-1
 -55 867 l 257,9,-1
 117 867 l 257,10,-1
 117 965 l 257,11,-1
 -55 965 l 257,8,-1
-55 965 m 257,12,-1
 -55 808 l 257,13,-1
 29 808 l 257,14,-1
 29 965 l 257,15,-1
 -55 965 l 257,12,-1
EndSplineSet
PickledDataWithLists: "(dp0
Vcom.fontlab.hintData
p1
(dp2
Vhhints
p3
(lp4
(dp5
Vposition
p6
I1190
sVwidth
p7
I584
sasVvhints
p8
(lp9
(dp10
g6
I-230
sg7
I460
sass."
EndChar

StartChar: hungarumlaut
Encoding: 733 733 217
GlifName: hungarumlaut
Width: 2048
VWidth: 0
GlyphClass: 2
Flags: W
HStem: 1145 248<752 896 752 896 1152 1296>
LayerCount: 2
Fore
SplineSet
752 1145 m 257,0,-1
 896 1145 l 257,1,-1
 896 1393 l 257,2,-1
 752 1393 l 257,3,-1
 752 1145 l 257,0,-1
1152 1145 m 257,4,-1
 1296 1145 l 257,5,-1
 1296 1393 l 257,6,-1
 1152 1393 l 257,7,-1
 1152 1145 l 257,4,-1
EndSplineSet
PickledDataWithLists: "(dp0
Vcom.fontlab.hintData
p1
(dp2
Vhhints
p3
(lp4
(dp5
Vposition
p6
I1145
sVwidth
p7
I248
sass."
EndChar

StartChar: hyphen
Encoding: 45 45 218
GlifName: hyphen
Width: 2048
VWidth: 0
GlyphClass: 2
Flags: W
LayerCount: 2
Fore
SplineSet
611 808 m 257,0,-1
 611 600 l 257,1,-1
 1437 600 l 257,2,-1
 1437 808 l 257,3,-1
 611 808 l 257,0,-1
EndSplineSet
EndChar

StartChar: i
Encoding: 105 105 219
GlifName: i
Width: 2048
VWidth: 0
GlyphClass: 2
Flags: W
AnchorPoint: "top" 930 1454 basechar 0
AnchorPoint: "base" 1040 -64 basechar 0
LayerCount: 2
Fore
SplineSet
923 1018 m 257,0,-1
 923 139 l 257,1,-1
 1125 139 l 257,2,-1
 1125 1018 l 257,3,-1
 923 1018 l 257,0,-1
153 204 m 257,4,-1
 153 6 l 257,5,-1
 1895 6 l 257,6,-1
 1895 204 l 257,7,-1
 153 204 l 257,4,-1
906 1333 m 257,8,-1
 906 1133 l 257,9,-1
 1113 1133 l 257,10,-1
 1113 1333 l 257,11,-1
 906 1333 l 257,8,-1
497 1018 m 257,12,-1
 497 816 l 257,13,-1
 1117 816 l 257,14,-1
 1117 1018 l 257,15,-1
 497 1018 l 257,12,-1
EndSplineSet
EndChar

StartChar: j
Encoding: 106 106 229
GlifName: j
Width: 2048
VWidth: 0
GlyphClass: 2
Flags: W
AnchorPoint: "top" 1749 1556 basechar 0
AnchorPoint: "base" 1004 -497 basechar 0
LayerCount: 2
Fore
SplineSet
1640 1023 m 257,0,-1
 1640 -411 l 257,1,-1
 1838 -411 l 257,2,-1
 1838 1023 l 257,3,-1
 1640 1023 l 257,0,-1
210 -209 m 257,4,-1
 210 -406 l 257,5,-1
 1740 -406 l 257,6,-1
 1740 -209 l 257,7,-1
 210 -209 l 257,4,-1
210 -6 m 257,8,-1
 210 -351 l 257,9,-1
 410 -351 l 257,10,-1
 410 -6 l 257,11,-1
 210 -6 l 257,8,-1
1636 1483 m 257,12,-1
 1636 1281 l 257,13,-1
 1860 1281 l 257,14,-1
 1860 1483 l 257,15,-1
 1636 1483 l 257,12,-1
EndSplineSet
EndChar

StartChar: k
Encoding: 107 107 231
GlifName: k
Width: 2048
VWidth: 0
GlyphClass: 2
Flags: W
AnchorPoint: "base" 1017 -83 basechar 0
AnchorPoint: "top" 220 1638 basechar 0
LayerCount: 2
Fore
SplineSet
103 1537 m 257,0,-1
 103 5 l 257,1,-1
 303 5 l 257,2,-1
 303 1537 l 257,3,-1
 103 1537 l 257,0,-1
152 516 m 257,4,-1
 201 298 l 257,5,-1
 1888 1023 l 257,6,-1
 1671 1023 l 257,7,-1
 152 516 l 257,4,-1
467 596 m 257,8,-1
 257 483 l 257,9,-1
 1707 0 l 257,10,-1
 1945 0 l 257,11,-1
 467 596 l 257,8,-1
EndSplineSet
EndChar

StartChar: kgreenlandic
Encoding: 312 312 232
GlifName: kgreenlandic
Width: 2048
VWidth: 0
GlyphClass: 2
Flags: W
AnchorPoint: "base" 1037 -145 basechar 0
AnchorPoint: "top" 140 1110 basechar 0
LayerCount: 2
Fore
SplineSet
42 1022 m 257,0,-1
 42 5 l 257,1,-1
 242 5 l 257,2,-1
 242 1022 l 257,3,-1
 42 1022 l 257,0,-1
91 516 m 257,4,-1
 140 298 l 257,5,-1
 2036 1023 l 257,6,-1
 1819 1023 l 257,7,-1
 91 516 l 257,4,-1
424 631 m 257,8,-1
 196 483 l 257,9,-1
 1789 0 l 257,10,-1
 2027 0 l 257,11,-1
 424 631 l 257,8,-1
EndSplineSet
EndChar

StartChar: l
Encoding: 108 108 233
GlifName: l
Width: 2048
VWidth: 0
GlyphClass: 2
Flags: W
AnchorPoint: "base" 1027 -85 basechar 0
AnchorPoint: "top" 1009 1637 basechar 0
LayerCount: 2
Fore
SplineSet
207 209 m 257,0,-1
 207 9 l 257,1,-1
 1841 9 l 257,2,-1
 1841 209 l 257,3,-1
 207 209 l 257,0,-1
924 1548 m 257,4,-1
 924 86 l 257,5,-1
 1124 86 l 257,6,-1
 1124 1548 l 257,7,-1
 924 1548 l 257,4,-1
268 1548 m 257,8,-1
 268 1349 l 257,9,-1
 1003 1349 l 257,10,-1
 1003 1548 l 257,11,-1
 268 1548 l 257,8,-1
EndSplineSet
EndChar

StartChar: lcaron
Encoding: 318 318 235
GlifName: lcaron
Width: 2048
VWidth: 0
GlyphClass: 2
Flags: W
LayerCount: 2
Fore
SplineSet
133 209 m 257,0,-1
 133 9 l 257,1,-1
 1791 9 l 257,2,-1
 1791 209 l 257,3,-1
 133 209 l 257,0,-1
862 1548 m 257,4,-1
 862 86 l 257,5,-1
 1062 86 l 257,6,-1
 1062 1548 l 257,7,-1
 862 1548 l 257,4,-1
194 1548 m 257,8,-1
 194 1349 l 257,9,-1
 941 1349 l 257,10,-1
 941 1548 l 257,11,-1
 194 1548 l 257,8,-1
1309 1496 m 257,12,-1
 1309 1264 l 257,13,-1
 1439 1264 l 257,14,-1
 1439 1496 l 257,15,-1
 1309 1496 l 257,12,-1
EndSplineSet
EndChar

StartChar: less
Encoding: 60 60 237
GlifName: less
Width: 2048
VWidth: 0
GlyphClass: 2
Flags: W
LayerCount: 2
Fore
SplineSet
614 777 m 257,0,-1
 614 569 l 257,1,-1
 1432 807 l 257,2,-1
 1432 1013 l 257,3,-1
 614 777 l 257,0,-1
614 777 m 257,4,-1
 614 569 l 257,5,-1
 1430 122 l 257,6,-1
 1430 319 l 257,7,-1
 614 777 l 257,4,-1
EndSplineSet
EndChar

StartChar: logicalnot
Encoding: 172 172 238
GlifName: logicalnot
Width: 2048
VWidth: 0
GlyphClass: 2
Flags: W
LayerCount: 2
Fore
SplineSet
1179 935 m 257,0,-1
 1179 640 l 257,1,-1
 1289 640 l 257,2,-1
 1289 935 l 257,3,-1
 1179 935 l 257,0,-1
749 935 m 257,4,-1
 749 835 l 257,5,-1
 1299 835 l 257,6,-1
 1299 935 l 257,7,-1
 749 935 l 257,4,-1
EndSplineSet
EndChar

StartChar: lslash
Encoding: 322 322 239
GlifName: lslash
Width: 2048
VWidth: 0
GlyphClass: 2
Flags: W
LayerCount: 2
Fore
SplineSet
195 209 m 257,0,-1
 195 9 l 257,1,-1
 1853 9 l 257,2,-1
 1853 209 l 257,3,-1
 195 209 l 257,0,-1
924 1548 m 257,4,-1
 924 86 l 257,5,-1
 1124 86 l 257,6,-1
 1124 1548 l 257,7,-1
 924 1548 l 257,4,-1
256 1548 m 257,8,-1
 256 1349 l 257,9,-1
 1003 1349 l 257,10,-1
 1003 1548 l 257,11,-1
 256 1548 l 257,8,-1
1839 1213 m 257,12,-1
 112 830 l 257,13,-1
 214 656 l 257,14,-1
 1941 1039 l 257,15,-1
 1839 1213 l 257,12,-1
EndSplineSet
EndChar

StartChar: m
Encoding: 109 109 240
GlifName: m
Width: 2048
VWidth: 0
GlyphClass: 2
Flags: W
AnchorPoint: "base" 1021 -112 basechar 0
AnchorPoint: "top" 1031 1110 basechar 0
LayerCount: 2
Fore
SplineSet
148 993 m 257,0,-1
 148 0 l 257,1,-1
 348 0 l 257,2,-1
 348 993 l 257,3,-1
 148 993 l 257,0,-1
962 972 m 257,4,-1
 962 0 l 257,5,-1
 1162 0 l 257,6,-1
 1162 972 l 257,7,-1
 962 972 l 257,4,-1
1778 976 m 257,8,-1
 1778 0 l 257,9,-1
 1978 0 l 257,10,-1
 1978 976 l 257,11,-1
 1778 976 l 257,8,-1
70 1023 m 257,12,-1
 70 826 l 257,13,-1
 1976 826 l 257,14,-1
 1976 1023 l 257,15,-1
 70 1023 l 257,12,-1
EndSplineSet
EndChar

StartChar: macron
Encoding: 175 175 241
GlifName: macron
Width: 2048
VWidth: 0
GlyphClass: 2
Flags: W
HStem: 980 82<744 1304>
VStem: 744 560<980 1062 980 1062>
LayerCount: 2
Fore
SplineSet
744 1062 m 257,0,-1
 744 980 l 257,1,-1
 1304 980 l 257,2,-1
 1304 1062 l 257,3,-1
 744 1062 l 257,0,-1
EndSplineSet
PickledDataWithLists: "(dp0
Vcom.fontlab.hintData
p1
(dp2
Vhhints
p3
(lp4
(dp5
Vposition
p6
I980
sVwidth
p7
I82
sasVvhints
p8
(lp9
(dp10
g6
I744
sg7
I560
sass."
EndChar

StartChar: mu
Encoding: 181 181 243
GlifName: mu
Width: 2048
VWidth: 0
GlyphClass: 2
Flags: W
LayerCount: 2
Fore
SplineSet
1736 935 m 257,0,-1
 1736 0 l 257,1,-1
 1846 0 l 257,2,-1
 1846 935 l 257,3,-1
 1736 935 l 257,0,-1
302 120 m 257,4,-1
 302 0 l 257,5,-1
 1816 0 l 257,6,-1
 1816 120 l 257,7,-1
 302 120 l 257,4,-1
202 935 m 257,8,-1
 202 -430 l 257,9,-1
 296 -430 l 257,10,-1
 296 935 l 257,11,-1
 202 935 l 257,8,-1
EndSplineSet
EndChar

StartChar: multiply
Encoding: 215 215 244
GlifName: multiply
Width: 2048
VWidth: 0
GlyphClass: 2
Flags: W
LayerCount: 2
Fore
SplineSet
91 302 m 257,0,-1
 414 302 l 257,1,-1
 1951 1323 l 257,2,-1
 1640 1323 l 257,3,-1
 91 302 l 257,0,-1
93 1325 m 257,4,-1
 1647 298 l 257,5,-1
 1958 298 l 257,6,-1
 417 1325 l 257,7,-1
 93 1325 l 257,4,-1
EndSplineSet
EndChar

StartChar: n
Encoding: 110 110 245
GlifName: n
Width: 2048
VWidth: 0
GlyphClass: 2
Flags: W
AnchorPoint: "base" 1046 -74 basechar 0
AnchorPoint: "top" 1008 1148 basechar 0
LayerCount: 2
Fore
SplineSet
314 990 m 257,0,-1
 314 0 l 257,1,-1
 514 0 l 257,2,-1
 514 990 l 257,3,-1
 314 990 l 257,0,-1
1712 976 m 257,4,-1
 1712 0 l 257,5,-1
 1914 0 l 257,6,-1
 1914 976 l 257,7,-1
 1712 976 l 257,4,-1
134 1023 m 257,8,-1
 134 826 l 257,9,-1
 1912 826 l 257,10,-1
 1912 1023 l 257,11,-1
 134 1023 l 257,8,-1
EndSplineSet
EndChar

StartChar: nine
Encoding: 57 57 248
GlifName: nine
Width: 2048
VWidth: 0
GlyphClass: 2
Flags: W
LayerCount: 2
Fore
SplineSet
1805 759 m 257,0,-1
 1805 200 l 257,1,-1
 79 200 l 257,2,-1
 79 0 l 257,3,-1
 2001 0 l 257,4,-1
 2001 1554 l 257,5,-1
 57 1554 l 257,6,-1
 57 1537 l 257,7,-1
 57 759 l 257,8,-1
 1805 759 l 257,0,-1
1802 959 m 257,9,-1
 257 959 l 257,10,-1
 257 1354 l 257,11,-1
 1802 1354 l 257,12,-1
 1802 959 l 257,9,-1
EndSplineSet
EndChar

StartChar: numbersign
Encoding: 35 35 250
GlifName: numbersign
Width: 2048
VWidth: 0
GlyphClass: 2
Flags: W
LayerCount: 2
Fore
SplineSet
740 1347 m 257,0,-1
 740 313 l 257,1,-1
 880 313 l 257,2,-1
 880 1347 l 257,3,-1
 740 1347 l 257,0,-1
1152 1350 m 257,4,-1
 1152 279 l 257,5,-1
 1318 279 l 257,6,-1
 1318 1350 l 257,7,-1
 1152 1350 l 257,4,-1
612 1157 m 257,8,-1
 612 1010 l 257,9,-1
 1430 1010 l 257,10,-1
 1430 1157 l 257,11,-1
 612 1157 l 257,8,-1
612 767 m 257,12,-1
 612 592 l 257,13,-1
 1438 592 l 257,14,-1
 1438 767 l 257,15,-1
 612 767 l 257,12,-1
EndSplineSet
EndChar

StartChar: o
Encoding: 111 111 251
GlifName: o
Width: 2048
VWidth: 0
GlyphClass: 2
Flags: W
AnchorPoint: "top" 1013 1137 basechar 0
AnchorPoint: "base" 1025 -90 basechar 0
LayerCount: 2
Fore
SplineSet
116 1023 m 257,0,-1
 116 0 l 257,1,-1
 316 0 l 257,2,-1
 316 1023 l 257,3,-1
 116 1023 l 257,0,-1
1732 1023 m 257,4,-1
 1732 0 l 257,5,-1
 1934 0 l 257,6,-1
 1934 1023 l 257,7,-1
 1732 1023 l 257,4,-1
240 1023 m 257,8,-1
 240 822 l 257,9,-1
 1826 822 l 257,10,-1
 1826 1023 l 257,11,-1
 240 1023 l 257,8,-1
244 200 m 257,12,-1
 244 0 l 257,13,-1
 1816 0 l 257,14,-1
 1816 200 l 257,15,-1
 244 200 l 257,12,-1
EndSplineSet
EndChar

StartChar: oe
Encoding: 339 339 256
GlifName: oe
Width: 2048
VWidth: 0
GlyphClass: 2
Flags: W
AnchorPoint: "top" 1008 1107 basechar 0
AnchorPoint: "base" 1032 -105 basechar 0
LayerCount: 2
Fore
SplineSet
1109 645 m 257,0,-1
 1109 446 l 257,1,-1
 1848 446 l 257,2,-1
 1848 645 l 257,3,-1
 1109 645 l 257,0,-1
1823 1023 m 257,4,-1
 1823 445 l 257,5,-1
 2023 445 l 257,6,-1
 2023 1023 l 257,7,-1
 1823 1023 l 257,4,-1
103 1023 m 257,8,-1
 103 0 l 257,9,-1
 303 0 l 257,10,-1
 303 1023 l 257,11,-1
 103 1023 l 257,8,-1
963 1023 m 257,12,-1
 963 0 l 257,13,-1
 1163 0 l 257,14,-1
 1163 1023 l 257,15,-1
 963 1023 l 257,12,-1
158 1023 m 257,16,-1
 158 823 l 257,17,-1
 1883 823 l 257,18,-1
 1883 1023 l 257,19,-1
 158 1023 l 257,16,-1
149 200 m 257,20,-1
 149 0 l 257,21,-1
 2023 0 l 257,22,-1
 2023 200 l 257,23,-1
 149 200 l 257,20,-1
EndSplineSet
EndChar

StartChar: ogonek
Encoding: 731 731 257
GlifName: ogonek
Width: 2048
VWidth: 0
GlyphClass: 2
Flags: W
HStem: -392 406
VStem: 753 542<-392.467 -274.467 -392.467 -274.467 -392.467 -274.467 -107.467 13.5332 -392.467 13.5332 -392.467 -274.467 -392.467 -107.467 -107.467 13.5332>
LayerCount: 2
Fore
SplineSet
753 -274 m 257,0,-1
 753 -392 l 257,1,-1
 1295 -392 l 257,2,-1
 1295 -274 l 257,3,-1
 753 -274 l 257,0,-1
753 14 m 257,4,-1
 753 -392 l 257,5,-1
 871 -392 l 257,6,-1
 871 14 l 257,7,-1
 753 14 l 257,4,-1
753 14 m 257,8,-1
 753 -107 l 257,9,-1
 1295 -107 l 257,10,-1
 1295 14 l 257,11,-1
 753 14 l 257,8,-1
EndSplineSet
PickledDataWithLists: "(dp0
Vcom.fontlab.hintData
p1
(dp2
Vhhints
p3
(lp4
(dp5
Vposition
p6
I-392
sVwidth
p7
I406
sasVvhints
p8
(lp9
(dp10
g6
I753
sg7
I542
sass."
EndChar

StartChar: one
Encoding: 49 49 262
GlifName: one
Width: 2048
VWidth: 0
GlyphClass: 2
Flags: W
LayerCount: 2
Fore
SplineSet
1022 0 m 257,0,-1
 1220 0 l 257,1,-1
 1220 1548 l 257,2,-1
 1022 1548 l 257,3,-1
 1022 0 l 257,0,-1
1026 1548 m 257,4,-1
 828 1252 l 257,5,-1
 978 1152 l 257,6,-1
 1176 1449 l 257,7,-1
 1026 1548 l 257,4,-1
EndSplineSet
EndChar

StartChar: onehalf
Encoding: 189 189 263
GlifName: onehalf
Width: 2048
VWidth: 0
GlyphClass: 2
Flags: W
LayerCount: 2
Fore
SplineSet
1292 1483 m 257,0,-1
 267 6 l 257,1,-1
 444 -30 l 257,2,-1
 1469 1447 l 257,3,-1
 1292 1483 l 257,0,-1
298 863 m 257,4,-1
 381 863 l 257,5,-1
 381 1548 l 257,6,-1
 298 1548 l 257,7,-1
 298 863 l 257,4,-1
300 1548 m 257,8,-1
 218 1419 l 257,9,-1
 280 1374 l 257,10,-1
 362 1506 l 257,11,-1
 300 1548 l 257,8,-1
1641 633 m 257,12,-1
 1912 633 l 257,13,-1
 1912 437 l 257,14,-1
 1643 437 l 257,15,-1
 1643 30 l 257,16,-1
 1994 30 l 257,17,-1
 1994 120 l 257,18,-1
 1733 120 l 257,19,-1
 1733 347 l 257,20,-1
 2001 347 l 257,21,-1
 2001 723 l 257,22,-1
 1641 723 l 257,23,-1
 1641 633 l 257,12,-1
EndSplineSet
EndChar

StartChar: onequarter
Encoding: 188 188 264
GlifName: onequarter
Width: 2048
VWidth: 0
GlyphClass: 2
Flags: W
LayerCount: 2
Fore
SplineSet
1276 1482 m 257,0,-1
 81 10 l 257,1,-1
 292 10 l 257,2,-1
 1487 1482 l 257,3,-1
 1276 1482 l 257,0,-1
540 1046 m 257,4,-1
 651 1046 l 257,5,-1
 651 1548 l 257,6,-1
 540 1548 l 257,7,-1
 540 1046 l 257,4,-1
550 1542 m 257,8,-1
 325 1428 l 257,9,-1
 366 1391 l 257,10,-1
 610 1542 l 257,11,-1
 550 1542 l 257,8,-1
1079 381 m 257,12,-1
 1706 381 l 257,13,-1
 1706 9 l 257,14,-1
 1825 9 l 257,15,-1
 1825 770 l 257,16,-1
 1702 770 l 257,17,-1
 1702 447 l 257,18,-1
 1200 447 l 257,19,-1
 1200 772 l 257,20,-1
 1079 772 l 257,21,-1
 1079 381 l 257,12,-1
EndSplineSet
EndChar

StartChar: ordfeminine
Encoding: 170 170 265
GlifName: ordfeminine
Width: 2048
VWidth: 0
GlyphClass: 2
Flags: W
LayerCount: 2
Fore
SplineSet
217 1319 m 257,0,-1
 217 1119 l 257,1,-1
 1823 1119 l 257,2,-1
 1823 1319 l 257,3,-1
 217 1319 l 257,0,-1
1710 1320 m 257,4,-1
 1710 296 l 257,5,-1
 1904 296 l 257,6,-1
 1904 1320 l 257,7,-1
 1710 1320 l 257,4,-1
221 894 m 257,8,-1
 221 695 l 257,9,-1
 1845 695 l 257,10,-1
 1845 894 l 257,11,-1
 221 894 l 257,8,-1
221 870 m 257,12,-1
 221 293 l 257,13,-1
 422 293 l 257,14,-1
 422 870 l 257,15,-1
 221 870 l 257,12,-1
219 496 m 257,16,-1
 219 296 l 257,17,-1
 1909 296 l 257,18,-1
 1909 496 l 257,19,-1
 219 496 l 257,16,-1
126 162 m 257,20,-1
 126 0 l 257,21,-1
 1922 0 l 257,22,-1
 1922 162 l 257,23,-1
 126 162 l 257,20,-1
EndSplineSet
EndChar

StartChar: ordmasculine
Encoding: 186 186 266
GlifName: ordmasculine
Width: 2048
VWidth: 0
GlyphClass: 2
Flags: W
LayerCount: 2
Fore
SplineSet
172 1023 m 257,0,-1
 172 0 l 257,1,-1
 372 0 l 257,2,-1
 372 1023 l 257,3,-1
 172 1023 l 257,0,-1
1787 1023 m 257,4,-1
 1787 0 l 257,5,-1
 1989 0 l 257,6,-1
 1989 1023 l 257,7,-1
 1787 1023 l 257,4,-1
295 1023 m 257,8,-1
 295 822 l 257,9,-1
 1881 822 l 257,10,-1
 1881 1023 l 257,11,-1
 295 1023 l 257,8,-1
299 200 m 257,12,-1
 299 0 l 257,13,-1
 1871 0 l 257,14,-1
 1871 200 l 257,15,-1
 299 200 l 257,12,-1
0 -84 m 257,16,-1
 0 -216 l 257,17,-1
 2048 -216 l 257,18,-1
 2048 -84 l 257,19,-1
 0 -84 l 257,16,-1
EndSplineSet
EndChar

StartChar: oslash
Encoding: 248 248 267
GlifName: oslash
Width: 2048
VWidth: 0
GlyphClass: 2
Flags: W
AnchorPoint: "top" 1021 1181 basechar 0
AnchorPoint: "base" 1015 -121 basechar 0
LayerCount: 2
Fore
SplineSet
1861 1164 m 257,0,-1
 9 -5 l 257,1,-1
 171 -103 l 257,2,-1
 2024 1066 l 257,3,-1
 1861 1164 l 257,0,-1
104 1023 m 257,4,-1
 104 0 l 257,5,-1
 304 0 l 257,6,-1
 304 1023 l 257,7,-1
 104 1023 l 257,4,-1
1743 1023 m 257,8,-1
 1743 0 l 257,9,-1
 1945 0 l 257,10,-1
 1945 1023 l 257,11,-1
 1743 1023 l 257,8,-1
227 1023 m 257,12,-1
 227 822 l 257,13,-1
 1837 822 l 257,14,-1
 1837 1023 l 257,15,-1
 227 1023 l 257,12,-1
231 200 m 257,16,-1
 231 0 l 257,17,-1
 1827 0 l 257,18,-1
 1827 200 l 257,19,-1
 231 200 l 257,16,-1
EndSplineSet
EndChar

StartChar: p
Encoding: 112 112 270
GlifName: p
Width: 2048
VWidth: 0
GlyphClass: 2
Flags: W
AnchorPoint: "base" 288 -492 basechar 0
AnchorPoint: "top" 268 1322 basechar 0
LayerCount: 2
Fore
SplineSet
202 1203 m 257,0,-1
 202 -406 l 257,1,-1
 402 -406 l 257,2,-1
 402 1203 l 257,3,-1
 202 1203 l 257,0,-1
300 1023 m 257,4,-1
 300 821 l 257,5,-1
 1838 821 l 257,6,-1
 1838 1023 l 257,7,-1
 300 1023 l 257,4,-1
304 202 m 257,8,-1
 304 0 l 257,9,-1
 1844 0 l 257,10,-1
 1844 202 l 257,11,-1
 304 202 l 257,8,-1
1642 876 m 257,12,-1
 1642 175 l 257,13,-1
 1840 175 l 257,14,-1
 1840 876 l 257,15,-1
 1642 876 l 257,12,-1
EndSplineSet
EndChar

StartChar: paragraph
Encoding: 182 182 271
GlifName: paragraph
Width: 2048
VWidth: 0
GlyphClass: 2
Flags: W
LayerCount: 2
Fore
SplineSet
602 1130 m 257,0,-1
 602 985 l 257,1,-1
 1166 985 l 257,2,-1
 1166 1130 l 257,3,-1
 602 1130 l 257,0,-1
602 1548 m 257,4,-1
 602 1000 l 257,5,-1
 762 1000 l 257,6,-1
 762 1548 l 257,7,-1
 602 1548 l 257,4,-1
602 1548 m 257,8,-1
 602 1435 l 257,9,-1
 1422 1435 l 257,10,-1
 1422 1548 l 257,11,-1
 602 1548 l 257,8,-1
1072 1548 m 257,12,-1
 1072 0 l 257,13,-1
 1216 0 l 257,14,-1
 1216 1548 l 257,15,-1
 1072 1548 l 257,12,-1
1342 1548 m 257,16,-1
 1342 0 l 257,17,-1
 1446 0 l 257,18,-1
 1446 1548 l 257,19,-1
 1342 1548 l 257,16,-1
EndSplineSet
EndChar

StartChar: parenleft
Encoding: 40 40 272
GlifName: parenleft
Width: 2048
VWidth: 0
GlyphClass: 2
Flags: W
LayerCount: 2
Fore
SplineSet
836 1023 m 257,0,-1
 836 179 l 257,1,-1
 1026 179 l 257,2,-1
 1026 1023 l 257,3,-1
 836 1023 l 257,0,-1
1154 1633 m 257,4,-1
 836 1028 l 257,5,-1
 1024 1028 l 257,6,-1
 1184 1640 l 257,7,-1
 1154 1633 l 257,4,-1
836 179 m 257,8,-1
 1180 -406 l 257,9,-1
 1212 -406 l 257,10,-1
 1026 179 l 257,11,-1
 836 179 l 257,8,-1
EndSplineSet
EndChar

StartChar: parenright
Encoding: 41 41 273
GlifName: parenright
Width: 2048
VWidth: 0
GlyphClass: 2
Flags: W
LayerCount: 2
Fore
SplineSet
1000 1023 m 257,0,-1
 1000 179 l 257,1,-1
 1190 179 l 257,2,-1
 1190 1023 l 257,3,-1
 1000 1023 l 257,0,-1
858 1629 m 257,4,-1
 1000 1023 l 257,5,-1
 1190 1023 l 257,6,-1
 896 1629 l 257,7,-1
 858 1629 l 257,4,-1
1000 179 m 257,8,-1
 858 -406 l 257,9,-1
 886 -406 l 257,10,-1
 1190 179 l 257,11,-1
 1000 179 l 257,8,-1
EndSplineSet
EndChar

StartChar: percent
Encoding: 37 37 274
GlifName: percent
Width: 2048
VWidth: 0
GlyphClass: 2
Flags: W
LayerCount: 2
Fore
SplineSet
590 522 m 257,0,-1
 634 377 l 257,1,-1
 1458 716 l 257,2,-1
 1414 860 l 257,3,-1
 590 522 l 257,0,-1
730 1148 m 257,4,-1
 730 822 l 257,5,-1
 808 822 l 257,6,-1
 808 1148 l 257,7,-1
 730 1148 l 257,4,-1
730 1152 m 257,8,-1
 730 1057 l 257,9,-1
 1078 1057 l 257,10,-1
 1078 1152 l 257,11,-1
 730 1152 l 257,8,-1
730 871 m 257,12,-1
 730 789 l 257,13,-1
 1074 789 l 257,14,-1
 1074 871 l 257,15,-1
 730 871 l 257,12,-1
986 1152 m 257,16,-1
 986 791 l 257,17,-1
 1078 791 l 257,18,-1
 1078 1152 l 257,19,-1
 986 1152 l 257,16,-1
1058 436 m 257,20,-1
 1058 110 l 257,21,-1
 1136 110 l 257,22,-1
 1136 436 l 257,23,-1
 1058 436 l 257,20,-1
1058 440 m 257,24,-1
 1058 345 l 257,25,-1
 1404 345 l 257,26,-1
 1404 440 l 257,27,-1
 1058 440 l 257,24,-1
1058 159 m 257,28,-1
 1058 77 l 257,29,-1
 1402 77 l 257,30,-1
 1402 159 l 257,31,-1
 1058 159 l 257,28,-1
1312 440 m 257,32,-1
 1312 79 l 257,33,-1
 1404 79 l 257,34,-1
 1404 440 l 257,35,-1
 1312 440 l 257,32,-1
EndSplineSet
EndChar

StartChar: period
Encoding: 46 46 275
GlifName: period
Width: 2048
VWidth: 0
GlyphClass: 2
Flags: W
LayerCount: 2
Fore
SplineSet
892 246 m 257,0,-1
 892 0 l 257,1,-1
 1156 0 l 257,2,-1
 1156 246 l 257,3,-1
 892 246 l 257,0,-1
EndSplineSet
EndChar

StartChar: periodcentered
Encoding: 183 183 276
GlifName: periodcentered
Width: 2048
VWidth: 0
GlyphClass: 2
Flags: W
LayerCount: 2
Fore
SplineSet
892 1146 m 257,0,-1
 892 899 l 257,1,-1
 1156 899 l 257,2,-1
 1156 1146 l 257,3,-1
 892 1146 l 257,0,-1
EndSplineSet
EndChar

StartChar: perthousand
Encoding: 8240 8240 277
GlifName: perthousand
Width: 2048
VWidth: 0
GlyphClass: 2
Flags: W
LayerCount: 2
Fore
SplineSet
1174 436 m 257,0,-1
 1174 110 l 257,1,-1
 1252 110 l 257,2,-1
 1252 436 l 257,3,-1
 1174 436 l 257,0,-1
1174 440 m 257,4,-1
 1174 345 l 257,5,-1
 1520 345 l 257,6,-1
 1520 440 l 257,7,-1
 1174 440 l 257,4,-1
1174 159 m 257,8,-1
 1174 77 l 257,9,-1
 1518 77 l 257,10,-1
 1518 159 l 257,11,-1
 1174 159 l 257,8,-1
1428 440 m 257,12,-1
 1428 79 l 257,13,-1
 1520 79 l 257,14,-1
 1520 440 l 257,15,-1
 1428 440 l 257,12,-1
528 522 m 257,16,-1
 570 377 l 257,17,-1
 1394 716 l 257,18,-1
 1350 860 l 257,19,-1
 528 522 l 257,16,-1
668 1148 m 257,20,-1
 668 822 l 257,21,-1
 746 822 l 257,22,-1
 746 1148 l 257,23,-1
 668 1148 l 257,20,-1
668 1152 m 257,24,-1
 668 1057 l 257,25,-1
 1014 1057 l 257,26,-1
 1014 1152 l 257,27,-1
 668 1152 l 257,24,-1
668 871 m 257,28,-1
 668 789 l 257,29,-1
 1012 789 l 257,30,-1
 1012 871 l 257,31,-1
 668 871 l 257,28,-1
922 1152 m 257,32,-1
 922 791 l 257,33,-1
 1014 791 l 257,34,-1
 1014 1152 l 257,35,-1
 922 1152 l 257,32,-1
772 436 m 257,36,-1
 772 110 l 257,37,-1
 850 110 l 257,38,-1
 850 436 l 257,39,-1
 772 436 l 257,36,-1
772 440 m 257,40,-1
 772 345 l 257,41,-1
 1120 345 l 257,42,-1
 1120 440 l 257,43,-1
 772 440 l 257,40,-1
772 159 m 257,44,-1
 772 77 l 257,45,-1
 1116 77 l 257,46,-1
 1116 159 l 257,47,-1
 772 159 l 257,44,-1
1028 440 m 257,48,-1
 1028 79 l 257,49,-1
 1120 79 l 257,50,-1
 1120 440 l 257,51,-1
 1028 440 l 257,48,-1
EndSplineSet
EndChar

StartChar: plus
Encoding: 43 43 278
GlifName: plus
Width: 2048
VWidth: 0
GlyphClass: 2
Flags: W
LayerCount: 2
Fore
SplineSet
896 1221 m 257,0,-1
 896 165 l 257,1,-1
 1121 165 l 257,2,-1
 1121 1221 l 257,3,-1
 896 1221 l 257,0,-1
573 821 m 257,4,-1
 573 613 l 257,5,-1
 1475 613 l 257,6,-1
 1475 821 l 257,7,-1
 573 821 l 257,4,-1
EndSplineSet
EndChar

StartChar: plusminus
Encoding: 177 177 279
GlifName: plusminus
Width: 2048
VWidth: 0
GlyphClass: 2
Flags: W
LayerCount: 2
Fore
SplineSet
611 108 m 257,0,-1
 611 -100 l 257,1,-1
 1437 -100 l 257,2,-1
 1437 108 l 257,3,-1
 611 108 l 257,0,-1
896 1221 m 257,4,-1
 896 165 l 257,5,-1
 1121 165 l 257,6,-1
 1121 1221 l 257,7,-1
 896 1221 l 257,4,-1
573 821 m 257,8,-1
 573 613 l 257,9,-1
 1475 613 l 257,10,-1
 1475 821 l 257,11,-1
 573 821 l 257,8,-1
EndSplineSet
EndChar

StartChar: q
Encoding: 113 113 280
GlifName: q
Width: 2048
VWidth: 0
GlyphClass: 2
Flags: W
AnchorPoint: "top" 1518 1279 basechar 0
AnchorPoint: "base" 1538 -517 basechar 0
LayerCount: 2
Fore
SplineSet
1424 1201 m 257,0,-1
 1424 -406 l 257,1,-1
 1622 -406 l 257,2,-1
 1622 1201 l 257,3,-1
 1424 1201 l 257,0,-1
150 1023 m 257,4,-1
 150 823 l 257,5,-1
 1600 823 l 257,6,-1
 1600 1023 l 257,7,-1
 150 1023 l 257,4,-1
152 203 m 257,8,-1
 152 0 l 257,9,-1
 1568 0 l 257,10,-1
 1568 203 l 257,11,-1
 152 203 l 257,8,-1
150 855 m 257,12,-1
 150 107 l 257,13,-1
 350 107 l 257,14,-1
 350 855 l 257,15,-1
 150 855 l 257,12,-1
1462 -268 m 257,16,-1
 1462 -406 l 257,17,-1
 1898 -406 l 257,18,-1
 1898 -268 l 257,19,-1
 1462 -268 l 257,16,-1
EndSplineSet
EndChar

StartChar: question
Encoding: 63 63 281
GlifName: question
Width: 2048
VWidth: 0
GlyphClass: 2
Flags: W
LayerCount: 2
Fore
SplineSet
880 247 m 257,0,-1
 880 0 l 257,1,-1
 1126 0 l 257,2,-1
 1126 247 l 257,3,-1
 880 247 l 257,0,-1
704 1519 m 257,4,-1
 704 1333 l 257,5,-1
 1340 1333 l 257,6,-1
 1340 1519 l 257,7,-1
 704 1519 l 257,4,-1
1150 1514 m 257,8,-1
 1150 966 l 257,9,-1
 1344 966 l 257,10,-1
 1344 1514 l 257,11,-1
 1150 1514 l 257,8,-1
880 1015 m 257,12,-1
 880 816 l 257,13,-1
 1344 816 l 257,14,-1
 1344 1015 l 257,15,-1
 880 1015 l 257,12,-1
880 1011 m 257,16,-1
 880 392 l 257,17,-1
 1128 392 l 257,18,-1
 1128 1011 l 257,19,-1
 880 1011 l 257,16,-1
EndSplineSet
EndChar

StartChar: questiondown
Encoding: 191 191 282
GlifName: questiondown
Width: 2048
VWidth: 0
GlyphClass: 2
Flags: W
LayerCount: 2
Fore
SplineSet
1168 1273 m 257,0,-1
 1168 1519 l 257,1,-1
 918 1519 l 257,2,-1
 918 1272 l 257,3,-1
 1168 1273 l 257,0,-1
1344 0 m 257,4,-1
 1344 186 l 257,5,-1
 708 186 l 257,6,-1
 708 0 l 257,7,-1
 1344 0 l 257,4,-1
898 5 m 257,8,-1
 898 553 l 257,9,-1
 704 553 l 257,10,-1
 704 5 l 257,11,-1
 898 5 l 257,8,-1
1168 504 m 257,12,-1
 1168 703 l 257,13,-1
 704 703 l 257,14,-1
 704 504 l 257,15,-1
 1168 504 l 257,12,-1
1168 508 m 257,16,-1
 1168 1127 l 257,17,-1
 920 1127 l 257,18,-1
 920 508 l 257,19,-1
 1168 508 l 257,16,-1
EndSplineSet
EndChar

StartChar: quotedbl
Encoding: 34 34 283
GlifName: quotedbl
Width: 2048
VWidth: 0
GlyphClass: 2
Flags: W
LayerCount: 2
Fore
SplineSet
752 1326 m 257,0,-1
 896 1326 l 257,1,-1
 896 1574 l 257,2,-1
 752 1574 l 257,3,-1
 752 1326 l 257,0,-1
1152 1326 m 257,4,-1
 1296 1326 l 257,5,-1
 1296 1574 l 257,6,-1
 1152 1574 l 257,7,-1
 1152 1326 l 257,4,-1
EndSplineSet
EndChar

StartChar: quotedblbase
Encoding: 8222 8222 284
GlifName: quotedblbase
Width: 2048
VWidth: 0
GlyphClass: 2
Flags: W
LayerCount: 2
Fore
SplineSet
198 237 m 257,0,-1
 198 8 l 257,1,-1
 446 8 l 257,2,-1
 446 237 l 257,3,-1
 198 237 l 257,0,-1
297 135 m 257,4,-1
 179 -146 l 257,5,-1
 322 -206 l 257,6,-1
 444 0 l 257,7,-1
 297 135 l 257,4,-1
597 237 m 257,8,-1
 597 8 l 257,9,-1
 845 8 l 257,10,-1
 845 237 l 257,11,-1
 597 237 l 257,8,-1
696 135 m 257,12,-1
 578 -146 l 257,13,-1
 721 -206 l 257,14,-1
 843 0 l 257,15,-1
 696 135 l 257,12,-1
EndSplineSet
EndChar

StartChar: quotedblleft
Encoding: 8220 8220 285
GlifName: quotedblleft
Width: 2048
VWidth: 0
GlyphClass: 2
Flags: W
LayerCount: 2
Fore
SplineSet
970 1842 m 257,0,-1
 970 2071 l 257,1,-1
 722 2071 l 257,2,-1
 722 1842 l 257,3,-1
 970 1842 l 257,0,-1
872 1944 m 257,4,-1
 990 2225 l 257,5,-1
 846 2285 l 257,6,-1
 724 2075 l 257,7,-1
 872 1944 l 257,4,-1
1306 1842 m 257,8,-1
 1306 2071 l 257,9,-1
 1058 2071 l 257,10,-1
 1058 1842 l 257,11,-1
 1306 1842 l 257,8,-1
1208 1944 m 257,12,-1
 1326 2225 l 257,13,-1
 1182 2285 l 257,14,-1
 1060 2075 l 257,15,-1
 1208 1944 l 257,12,-1
EndSplineSet
EndChar

StartChar: quotedblright
Encoding: 8221 8221 286
GlifName: quotedblright
Width: 2048
VWidth: 0
GlyphClass: 2
Flags: W
LayerCount: 2
Fore
SplineSet
1068 2285 m 257,0,-1
 1068 2056 l 257,1,-1
 1316 2056 l 257,2,-1
 1316 2285 l 257,3,-1
 1068 2285 l 257,0,-1
1168 2183 m 257,4,-1
 1050 1902 l 257,5,-1
 1192 1842 l 257,6,-1
 1314 2052 l 257,7,-1
 1168 2183 l 257,4,-1
750 2285 m 257,8,-1
 750 2056 l 257,9,-1
 998 2056 l 257,10,-1
 998 2285 l 257,11,-1
 750 2285 l 257,8,-1
850 2183 m 257,12,-1
 732 1902 l 257,13,-1
 874 1842 l 257,14,-1
 996 2052 l 257,15,-1
 850 2183 l 257,12,-1
EndSplineSet
EndChar

StartChar: quoteleft
Encoding: 8216 8216 287
GlifName: quoteleft
Width: 2048
VWidth: 0
GlyphClass: 2
Flags: W
LayerCount: 2
Fore
SplineSet
1138 1842 m 257,0,-1
 1138 2071 l 257,1,-1
 890 2071 l 257,2,-1
 890 1842 l 257,3,-1
 1138 1842 l 257,0,-1
1040 1944 m 257,4,-1
 1158 2225 l 257,5,-1
 1014 2285 l 257,6,-1
 892 2075 l 257,7,-1
 1040 1944 l 257,4,-1
EndSplineSet
EndChar

StartChar: quoteright
Encoding: 8217 8217 288
GlifName: quoteright
Width: 2048
VWidth: 0
GlyphClass: 2
Flags: W
LayerCount: 2
Fore
SplineSet
910 2285 m 257,0,-1
 910 2056 l 257,1,-1
 1158 2056 l 257,2,-1
 1158 2285 l 257,3,-1
 910 2285 l 257,0,-1
1008 2183 m 257,4,-1
 890 1902 l 257,5,-1
 1034 1842 l 257,6,-1
 1156 2052 l 257,7,-1
 1008 2183 l 257,4,-1
EndSplineSet
EndChar

StartChar: quotesinglbase
Encoding: 8218 8218 289
GlifName: quotesinglbase
Width: 2048
VWidth: 0
GlyphClass: 2
Flags: W
LayerCount: 2
Fore
SplineSet
910 237 m 257,0,-1
 910 8 l 257,1,-1
 1158 8 l 257,2,-1
 1158 237 l 257,3,-1
 910 237 l 257,0,-1
1008 135 m 257,4,-1
 890 -146 l 257,5,-1
 1034 -206 l 257,6,-1
 1156 0 l 257,7,-1
 1008 135 l 257,4,-1
EndSplineSet
EndChar

StartChar: quotesingle
Encoding: 39 39 290
GlifName: quotesingle
Width: 2048
VWidth: 0
GlyphClass: 2
Flags: W
LayerCount: 2
Fore
SplineSet
959 1496 m 257,0,-1
 959 1264 l 257,1,-1
 1089 1264 l 257,2,-1
 1089 1496 l 257,3,-1
 959 1496 l 257,0,-1
EndSplineSet
EndChar

StartChar: r
Encoding: 114 114 291
GlifName: r
Width: 2048
VWidth: 0
GlyphClass: 2
Flags: W
AnchorPoint: "top" 996 1153 basechar 0
AnchorPoint: "base" 989 -94 basechar 0
LayerCount: 2
Fore
SplineSet
158 1023 m 257,0,-1
 158 821 l 257,1,-1
 1890 821 l 257,2,-1
 1890 1023 l 257,3,-1
 158 1023 l 257,0,-1
872 954 m 257,4,-1
 872 0 l 257,5,-1
 1072 0 l 257,6,-1
 1072 954 l 257,7,-1
 872 954 l 257,4,-1
1690 976 m 257,8,-1
 1690 650 l 257,9,-1
 1890 650 l 257,10,-1
 1890 976 l 257,11,-1
 1690 976 l 257,8,-1
EndSplineSet
EndChar

StartChar: registered
Encoding: 174 174 294
GlifName: registered
Width: 2048
VWidth: 0
GlyphClass: 2
Flags: W
HStem: 1314 8<677 677 677 799>
LayerCount: 2
Fore
SplineSet
609 1545 m 257,0,-1
 609 1014 l 257,1,-1
 677 1014 l 257,2,-1
 677 1545 l 257,3,-1
 609 1545 l 257,0,-1
634 1545 m 257,4,-1
 634 1476 l 257,5,-1
 1463 1476 l 257,6,-1
 1463 1545 l 257,7,-1
 634 1545 l 257,4,-1
1403 1545 m 257,8,-1
 1403 1315 l 257,9,-1
 1472 1315 l 257,10,-1
 1472 1545 l 257,11,-1
 1403 1545 l 257,8,-1
630 1388 m 257,12,-1
 630 1314 l 257,13,-1
 1468 1314 l 257,14,-1
 1468 1388 l 257,15,-1
 630 1388 l 257,12,-1
677 1322 m 257,16,-1
 1416 998 l 257,17,-1
 1551 998 l 257,18,-1
 799 1322 l 257,19,-1
 677 1322 l 257,16,-1
153 2050 m 257,20,-1
 153 513 l 257,21,-1
 354 513 l 257,22,-1
 354 2050 l 257,23,-1
 153 2050 l 257,20,-1
1692 2050 m 257,24,-1
 1692 513 l 257,25,-1
 1895 513 l 257,26,-1
 1895 2050 l 257,27,-1
 1692 2050 l 257,24,-1
294 2050 m 257,28,-1
 294 1850 l 257,29,-1
 1737 1850 l 257,30,-1
 1737 2050 l 257,31,-1
 294 2050 l 257,28,-1
270 717 m 257,32,-1
 270 513 l 257,33,-1
 1743 513 l 257,34,-1
 1743 717 l 257,35,-1
 270 717 l 257,32,-1
EndSplineSet
PickledDataWithLists: "(dp0
Vcom.fontlab.hintData
p1
(dp2
Vhhints
p3
(lp4
(dp5
Vposition
p6
I1314
sVwidth
p7
I8
sass."
EndChar

StartChar: ring
Encoding: 730 730 295
GlifName: ring
Width: 2048
VWidth: 0
GlyphClass: 2
Flags: W
HStem: 1145 310<844 1204>
VStem: 844 360<1145 1455 1145 1455>
LayerCount: 2
Fore
SplineSet
949 1364 m 257,0,-1
 1097 1364 l 257,1,-1
 1097 1234 l 257,2,-1
 949 1234 l 257,3,-1
 949 1364 l 257,0,-1
844 1455 m 257,4,-1
 844 1145 l 257,5,-1
 1204 1145 l 257,6,-1
 1204 1455 l 257,7,-1
 844 1455 l 257,4,-1
EndSplineSet
PickledDataWithLists: "(dp0
Vcom.fontlab.hintData
p1
(dp2
Vhhints
p3
(lp4
(dp5
Vposition
p6
I1145
sVwidth
p7
I310
sasVvhints
p8
(lp9
(dp10
g6
I844
sg7
I360
sass."
EndChar

StartChar: s
Encoding: 115 115 296
GlifName: s
Width: 2048
VWidth: 0
GlyphClass: 2
Flags: W
AnchorPoint: "top" 1013 1148 basechar 0
AnchorPoint: "base" 1021 -76 basechar 0
LayerCount: 2
Fore
SplineSet
219 1023 m 257,0,-1
 219 826 l 257,1,-1
 1828 826 l 257,2,-1
 1828 1023 l 257,3,-1
 219 1023 l 257,0,-1
219 1023 m 257,4,-1
 219 736 l 257,5,-1
 419 736 l 257,6,-1
 419 1023 l 257,7,-1
 219 1023 l 257,4,-1
220 201 m 257,8,-1
 220 0 l 257,9,-1
 1825 0 l 257,10,-1
 1825 201 l 257,11,-1
 220 201 l 257,8,-1
1624 293 m 257,12,-1
 1624 12 l 257,13,-1
 1824 12 l 257,14,-1
 1824 293 l 257,15,-1
 1624 293 l 257,12,-1
220 736 m 257,16,-1
 1624 293 l 257,17,-1
 1824 293 l 257,18,-1
 420 736 l 257,19,-1
 220 736 l 257,16,-1
EndSplineSet
EndChar

StartChar: section
Encoding: 167 167 301
GlifName: section
Width: 2048
VWidth: 0
GlyphClass: 2
Flags: W
LayerCount: 2
Fore
SplineSet
634 1238 m 257,0,-1
 634 1035 l 257,1,-1
 1232 1035 l 257,2,-1
 1232 1238 l 257,3,-1
 634 1238 l 257,0,-1
634 1241 m 257,4,-1
 634 605 l 257,5,-1
 836 605 l 257,6,-1
 836 1241 l 257,7,-1
 634 1241 l 257,4,-1
670 -61 m 257,8,-1
 670 -260 l 257,9,-1
 1378 -260 l 257,10,-1
 1378 -61 l 257,11,-1
 670 -61 l 257,8,-1
1214 -259 m 257,12,-1
 1414 -259 l 257,13,-1
 1414 95 l 257,14,-1
 1214 95 l 257,15,-1
 1214 -259 l 257,12,-1
634 605 m 257,16,-1
 1214 95 l 257,17,-1
 1414 95 l 257,18,-1
 836 605 l 257,19,-1
 634 605 l 257,16,-1
634 1626 m 257,20,-1
 634 1423 l 257,21,-1
 1232 1423 l 257,22,-1
 1232 1626 l 257,23,-1
 634 1626 l 257,20,-1
634 1629 m 257,24,-1
 634 1237 l 257,25,-1
 836 1237 l 257,26,-1
 836 1629 l 257,27,-1
 634 1629 l 257,24,-1
662 286 m 257,28,-1
 662 87 l 257,29,-1
 1370 87 l 257,30,-1
 1370 286 l 257,31,-1
 662 286 l 257,28,-1
1204 88 m 257,32,-1
 1406 88 l 257,33,-1
 1406 442 l 257,34,-1
 1204 442 l 257,35,-1
 1204 88 l 257,32,-1
634 1237 m 257,36,-1
 1204 442 l 257,37,-1
 1406 442 l 257,38,-1
 836 1237 l 257,39,-1
 634 1237 l 257,36,-1
EndSplineSet
EndChar

StartChar: semicolon
Encoding: 59 59 302
GlifName: semicolon
Width: 2048
VWidth: 0
GlyphClass: 2
Flags: W
LayerCount: 2
Fore
SplineSet
912 430 m 257,0,-1
 912 201 l 257,1,-1
 1160 201 l 257,2,-1
 1160 430 l 257,3,-1
 912 430 l 257,0,-1
1010 328 m 257,4,-1
 892 47 l 257,5,-1
 1036 -13 l 257,6,-1
 1158 197 l 257,7,-1
 1010 328 l 257,4,-1
888 871 m 257,8,-1
 888 624 l 257,9,-1
 1154 624 l 257,10,-1
 1154 871 l 257,11,-1
 888 871 l 257,8,-1
EndSplineSet
EndChar

StartChar: seven
Encoding: 55 55 303
GlifName: seven
Width: 2048
VWidth: 0
GlyphClass: 2
Flags: W
LayerCount: 2
Fore
SplineSet
54 1355 m 257,0,-1
 1788 1355 l 257,1,-1
 1788 0 l 257,2,-1
 1991 0 l 257,3,-1
 1991 1557 l 257,4,-1
 54 1557 l 257,5,-1
 54 1355 l 257,0,-1
EndSplineSet
EndChar

StartChar: six
Encoding: 54 54 304
GlifName: six
Width: 2048
VWidth: 0
GlyphClass: 2
Flags: W
LayerCount: 2
Fore
SplineSet
41 1548 m 257,0,-1
 41 201 l 257,1,-1
 41 0 l 257,2,-1
 2004 0 l 257,3,-1
 2004 959 l 257,4,-1
 244 959 l 257,5,-1
 244 1348 l 257,6,-1
 2009 1348 l 257,7,-1
 2009 1548 l 257,8,-1
 41 1548 l 257,0,-1
1796 759 m 257,9,-1
 1796 203 l 257,10,-1
 250 203 l 257,11,-1
 250 759 l 257,12,-1
 1796 759 l 257,9,-1
EndSplineSet
EndChar

StartChar: slash
Encoding: 47 47 305
GlifName: slash
Width: 2048
VWidth: 0
GlyphClass: 2
Flags: W
LayerCount: 2
Fore
SplineSet
1215 1483 m 257,0,-1
 645 6 l 257,1,-1
 833 -67 l 257,2,-1
 1403 1410 l 257,3,-1
 1215 1483 l 257,0,-1
EndSplineSet
EndChar

StartChar: sterling
Encoding: 163 163 307
GlifName: sterling
Width: 2048
VWidth: 0
GlyphClass: 2
Flags: W
LayerCount: 2
Fore
SplineSet
934 1543 m 257,0,-1
 934 1344 l 257,1,-1
 1225 1344 l 257,2,-1
 1225 1543 l 257,3,-1
 934 1543 l 257,0,-1
607 770 m 257,4,-1
 607 571 l 257,5,-1
 1333 571 l 257,6,-1
 1333 770 l 257,7,-1
 607 770 l 257,4,-1
890 1542 m 257,8,-1
 890 0 l 257,9,-1
 1088 0 l 257,10,-1
 1088 1542 l 257,11,-1
 890 1542 l 257,8,-1
715 202 m 257,12,-1
 715 0 l 257,13,-1
 1441 0 l 257,14,-1
 1441 202 l 257,15,-1
 715 202 l 257,12,-1
EndSplineSet
EndChar

StartChar: t
Encoding: 116 116 308
GlifName: t
Width: 2048
VWidth: 0
GlyphClass: 2
Flags: W
AnchorPoint: "top" 1009 1652 basechar 0
AnchorPoint: "base" 1020 -92 basechar 0
LayerCount: 2
Fore
SplineSet
922 1548 m 257,0,-1
 922 0 l 257,1,-1
 1122 0 l 257,2,-1
 1122 1548 l 257,3,-1
 922 1548 l 257,0,-1
930 199 m 257,4,-1
 930 0 l 257,5,-1
 1822 0 l 257,6,-1
 1822 199 l 257,7,-1
 930 199 l 257,4,-1
186 1023 m 257,8,-1
 186 824 l 257,9,-1
 1860 824 l 257,10,-1
 1860 1023 l 257,11,-1
 186 1023 l 257,8,-1
EndSplineSet
EndChar

StartChar: tcaron
Encoding: 357 357 309
GlifName: tcaron
Width: 2048
VWidth: 0
GlyphClass: 2
Flags: W
LayerCount: 2
Fore
SplineSet
854 1529 m 257,0,-1
 854 0 l 257,1,-1
 1055 0 l 257,2,-1
 1055 1529 l 257,3,-1
 854 1529 l 257,0,-1
1007 199 m 257,4,-1
 1007 0 l 257,5,-1
 1910 0 l 257,6,-1
 1910 199 l 257,7,-1
 1007 199 l 257,4,-1
70 1023 m 257,8,-1
 70 824 l 257,9,-1
 1873 824 l 257,10,-1
 1873 1023 l 257,11,-1
 70 1023 l 257,8,-1
1396 1496 m 257,12,-1
 1396 1291 l 257,13,-1
 1526 1291 l 257,14,-1
 1526 1496 l 257,15,-1
 1396 1496 l 257,12,-1
EndSplineSet
EndChar

StartChar: thorn
Encoding: 254 254 310
GlifName: thorn
Width: 2048
VWidth: 0
GlyphClass: 2
Flags: W
LayerCount: 2
Fore
SplineSet
173 1034 m 257,0,-1
 173 -406 l 257,1,-1
 373 -406 l 257,2,-1
 373 1034 l 257,3,-1
 173 1034 l 257,0,-1
360 667 m 257,4,-1
 360 468 l 257,5,-1
 1940 468 l 257,6,-1
 1940 667 l 257,7,-1
 360 667 l 257,4,-1
368 6 m 257,8,-1
 368 -195 l 257,9,-1
 1938 -195 l 257,10,-1
 1938 6 l 257,11,-1
 368 6 l 257,8,-1
1740 597 m 257,12,-1
 1740 -104 l 257,13,-1
 1938 -104 l 257,14,-1
 1938 597 l 257,15,-1
 1740 597 l 257,12,-1
EndSplineSet
EndChar

StartChar: three
Encoding: 51 51 311
GlifName: three
Width: 2048
VWidth: 0
GlyphClass: 2
Flags: W
LayerCount: 2
Fore
SplineSet
101 736 m 257,0,-1
 1783 736 l 257,1,-1
 1783 192 l 257,2,-1
 59 192 l 257,3,-1
 59 -8 l 257,4,-1
 1987 -8 l 257,5,-1
 1987 1553 l 257,6,-1
 89 1553 l 257,7,-1
 89 1353 l 257,8,-1
 1781 1353 l 257,9,-1
 1781 936 l 257,10,-1
 101 936 l 257,11,-1
 101 736 l 257,0,-1
EndSplineSet
EndChar

StartChar: threequarters
Encoding: 190 190 312
GlifName: threequarters
Width: 2048
VWidth: 0
GlyphClass: 2
Flags: W
LayerCount: 2
Fore
SplineSet
1388 1483 m 257,0,-1
 212 6 l 257,1,-1
 332 -67 l 257,2,-1
 1508 1410 l 257,3,-1
 1388 1483 l 257,0,-1
96 1272 m 257,4,-1
 670 1272 l 257,5,-1
 670 1084 l 257,6,-1
 59 1084 l 257,7,-1
 67 1015 l 257,8,-1
 847 1015 l 257,9,-1
 847 1553 l 257,10,-1
 86 1553 l 257,11,-1
 86 1484 l 257,12,-1
 668 1484 l 257,13,-1
 668 1340 l 257,14,-1
 96 1340 l 257,15,-1
 96 1272 l 257,4,-1
1264 340 m 257,16,-1
 1811 340 l 257,17,-1
 1811 7 l 257,18,-1
 1978 7 l 257,19,-1
 1978 687 l 257,20,-1
 1809 687 l 257,21,-1
 1809 428 l 257,22,-1
 1433 428 l 257,23,-1
 1433 689 l 257,24,-1
 1264 689 l 257,25,-1
 1264 340 l 257,16,-1
EndSplineSet
EndChar

StartChar: tilde
Encoding: 732 732 313
GlifName: tilde
Width: 2048
VWidth: 0
GlyphClass: 2
Flags: W
LayerCount: 2
Fore
SplineSet
878 1305 m 257,0,-1
 878 1206 l 257,1,-1
 1228 1145 l 257,2,-1
 1228 1244 l 257,3,-1
 878 1305 l 257,0,-1
640 1247 m 257,4,-1
 654 1149 l 257,5,-1
 878 1206 l 257,6,-1
 878 1305 l 257,7,-1
 640 1247 l 257,4,-1
1228 1244 m 257,8,-1
 1228 1145 l 257,9,-1
 1408 1286 l 257,10,-1
 1384 1382 l 257,11,-1
 1228 1244 l 257,8,-1
EndSplineSet
EndChar

StartChar: tildecomb
Encoding: 771 771 314
GlifName: tildecomb
Width: 0
VWidth: 0
GlyphClass: 4
Flags: W
AnchorPoint: "top" 0 766 mark 0
LayerCount: 2
Fore
SplineSet
-183 975 m 257,0,-1
 -183 876 l 257,1,-1
 167 815 l 257,2,-1
 167 914 l 257,3,-1
 -183 975 l 257,0,-1
-421 917 m 257,4,-1
 -407 819 l 257,5,-1
 -183 876 l 257,6,-1
 -183 975 l 257,7,-1
 -421 917 l 257,4,-1
167 914 m 257,8,-1
 167 815 l 257,9,-1
 347 956 l 257,10,-1
 323 1052 l 257,11,-1
 167 914 l 257,8,-1
EndSplineSet
EndChar

StartChar: two
Encoding: 50 50 316
GlifName: two
Width: 2048
VWidth: 0
GlyphClass: 2
Flags: W
LayerCount: 2
Fore
SplineSet
109 1344 m 257,0,-1
 1742 1344 l 257,1,-1
 1742 908 l 257,2,-1
 116 908 l 257,3,-1
 116 0 l 257,4,-1
 1928 0 l 257,5,-1
 1928 200 l 257,6,-1
 319 200 l 257,7,-1
 319 707 l 257,8,-1
 1942 707 l 257,9,-1
 1942 1548 l 257,10,-1
 109 1548 l 257,11,-1
 109 1344 l 257,0,-1
EndSplineSet
EndChar

StartChar: u
Encoding: 117 117 317
GlifName: u
Width: 2048
VWidth: 0
GlyphClass: 2
Flags: W
AnchorPoint: "top" 1012 1129 basechar 0
AnchorPoint: "base" 1025 -78 basechar 0
LayerCount: 2
Fore
SplineSet
150 1023 m 257,0,-1
 150 0 l 257,1,-1
 350 0 l 257,2,-1
 350 1023 l 257,3,-1
 150 1023 l 257,0,-1
1382 1023 m 257,4,-1
 1382 0 l 257,5,-1
 1582 0 l 257,6,-1
 1582 1023 l 257,7,-1
 1382 1023 l 257,4,-1
196 200 m 257,8,-1
 196 0 l 257,9,-1
 1898 0 l 257,10,-1
 1898 200 l 257,11,-1
 196 200 l 257,8,-1
EndSplineSet
EndChar

StartChar: underscore
Encoding: 95 95 326
GlifName: underscore
Width: 2048
VWidth: 0
GlyphClass: 2
Flags: W
LayerCount: 2
Fore
SplineSet
0 -5 m 257,0,-1
 0 -71 l 257,1,-1
 2052 -71 l 257,2,-1
 2052 -5 l 257,3,-1
 0 -5 l 257,0,-1
EndSplineSet
EndChar

StartChar: uni00B2
Encoding: 178 178 328
GlifName: uni00B_2
Width: 2048
VWidth: 0
GlyphClass: 2
Flags: W
LayerCount: 2
Fore
SplineSet
385 1455 m 257,0,-1
 1275 1455 l 257,1,-1
 1275 1259 l 257,2,-1
 394 1259 l 257,3,-1
 394 851 l 257,4,-1
 1361 851 l 257,5,-1
 1361 940 l 257,6,-1
 514 940 l 257,7,-1
 514 1168 l 257,8,-1
 1381 1168 l 257,9,-1
 1381 1548 l 257,10,-1
 385 1548 l 257,11,-1
 385 1455 l 257,0,-1
EndSplineSet
EndChar

StartChar: uni00B3
Encoding: 179 179 329
GlifName: uni00B_3
Width: 2048
VWidth: 0
GlyphClass: 2
Flags: W
LayerCount: 2
Fore
SplineSet
456 1184 m 257,0,-1
 1408 1184 l 257,1,-1
 1408 938 l 257,2,-1
 432 938 l 257,3,-1
 432 849 l 257,4,-1
 1524 849 l 257,5,-1
 1524 1553 l 257,6,-1
 449 1553 l 257,7,-1
 449 1463 l 257,8,-1
 1407 1463 l 257,9,-1
 1407 1275 l 257,10,-1
 456 1275 l 257,11,-1
 456 1184 l 257,0,-1
EndSplineSet
EndChar

StartChar: uni00B9
Encoding: 185 185 330
GlifName: uni00B_9
Width: 2048
VWidth: 0
GlyphClass: 2
Flags: W
LayerCount: 2
Fore
SplineSet
1023 887 m 257,0,-1
 1122 887 l 257,1,-1
 1122 1661 l 257,2,-1
 1023 1661 l 257,3,-1
 1023 887 l 257,0,-1
1025 1661 m 257,4,-1
 926 1513 l 257,5,-1
 1001 1463 l 257,6,-1
 1100 1612 l 257,7,-1
 1025 1661 l 257,4,-1
EndSplineSet
EndChar

StartChar: uni018F
Encoding: 399 399 343
GlifName: uni018F_
Width: 2048
VWidth: 0
GlyphClass: 2
Flags: W
AnchorPoint: "top" 568 1630 basechar 0
AnchorPoint: "base" 690 -117 basechar 0
LayerCount: 2
Fore
SplineSet
1828 0 m 257,0,-1
 1828 211 l 257,1,-1
 265 211 l 257,2,-1
 265 0 l 257,3,-1
 1828 0 l 257,0,-1
1878 0 m 257,4,-1
 1878 1543 l 257,5,-1
 1676 1543 l 257,6,-1
 1676 0 l 257,7,-1
 1878 0 l 257,4,-1
1776 1342 m 257,8,-1
 1776 1543 l 257,9,-1
 170 1543 l 257,10,-1
 170 1342 l 257,11,-1
 1776 1342 l 257,8,-1
1808 689 m 257,12,-1
 1808 868 l 257,13,-1
 130 868 l 257,14,-1
 130 689 l 257,15,-1
 1808 689 l 257,12,-1
462 30 m 257,16,-1
 302 869 l 257,17,-1
 107 869 l 257,18,-1
 267 30 l 257,19,-1
 462 30 l 257,16,-1
EndSplineSet
EndChar

StartChar: uni0192
Encoding: 402 402 344
GlifName: uni0192
Width: 2048
VWidth: 0
GlyphClass: 2
Flags: W
LayerCount: 2
Fore
SplineSet
763 1023 m 257,0,-1
 763 -406 l 257,1,-1
 963 -406 l 257,2,-1
 963 1023 l 257,3,-1
 763 1023 l 257,0,-1
825 1023 m 257,4,-1
 825 831 l 257,5,-1
 1603 831 l 257,6,-1
 1603 1023 l 257,7,-1
 825 1023 l 257,4,-1
229 559 m 257,8,-1
 229 356 l 257,9,-1
 1506 356 l 257,10,-1
 1506 559 l 257,11,-1
 229 559 l 257,8,-1
167 -201 m 257,12,-1
 167 -406 l 257,13,-1
 965 -406 l 257,14,-1
 965 -201 l 257,15,-1
 167 -201 l 257,12,-1
EndSplineSet
EndChar

StartChar: uni0237
Encoding: 567 567 400
GlifName: uni0237
Width: 2048
VWidth: 0
GlyphClass: 2
Flags: W
AnchorPoint: "top" 1722 1119 basechar 0
LayerCount: 2
Fore
SplineSet
1640 1023 m 257,0,-1
 1640 -411 l 257,1,-1
 1838 -411 l 257,2,-1
 1838 1023 l 257,3,-1
 1640 1023 l 257,0,-1
210 -209 m 257,4,-1
 210 -406 l 257,5,-1
 1740 -406 l 257,6,-1
 1740 -209 l 257,7,-1
 210 -209 l 257,4,-1
210 -6 m 257,8,-1
 210 -351 l 257,9,-1
 410 -351 l 257,10,-1
 410 -6 l 257,11,-1
 210 -6 l 257,8,-1
EndSplineSet
EndChar

StartChar: uni0259
Encoding: 601 601 401
GlifName: uni0259
Width: 2048
VWidth: 0
GlyphClass: 2
Flags: W
LayerCount: 2
Fore
SplineSet
1828 0 m 257,0,-1
 1828 211 l 257,1,-1
 240 278 l 257,2,-1
 240 67 l 257,3,-1
 1828 0 l 257,0,-1
1878 0 m 257,4,-1
 1878 1023 l 257,5,-1
 1676 1023 l 257,6,-1
 1676 0 l 257,7,-1
 1878 0 l 257,4,-1
1776 822 m 257,8,-1
 1776 1023 l 257,9,-1
 170 1023 l 257,10,-1
 170 822 l 257,11,-1
 1776 822 l 257,8,-1
1808 398 m 257,12,-1
 1808 577 l 257,13,-1
 194 577 l 257,14,-1
 194 398 l 257,15,-1
 1808 398 l 257,12,-1
437 97 m 257,16,-1
 366 578 l 257,17,-1
 171 578 l 257,18,-1
 242 97 l 257,19,-1
 437 97 l 257,16,-1
EndSplineSet
EndChar

StartChar: uni02C9
Encoding: 713 713 405
GlifName: uni02C_9
Width: 2048
VWidth: 0
GlyphClass: 2
Flags: W
LayerCount: 2
Fore
SplineSet
744 1630 m 257,0,-1
 744 1548 l 257,1,-1
 1304 1548 l 257,2,-1
 1304 1630 l 257,3,-1
 744 1630 l 257,0,-1
EndSplineSet
EndChar

StartChar: uni02CA
Encoding: 714 714 406
GlifName: uni02C_A_
Width: 2048
VWidth: 0
GlyphClass: 2
Flags: W
LayerCount: 2
Fore
SplineSet
1070 1330 m 257,0,-1
 940 1076 l 257,1,-1
 1028 1030 l 257,2,-1
 1160 1285 l 257,3,-1
 1070 1330 l 257,0,-1
EndSplineSet
EndChar

StartChar: uni02CB
Encoding: 715 715 407
GlifName: uni02C_B_
Width: 2048
VWidth: 0
GlyphClass: 2
Flags: W
LayerCount: 2
Fore
SplineSet
918 2107 m 257,0,-1
 1038 1871 l 257,1,-1
 1130 1917 l 257,2,-1
 1010 2154 l 257,3,-1
 918 2107 l 257,0,-1
EndSplineSet
EndChar

StartChar: uni0302
Encoding: 770 770 408
GlifName: uni0302
Width: 0
VWidth: 0
GlyphClass: 4
Flags: W
AnchorPoint: "top" 4 761 mark 0
LayerCount: 2
Fore
SplineSet
43 1146 m 257,0,-1
 -32 1146 l 257,1,-1
 -164 838 l 257,2,-1
 -89 806 l 257,3,-1
 43 1146 l 257,0,-1
-29 1086 m 257,4,-1
 99 806 l 257,5,-1
 174 834 l 257,6,-1
 43 1146 l 257,7,-1
 -29 1086 l 257,4,-1
EndSplineSet
EndChar

StartChar: uni0304
Encoding: 772 772 409
GlifName: uni0304
Width: 0
VWidth: 0
GlyphClass: 4
Flags: W
HStem: 1548 82
VStem: -280 560
AnchorPoint: "top" 10 776 mark 0
LayerCount: 2
Fore
SplineSet
-272 916 m 257,0,-1
 -272 834 l 257,1,-1
 288 834 l 257,2,-1
 288 916 l 257,3,-1
 -272 916 l 257,0,-1
EndSplineSet
PickledDataWithLists: "(dp0
Vcom.fontlab.hintData
p1
(dp2
Vhhints
p3
(lp4
(dp5
Vposition
p6
I1548
sVwidth
p7
I82
sasVvhints
p8
(lp9
(dp10
g6
I-280
sg7
I560
sass."
EndChar

StartChar: uni0305
Encoding: 773 773 410
GlifName: uni0305
Width: 0
VWidth: 0
GlyphClass: 4
Flags: W
HStem: 1542 60<-377 377>
AnchorPoint: "top" 542 1480 mark 0
LayerCount: 2
Fore
SplineSet
-377 1602 m 257,0,-1
 -377 1542 l 257,1,-1
 377 1542 l 257,2,-1
 377 1602 l 257,3,-1
 -377 1602 l 257,0,-1
EndSplineSet
PickledDataWithLists: "(dp0
Vcom.fontlab.hintData
p1
(dp2
Vhhints
p3
(lp4
(dp5
Vposition
p6
I1542
sVwidth
p7
I60
sass."
EndChar

StartChar: uni0306
Encoding: 774 774 411
GlifName: uni0306
Width: 0
VWidth: 0
GlyphClass: 4
Flags: W
VStem: -330 660
AnchorPoint: "top" -7 774 mark 0
LayerCount: 2
Fore
SplineSet
137 882 m 257,0,-1
 137 814 l 257,1,-1
 302 882 l 257,2,-1
 302 979 l 257,3,-1
 137 882 l 257,0,-1
-187 882 m 257,4,-1
 -187 814 l 257,5,-1
 137 814 l 257,6,-1
 137 882 l 257,7,-1
 -187 882 l 257,4,-1
-358 964 m 257,8,-1
 -358 882 l 257,9,-1
 -187 814 l 257,10,-1
 -187 882 l 257,11,-1
 -358 964 l 257,8,-1
EndSplineSet
PickledDataWithLists: "(dp0
Vcom.fontlab.hintData
p1
(dp2
Vvhints
p3
(lp4
(dp5
Vposition
p6
I-330
sVwidth
p7
I660
sass."
EndChar

StartChar: uni0307
Encoding: 775 775 412
GlifName: uni0307
Width: 0
VWidth: 0
GlyphClass: 4
Flags: W
HStem: 1641 202
VStem: -112 224<814 1016 814 1016>
AnchorPoint: "top" 1 777 mark 0
LayerCount: 2
Fore
SplineSet
-112 1016 m 257,0,-1
 -112 814 l 257,1,-1
 112 814 l 257,2,-1
 112 1016 l 257,3,-1
 -112 1016 l 257,0,-1
EndSplineSet
PickledDataWithLists: "(dp0
Vcom.fontlab.hintData
p1
(dp2
Vhhints
p3
(lp4
(dp5
Vposition
p6
I1641
sVwidth
p7
I202
sasVvhints
p8
(lp9
(dp10
g6
I-112
sg7
I224
sass."
EndChar

StartChar: uni0308
Encoding: 776 776 413
GlifName: uni0308
Width: 0
VWidth: 0
GlyphClass: 4
Flags: W
HStem: 1474 151<-266 -98 98 266>
AnchorPoint: "top" 0 1420 mark 0
LayerCount: 2
Fore
SplineSet
-266 1625 m 257,0,-1
 -266 1474 l 257,1,-1
 -98 1474 l 257,2,-1
 -98 1625 l 257,3,-1
 -266 1625 l 257,0,-1
98 1625 m 257,4,-1
 98 1474 l 257,5,-1
 266 1474 l 257,6,-1
 266 1625 l 257,7,-1
 98 1625 l 257,4,-1
EndSplineSet
PickledDataWithLists: "(dp0
Vcom.fontlab.hintData
p1
(dp2
Vhhints
p3
(lp4
(dp5
Vposition
p6
I1474
sVwidth
p7
I151
sass."
EndChar

StartChar: uni030A
Encoding: 778 778 414
GlifName: uni030A_
Width: 0
VWidth: 0
GlyphClass: 4
Flags: W
HStem: 1537 310
VStem: -180 360
AnchorPoint: "top" -6 771 mark 0
LayerCount: 2
Fore
SplineSet
-56 1004 m 257,0,-1
 92 1004 l 257,1,-1
 92 874 l 257,2,-1
 -56 874 l 257,3,-1
 -56 1004 l 257,0,-1
-161 1095 m 257,4,-1
 -161 785 l 257,5,-1
 199 785 l 257,6,-1
 199 1095 l 257,7,-1
 -161 1095 l 257,4,-1
EndSplineSet
PickledDataWithLists: "(dp0
Vcom.fontlab.hintData
p1
(dp2
Vhhints
p3
(lp4
(dp5
Vposition
p6
I1537
sVwidth
p7
I310
sasVvhints
p8
(lp9
(dp10
g6
I-180
sg7
I360
sass."
EndChar

StartChar: uni030B
Encoding: 779 779 415
GlifName: uni030B_
Width: 0
VWidth: 0
GlyphClass: 4
Flags: W
AnchorPoint: "top" -2 778 mark 0
LayerCount: 2
Fore
SplineSet
-263 802 m 257,0,-1
 -119 802 l 257,1,-1
 -119 1050 l 257,2,-1
 -263 1050 l 257,3,-1
 -263 802 l 257,0,-1
137 802 m 257,4,-1
 281 802 l 257,5,-1
 281 1050 l 257,6,-1
 137 1050 l 257,7,-1
 137 802 l 257,4,-1
EndSplineSet
EndChar

StartChar: uni030C
Encoding: 780 780 416
GlifName: uni030C_
Width: 0
VWidth: 0
GlyphClass: 4
Flags: W
AnchorPoint: "top" -1 751 mark 0
LayerCount: 2
Fore
SplineSet
22 809 m 257,0,-1
 -66 1090 l 257,1,-1
 -116 1065 l 257,2,-1
 -28 808 l 257,3,-1
 22 809 l 257,0,-1
-26 858 m 257,4,-1
 22 809 l 257,5,-1
 110 1067 l 257,6,-1
 59 1091 l 257,7,-1
 -26 858 l 257,4,-1
EndSplineSet
EndChar

StartChar: uni030F
Encoding: 783 783 417
GlifName: uni030F_
Width: 0
VWidth: 0
GlyphClass: 4
Flags: W
AnchorPoint: "top" -5 779 mark 0
LayerCount: 2
Fore
SplineSet
-50 1013 m 257,0,-1
 70 777 l 257,1,-1
 161 823 l 257,2,-1
 42 1060 l 257,3,-1
 -50 1013 l 257,0,-1
-268 1013 m 257,4,-1
 -148 777 l 257,5,-1
 -57 823 l 257,6,-1
 -176 1060 l 257,7,-1
 -268 1013 l 257,4,-1
EndSplineSet
EndChar

StartChar: uni0311
Encoding: 785 785 418
GlifName: uni0311
Width: 0
VWidth: 0
GlyphClass: 4
Flags: W
AnchorPoint: "top" -14 773 mark 0
LayerCount: 2
Fore
SplineSet
-174 831 m 257,0,-1
 -174 899 l 257,1,-1
 -339 831 l 257,2,-1
 -339 734 l 257,3,-1
 -174 831 l 257,0,-1
150 831 m 257,4,-1
 150 899 l 257,5,-1
 -174 899 l 257,6,-1
 -174 831 l 257,7,-1
 150 831 l 257,4,-1
321 749 m 257,8,-1
 321 831 l 257,9,-1
 150 899 l 257,10,-1
 150 831 l 257,11,-1
 321 749 l 257,8,-1
EndSplineSet
EndChar

StartChar: uni031B
Encoding: 795 795 419
GlifName: uni031B_
Width: 0
VWidth: 0
GlyphClass: 4
Flags: W
AnchorPoint: "top" 0 765 mark 0
LayerCount: 2
Fore
SplineSet
-64 1200 m 257,0,-1
 -64 971 l 257,1,-1
 184 971 l 257,2,-1
 184 1200 l 257,3,-1
 -64 1200 l 257,0,-1
34 1098 m 257,4,-1
 -84 817 l 257,5,-1
 60 757 l 257,6,-1
 182 963 l 257,7,-1
 34 1098 l 257,4,-1
EndSplineSet
EndChar

StartChar: uni0326
Encoding: 806 806 420
GlifName: uni0326
Width: 0
VWidth: 0
GlyphClass: 4
Flags: W
AnchorPoint: "base" -13 -4 mark 0
LayerCount: 2
Fore
SplineSet
-114 0 m 257,0,-1
 -114 -230 l 257,1,-1
 134 -230 l 257,2,-1
 134 0 l 257,3,-1
 -114 0 l 257,0,-1
-16 -103 m 257,4,-1
 -134 -384 l 257,5,-1
 10 -444 l 257,6,-1
 132 -234 l 257,7,-1
 -16 -103 l 257,4,-1
EndSplineSet
EndChar

StartChar: uni0327
Encoding: 807 807 421
GlifName: uni0327
Width: 0
VWidth: 0
GlyphClass: 4
Flags: W
AnchorPoint: "base" -1470 90 mark 0
LayerCount: 2
Fore
SplineSet
-224 180 m 257,0,-1
 -224 -144 l 257,1,-1
 -68 -144 l 257,2,-1
 -68 180 l 257,3,-1
 -224 180 l 257,0,-1
-222 -288 m 257,4,-1
 -222 -406 l 257,5,-1
 224 -406 l 257,6,-1
 224 -288 l 257,7,-1
 -222 -288 l 257,4,-1
72 0 m 257,8,-1
 72 -372 l 257,9,-1
 224 -372 l 257,10,-1
 224 0 l 257,11,-1
 72 0 l 257,8,-1
-222 0 m 257,12,-1
 -222 -156 l 257,13,-1
 224 -156 l 257,14,-1
 224 0 l 257,15,-1
 -222 0 l 257,12,-1
EndSplineSet
EndChar

StartChar: uni0328
Encoding: 808 808 422
GlifName: uni0328
Width: 0
VWidth: 0
GlyphClass: 4
Flags: W
HStem: -406 406<-271 271 -271 -153 -153 -153>
VStem: -271 542<-406 -288 -406 -288 -406 -288 -121 0 -406 0 -406 -288 -406 -121 -121 0>
AnchorPoint: "base" -1191 0 mark 0
LayerCount: 2
Fore
SplineSet
-271 -288 m 257,0,-1
 -271 -406 l 257,1,-1
 271 -406 l 257,2,-1
 271 -288 l 257,3,-1
 -271 -288 l 257,0,-1
-271 0 m 257,4,-1
 -271 -406 l 257,5,-1
 -153 -406 l 257,6,-1
 -153 0 l 257,7,-1
 -271 0 l 257,4,-1
-271 0 m 257,8,-1
 -271 -121 l 257,9,-1
 271 -121 l 257,10,-1
 271 0 l 257,11,-1
 -271 0 l 257,8,-1
EndSplineSet
PickledDataWithLists: "(dp0
Vcom.fontlab.hintData
p1
(dp2
Vhhints
p3
(lp4
(dp5
Vposition
p6
I-406
sVwidth
p7
I406
sasVvhints
p8
(lp9
(dp10
g6
I-271
sg7
I542
sass."
EndChar

StartChar: uni0331
Encoding: 817 817 423
GlifName: uni0331
Width: 0
VWidth: 0
GlyphClass: 4
Flags: W
AnchorPoint: "base" 4 -163 mark 0
LayerCount: 2
Fore
SplineSet
226 -170 m 257,0,-1
 226 -248 l 257,1,-1
 786 -248 l 257,2,-1
 786 -170 l 257,3,-1
 226 -170 l 257,0,-1
EndSplineSet
EndChar

StartChar: uni0900
Encoding: 2304 2304 424
GlifName: uni0900
Width: 0
VWidth: 0
GlyphClass: 4
Flags: W
AnchorPoint: "abvm_deva" 42 1648 mark 0
LayerCount: 2
Fore
SplineSet
114 2124 m 257,0,-1
 114 1639 l 257,1,-1
 312 1639 l 257,2,-1
 312 2124 l 257,3,-1
 114 2124 l 257,0,-1
160 2126 m 257,4,-1
 160 1925 l 257,5,-1
 1794 1925 l 257,6,-1
 1794 2126 l 257,7,-1
 160 2126 l 257,4,-1
414 1865 m 257,8,-1
 414 1665 l 257,9,-1
 1614 1665 l 257,10,-1
 1614 1865 l 257,11,-1
 414 1865 l 257,8,-1
1718 2127 m 257,12,-1
 1718 1636 l 257,13,-1
 1918 1636 l 257,14,-1
 1918 2127 l 257,15,-1
 1718 2127 l 257,12,-1
EndSplineSet
EndChar

StartChar: uni0901
Encoding: 2305 2305 425
GlifName: uni0901
Width: 0
VWidth: 0
GlyphClass: 4
Flags: W
AnchorPoint: "abvm_deva" 0 1618 mark 0
LayerCount: 2
Fore
SplineSet
154 2124 m 257,0,-1
 154 1639 l 257,1,-1
 354 1639 l 257,2,-1
 354 2124 l 257,3,-1
 154 2124 l 257,0,-1
200 1842 m 257,4,-1
 200 1641 l 257,5,-1
 1834 1641 l 257,6,-1
 1834 1842 l 257,7,-1
 200 1842 l 257,4,-1
456 2095 m 257,8,-1
 456 1895 l 257,9,-1
 1656 1895 l 257,10,-1
 1656 2095 l 257,11,-1
 456 2095 l 257,8,-1
1758 2132 m 257,12,-1
 1758 1641 l 257,13,-1
 1958 1641 l 257,14,-1
 1958 2132 l 257,15,-1
 1758 2132 l 257,12,-1
EndSplineSet
EndChar

StartChar: uni0902
Encoding: 2306 2306 426
GlifName: uni0902
Width: 0
VWidth: 0
GlyphClass: 4
Flags: W
HStem: 1639 200<93 293>
VStem: 93 200<1639 1839 1639 1839>
AnchorPoint: "abvm_deva" -318 1636 mark 0
LayerCount: 2
Fore
SplineSet
93 1839 m 257,0,-1
 93 1639 l 257,1,-1
 293 1639 l 257,2,-1
 293 1839 l 257,3,-1
 93 1839 l 257,0,-1
EndSplineSet
PickledDataWithLists: "(dp0
Vcom.fontlab.hintData
p1
(dp2
Vhhints
p3
(lp4
(dp5
Vposition
p6
I1639
sVwidth
p7
I200
sasVvhints
p8
(lp9
(dp10
g6
I93
sg7
I200
sass."
EndChar

StartChar: uni0903
Encoding: 2307 2307 427
GlifName: uni0903
Width: 2048
VWidth: 0
GlyphClass: 2
Flags: W
LayerCount: 2
Fore
SplineSet
924 649 m 257,0,-1
 924 449 l 257,1,-1
 1124 449 l 257,2,-1
 1124 649 l 257,3,-1
 924 649 l 257,0,-1
924 1317 m 257,4,-1
 924 1117 l 257,5,-1
 1124 1117 l 257,6,-1
 1124 1317 l 257,7,-1
 924 1317 l 257,4,-1
EndSplineSet
EndChar

StartChar: uni0904
Encoding: 2308 2308 428
GlifName: uni0904
Width: 2048
VWidth: 0
GlyphClass: 2
Flags: W
AnchorPoint: "abvm_deva" 636 1972 basechar 0
LayerCount: 2
Fore
SplineSet
766 2155 m 257,0,-1
 766 1836 l 257,1,-1
 964 1836 l 257,2,-1
 964 2155 l 257,3,-1
 766 2155 l 257,0,-1
764 1967 m 257,4,-1
 764 1768 l 257,5,-1
 1936 1768 l 257,6,-1
 1936 1967 l 257,7,-1
 764 1967 l 257,4,-1
1736 1956 m 257,8,-1
 1736 1516 l 257,9,-1
 1938 1516 l 257,10,-1
 1938 1956 l 257,11,-1
 1736 1956 l 257,8,-1
1704 1548 m 257,12,-1
 1704 1348 l 257,13,-1
 2051 1348 l 257,14,-1
 2051 1548 l 257,15,-1
 1704 1548 l 257,12,-1
1764 1419 m 257,16,-1
 1764 0 l 257,17,-1
 1964 0 l 257,18,-1
 1964 1419 l 257,19,-1
 1764 1419 l 257,16,-1
38 1548 m 257,20,-1
 38 1348 l 257,21,-1
 1072 1348 l 257,22,-1
 1072 1548 l 257,23,-1
 38 1548 l 257,20,-1
898 1548 m 257,24,-1
 898 140 l 257,25,-1
 1098 140 l 257,26,-1
 1098 1548 l 257,27,-1
 898 1548 l 257,24,-1
122 894 m 257,28,-1
 122 693 l 257,29,-1
 1818 693 l 257,30,-1
 1818 894 l 257,31,-1
 122 894 l 257,28,-1
12 201 m 257,32,-1
 12 0 l 257,33,-1
 1098 0 l 257,34,-1
 1098 201 l 257,35,-1
 12 201 l 257,32,-1
EndSplineSet
EndChar

StartChar: uni0905
Encoding: 2309 2309 429
GlifName: uni0905
Width: 2048
VWidth: 0
GlyphClass: 2
Flags: W
AnchorPoint: "abvm_deva" 1637 1598 basechar 0
LayerCount: 2
Fore
SplineSet
1671 1548 m 257,0,-1
 1671 1347 l 257,1,-1
 2050 1347 l 257,2,-1
 2050 1548 l 257,3,-1
 1671 1548 l 257,0,-1
1800 1419 m 257,4,-1
 1800 0 l 257,5,-1
 1998 0 l 257,6,-1
 1998 1419 l 257,7,-1
 1800 1419 l 257,4,-1
38 1548 m 257,8,-1
 38 1348 l 257,9,-1
 1072 1348 l 257,10,-1
 1072 1548 l 257,11,-1
 38 1548 l 257,8,-1
898 1548 m 257,12,-1
 898 140 l 257,13,-1
 1098 140 l 257,14,-1
 1098 1548 l 257,15,-1
 898 1548 l 257,12,-1
122 894 m 257,16,-1
 122 693 l 257,17,-1
 1854 693 l 257,18,-1
 1854 894 l 257,19,-1
 122 894 l 257,16,-1
12 201 m 257,20,-1
 12 0 l 257,21,-1
 1098 0 l 257,22,-1
 1098 201 l 257,23,-1
 12 201 l 257,20,-1
EndSplineSet
EndChar

StartChar: uni0906
Encoding: 2310 2310 430
GlifName: uni0906
Width: 2048
VWidth: 0
GlyphClass: 2
Flags: W
AnchorPoint: "abvm_deva" 1634 1618 basechar 0
LayerCount: 2
Fore
SplineSet
1328 1548 m 257,0,-1
 1328 1348 l 257,1,-1
 2050 1348 l 257,2,-1
 2050 1548 l 257,3,-1
 1328 1548 l 257,0,-1
1344 1419 m 257,4,-1
 1344 0 l 257,5,-1
 1543 0 l 257,6,-1
 1543 1419 l 257,7,-1
 1344 1419 l 257,4,-1
25 1548 m 257,8,-1
 25 1348 l 257,9,-1
 897 1348 l 257,10,-1
 897 1548 l 257,11,-1
 25 1548 l 257,8,-1
723 1548 m 257,12,-1
 723 140 l 257,13,-1
 923 140 l 257,14,-1
 923 1548 l 257,15,-1
 723 1548 l 257,12,-1
109 894 m 257,16,-1
 109 693 l 257,17,-1
 1443 693 l 257,18,-1
 1443 894 l 257,19,-1
 109 894 l 257,16,-1
0 201 m 257,20,-1
 0 0 l 257,21,-1
 923 0 l 257,22,-1
 923 201 l 257,23,-1
 0 201 l 257,20,-1
1762 1420 m 257,24,-1
 1762 0 l 257,25,-1
 1961 0 l 257,26,-1
 1961 1420 l 257,27,-1
 1762 1420 l 257,24,-1
EndSplineSet
EndChar

StartChar: uni0907
Encoding: 2311 2311 431
GlifName: uni0907
Width: 2048
VWidth: 0
GlyphClass: 2
Flags: W
AnchorPoint: "abvm_deva" 1606 1600 basechar 0
LayerCount: 2
Fore
SplineSet
-6 1548 m 257,0,-1
 -6 1349 l 257,1,-1
 2054 1349 l 257,2,-1
 2054 1548 l 257,3,-1
 -6 1548 l 257,0,-1
1064 1537 m 257,4,-1
 1064 1110 l 257,5,-1
 1264 1110 l 257,6,-1
 1264 1537 l 257,7,-1
 1064 1537 l 257,4,-1
171 1205 m 257,8,-1
 171 1004 l 257,9,-1
 1264 1004 l 257,10,-1
 1264 1205 l 257,11,-1
 171 1205 l 257,8,-1
171 1181 m 257,12,-1
 171 738 l 257,13,-1
 341 738 l 257,14,-1
 341 1181 l 257,15,-1
 171 1181 l 257,12,-1
171 881 m 257,16,-1
 171 681 l 257,17,-1
 1278 681 l 257,18,-1
 1278 881 l 257,19,-1
 171 881 l 257,16,-1
1157 881 m 257,20,-1
 1157 262 l 257,21,-1
 1356 262 l 257,22,-1
 1356 881 l 257,23,-1
 1157 881 l 257,20,-1
149 298 m 257,24,-1
 149 97 l 257,25,-1
 1356 97 l 257,26,-1
 1356 298 l 257,27,-1
 149 298 l 257,24,-1
265 298 m 257,28,-1
 265 -244 l 257,29,-1
 465 -244 l 257,30,-1
 465 298 l 257,31,-1
 265 298 l 257,28,-1
EndSplineSet
EndChar

StartChar: uni0908
Encoding: 2312 2312 432
GlifName: uni0908
Width: 2048
VWidth: 0
GlyphClass: 2
Flags: W
AnchorPoint: "abvm_deva" 1685 1612 basechar 0
LayerCount: 2
Fore
SplineSet
-6 1556 m 257,0,-1
 -6 1355 l 257,1,-1
 2054 1355 l 257,2,-1
 2054 1556 l 257,3,-1
 -6 1556 l 257,0,-1
1064 1553 m 257,4,-1
 1064 1110 l 257,5,-1
 1264 1110 l 257,6,-1
 1264 1553 l 257,7,-1
 1064 1553 l 257,4,-1
171 1205 m 257,8,-1
 171 1004 l 257,9,-1
 1264 1004 l 257,10,-1
 1264 1205 l 257,11,-1
 171 1205 l 257,8,-1
171 1181 m 257,12,-1
 171 738 l 257,13,-1
 371 738 l 257,14,-1
 371 1181 l 257,15,-1
 171 1181 l 257,12,-1
171 881 m 257,16,-1
 171 681 l 257,17,-1
 1278 681 l 257,18,-1
 1278 881 l 257,19,-1
 171 881 l 257,16,-1
1175 881 m 257,20,-1
 1175 285 l 257,21,-1
 1356 285 l 257,22,-1
 1356 881 l 257,23,-1
 1175 881 l 257,20,-1
149 298 m 257,24,-1
 149 97 l 257,25,-1
 1359 97 l 257,26,-1
 1359 298 l 257,27,-1
 149 298 l 257,24,-1
265 298 m 257,28,-1
 265 -244 l 257,29,-1
 488 -244 l 257,30,-1
 488 298 l 257,31,-1
 265 298 l 257,28,-1
274 1770 m 257,32,-1
 1033 1423 l 257,33,-1
 1196 1537 l 257,34,-1
 436 1886 l 257,35,-1
 274 1770 l 257,32,-1
EndSplineSet
EndChar

StartChar: uni0909
Encoding: 2313 2313 433
GlifName: uni0909
Width: 2048
VWidth: 0
GlyphClass: 2
Flags: W
AnchorPoint: "abvm_deva" 1617 1575 basechar 0
LayerCount: 2
Fore
SplineSet
0 1548 m 257,0,-1
 0 1348 l 257,1,-1
 2050 1348 l 257,2,-1
 2050 1548 l 257,3,-1
 0 1548 l 257,0,-1
894 1530 m 257,4,-1
 894 1001 l 257,5,-1
 1093 1001 l 257,6,-1
 1093 1530 l 257,7,-1
 894 1530 l 257,4,-1
237 1044 m 257,8,-1
 237 845 l 257,9,-1
 1591 845 l 257,10,-1
 1591 1044 l 257,11,-1
 237 1044 l 257,8,-1
1392 994 m 257,12,-1
 1392 8 l 257,13,-1
 1592 8 l 257,14,-1
 1592 994 l 257,15,-1
 1392 994 l 257,12,-1
132 201 m 257,16,-1
 132 0 l 257,17,-1
 1581 0 l 257,18,-1
 1581 201 l 257,19,-1
 132 201 l 257,16,-1
132 363 m 257,20,-1
 132 36 l 257,21,-1
 332 36 l 257,22,-1
 332 363 l 257,23,-1
 132 363 l 257,20,-1
EndSplineSet
EndChar

StartChar: uni090A
Encoding: 2314 2314 434
GlifName: uni090A_
Width: 2048
VWidth: 0
GlyphClass: 2
Flags: W
AnchorPoint: "abvm_deva" 1606 1607 basechar 0
LayerCount: 2
Fore
SplineSet
-6 1548 m 257,0,-1
 -6 1347 l 257,1,-1
 2055 1347 l 257,2,-1
 2055 1548 l 257,3,-1
 -6 1548 l 257,0,-1
818 1530 m 257,4,-1
 818 1001 l 257,5,-1
 1016 1001 l 257,6,-1
 1016 1530 l 257,7,-1
 818 1530 l 257,4,-1
148 1044 m 257,8,-1
 148 845 l 257,9,-1
 1872 845 l 257,10,-1
 1872 1044 l 257,11,-1
 148 1044 l 257,8,-1
1184 994 m 257,12,-1
 1184 11 l 257,13,-1
 1384 11 l 257,14,-1
 1384 994 l 257,15,-1
 1184 994 l 257,12,-1
44 204 m 257,16,-1
 44 5 l 257,17,-1
 1382 5 l 257,18,-1
 1382 204 l 257,19,-1
 44 204 l 257,16,-1
44 366 m 257,20,-1
 44 39 l 257,21,-1
 244 39 l 257,22,-1
 244 366 l 257,23,-1
 44 366 l 257,20,-1
1672 946 m 257,24,-1
 1672 217 l 257,25,-1
 1872 217 l 257,26,-1
 1872 946 l 257,27,-1
 1672 946 l 257,24,-1
EndSplineSet
EndChar

StartChar: uni090B
Encoding: 2315 2315 435
GlifName: uni090B_
Width: 2048
VWidth: 0
GlyphClass: 2
Flags: W
AnchorPoint: "abvm_deva" 1685 1596 basechar 0
LayerCount: 2
Fore
SplineSet
0 1548 m 257,0,-1
 0 1347 l 257,1,-1
 2053 1347 l 257,2,-1
 2053 1548 l 257,3,-1
 0 1548 l 257,0,-1
1018 1537 m 257,4,-1
 1018 0 l 257,5,-1
 1217 0 l 257,6,-1
 1217 1537 l 257,7,-1
 1018 1537 l 257,4,-1
28 1044 m 257,8,-1
 28 845 l 257,9,-1
 332 845 l 257,10,-1
 332 1044 l 257,11,-1
 28 1044 l 257,8,-1
1017 496 m 257,12,-1
 124 329 l 257,13,-1
 206 136 l 257,14,-1
 1099 303 l 257,15,-1
 1017 496 l 257,12,-1
332 1044 m 257,16,-1
 332 846 l 257,17,-1
 1114 742 l 257,18,-1
 1114 944 l 257,19,-1
 332 1044 l 257,16,-1
1201 897 m 257,20,-1
 1201 699 l 257,21,-1
 2016 699 l 257,22,-1
 2016 897 l 257,23,-1
 1201 897 l 257,20,-1
1694 897 m 257,24,-1
 1694 262 l 257,25,-1
 1893 262 l 257,26,-1
 1893 897 l 257,27,-1
 1694 897 l 257,24,-1
1770 464 m 257,28,-1
 1770 264 l 257,29,-1
 2034 264 l 257,30,-1
 2034 464 l 257,31,-1
 1770 464 l 257,28,-1
EndSplineSet
EndChar

StartChar: uni090C
Encoding: 2316 2316 436
GlifName: uni090C_
Width: 2048
VWidth: 0
GlyphClass: 2
Flags: W
AnchorPoint: "abvm_deva" 618 1588 basechar 0
LayerCount: 2
Fore
SplineSet
-8 1548 m 257,0,-1
 -8 1348 l 257,1,-1
 2056 1348 l 257,2,-1
 2056 1548 l 257,3,-1
 -8 1548 l 257,0,-1
1065 1548 m 257,4,-1
 1065 689 l 257,5,-1
 1265 689 l 257,6,-1
 1265 1548 l 257,7,-1
 1065 1548 l 257,4,-1
1764 791 m 257,8,-1
 50 791 l 257,9,-1
 50 590 l 257,10,-1
 1764 590 l 257,11,-1
 1764 791 l 257,8,-1
50 777 m 257,12,-1
 50 252 l 257,13,-1
 251 252 l 257,14,-1
 251 777 l 257,15,-1
 50 777 l 257,12,-1
701 791 m 257,16,-1
 701 433 l 257,17,-1
 902 433 l 257,18,-1
 902 791 l 257,19,-1
 701 791 l 257,16,-1
1553 792 m 257,20,-1
 1553 73 l 257,21,-1
 1753 73 l 257,22,-1
 1753 792 l 257,23,-1
 1553 792 l 257,20,-1
1628 259 m 257,24,-1
 1628 71 l 257,25,-1
 2054 71 l 257,26,-1
 2054 259 l 257,27,-1
 1628 259 l 257,24,-1
EndSplineSet
EndChar

StartChar: uni090D
Encoding: 2317 2317 437
GlifName: uni090D_
Width: 2048
VWidth: 0
GlyphClass: 2
Flags: W
AnchorPoint: "abvm_deva" 474 2104 basechar 0
LayerCount: 2
Fore
SplineSet
-5 1548 m 257,0,-1
 -5 1348 l 257,1,-1
 2049 1348 l 257,2,-1
 2049 1548 l 257,3,-1
 -5 1548 l 257,0,-1
1748 1548 m 257,4,-1
 1748 779 l 257,5,-1
 1947 779 l 257,6,-1
 1947 1548 l 257,7,-1
 1748 1548 l 257,4,-1
1189 839 m 257,8,-1
 1189 639 l 257,9,-1
 1947 639 l 257,10,-1
 1947 839 l 257,11,-1
 1189 839 l 257,8,-1
142 1542 m 257,12,-1
 142 338 l 257,13,-1
 341 338 l 257,14,-1
 341 1542 l 257,15,-1
 142 1542 l 257,12,-1
142 496 m 257,16,-1
 142 297 l 257,17,-1
 1124 297 l 257,18,-1
 1124 496 l 257,19,-1
 142 496 l 257,16,-1
925 358 m 257,20,-1
 925 -98 l 257,21,-1
 1124 -98 l 257,22,-1
 1124 358 l 257,23,-1
 925 358 l 257,20,-1
387 101 m 257,24,-1
 387 -98 l 257,25,-1
 1122 -98 l 257,26,-1
 1122 101 l 257,27,-1
 387 101 l 257,24,-1
157 2124 m 257,28,-1
 157 1639 l 257,29,-1
 356 1639 l 257,30,-1
 356 2124 l 257,31,-1
 157 2124 l 257,28,-1
203 1840 m 257,32,-1
 203 1641 l 257,33,-1
 1816 1641 l 257,34,-1
 1816 1840 l 257,35,-1
 203 1840 l 257,32,-1
1641 2132 m 257,36,-1
 1641 1641 l 257,37,-1
 1840 1641 l 257,38,-1
 1840 2132 l 257,39,-1
 1641 2132 l 257,36,-1
EndSplineSet
EndChar

StartChar: uni090E
Encoding: 2318 2318 438
GlifName: uni090E_
Width: 2048
VWidth: 0
GlyphClass: 2
Flags: W
AnchorPoint: "abvm_deva" 2056 1660 basechar 0
LayerCount: 2
Fore
SplineSet
-5 1548 m 257,0,-1
 -5 1348 l 257,1,-1
 2049 1348 l 257,2,-1
 2049 1548 l 257,3,-1
 -5 1548 l 257,0,-1
1748 1548 m 257,4,-1
 1748 645 l 257,5,-1
 1947 645 l 257,6,-1
 1947 1548 l 257,7,-1
 1748 1548 l 257,4,-1
1221 845 m 257,8,-1
 1221 645 l 257,9,-1
 1947 645 l 257,10,-1
 1947 845 l 257,11,-1
 1221 845 l 257,8,-1
142 1542 m 257,12,-1
 142 338 l 257,13,-1
 341 338 l 257,14,-1
 341 1542 l 257,15,-1
 142 1542 l 257,12,-1
142 358 m 257,16,-1
 142 159 l 257,17,-1
 1117 159 l 257,18,-1
 1117 358 l 257,19,-1
 142 358 l 257,16,-1
923 358 m 257,20,-1
 923 -98 l 257,21,-1
 1124 -98 l 257,22,-1
 1124 358 l 257,23,-1
 923 358 l 257,20,-1
387 -38 m 257,24,-1
 387 -238 l 257,25,-1
 1122 -238 l 257,26,-1
 1122 -38 l 257,27,-1
 387 -38 l 257,24,-1
270 2062 m 257,28,-1
 270 1823 l 257,29,-1
 470 1823 l 257,30,-1
 470 2062 l 257,31,-1
 270 2062 l 257,28,-1
269 1868 m 257,32,-1
 269 1667 l 257,33,-1
 1971 1667 l 257,34,-1
 1971 1868 l 257,35,-1
 269 1868 l 257,32,-1
1769 1858 m 257,36,-1
 1769 1537 l 257,37,-1
 1971 1537 l 257,38,-1
 1971 1858 l 257,39,-1
 1769 1858 l 257,36,-1
EndSplineSet
EndChar

StartChar: uni090F
Encoding: 2319 2319 439
GlifName: uni090F_
Width: 2048
VWidth: 0
GlyphClass: 2
Flags: W
AnchorPoint: "abvm_deva" 522 1630 basechar 0
LayerCount: 2
Fore
SplineSet
10 1548 m 257,0,-1
 10 1348 l 257,1,-1
 2038 1348 l 257,2,-1
 2038 1548 l 257,3,-1
 10 1548 l 257,0,-1
1736 1548 m 257,4,-1
 1736 782 l 257,5,-1
 1936 782 l 257,6,-1
 1936 1548 l 257,7,-1
 1736 1548 l 257,4,-1
1142 979 m 257,8,-1
 1142 779 l 257,9,-1
 1936 779 l 257,10,-1
 1936 979 l 257,11,-1
 1142 979 l 257,8,-1
150 1542 m 257,12,-1
 150 338 l 257,13,-1
 350 338 l 257,14,-1
 350 1542 l 257,15,-1
 150 1542 l 257,12,-1
150 497 m 257,16,-1
 150 297 l 257,17,-1
 1250 297 l 257,18,-1
 1250 497 l 257,19,-1
 150 497 l 257,16,-1
1056 473 m 257,20,-1
 1056 -98 l 257,21,-1
 1256 -98 l 257,22,-1
 1256 473 l 257,23,-1
 1056 473 l 257,20,-1
394 102 m 257,24,-1
 394 -98 l 257,25,-1
 1254 -98 l 257,26,-1
 1254 102 l 257,27,-1
 394 102 l 257,24,-1
EndSplineSet
EndChar

StartChar: uni0910
Encoding: 2320 2320 440
GlifName: uni0910
Width: 2048
VWidth: 0
GlyphClass: 2
Flags: W
AnchorPoint: "abvm_deva" 1989 1619 basechar 0
LayerCount: 2
Fore
SplineSet
0 1548 m 257,0,-1
 0 1348 l 257,1,-1
 2050 1348 l 257,2,-1
 2050 1548 l 257,3,-1
 0 1548 l 257,0,-1
1748 1548 m 257,4,-1
 1748 779 l 257,5,-1
 1948 779 l 257,6,-1
 1948 1548 l 257,7,-1
 1748 1548 l 257,4,-1
1143 979 m 257,8,-1
 1143 779 l 257,9,-1
 1948 779 l 257,10,-1
 1948 979 l 257,11,-1
 1143 979 l 257,8,-1
138 1542 m 257,12,-1
 138 338 l 257,13,-1
 338 338 l 257,14,-1
 338 1542 l 257,15,-1
 138 1542 l 257,12,-1
138 497 m 257,16,-1
 138 297 l 257,17,-1
 1250 297 l 257,18,-1
 1250 497 l 257,19,-1
 138 497 l 257,16,-1
1050 473 m 257,20,-1
 1050 -98 l 257,21,-1
 1250 -98 l 257,22,-1
 1250 473 l 257,23,-1
 1050 473 l 257,20,-1
383 102 m 257,24,-1
 383 -98 l 257,25,-1
 1255 -98 l 257,26,-1
 1255 102 l 257,27,-1
 383 102 l 257,24,-1
954 1883 m 257,28,-1
 1782 1433 l 257,29,-1
 1946 1548 l 257,30,-1
 1118 1998 l 257,31,-1
 954 1883 l 257,28,-1
EndSplineSet
EndChar

StartChar: uni0911
Encoding: 2321 2321 441
GlifName: uni0911
Width: 2048
VWidth: 0
GlyphClass: 2
Flags: W
AnchorPoint: "abvm_deva" 2120 1722 basechar 0
LayerCount: 2
Fore
SplineSet
1331 1548 m 257,0,-1
 1331 1348 l 257,1,-1
 2048 1348 l 257,2,-1
 2048 1548 l 257,3,-1
 1331 1548 l 257,0,-1
1344 1419 m 257,4,-1
 1344 0 l 257,5,-1
 1544 0 l 257,6,-1
 1544 1419 l 257,7,-1
 1344 1419 l 257,4,-1
26 1548 m 257,8,-1
 26 1348 l 257,9,-1
 898 1348 l 257,10,-1
 898 1548 l 257,11,-1
 26 1548 l 257,8,-1
724 1548 m 257,12,-1
 724 140 l 257,13,-1
 924 140 l 257,14,-1
 924 1548 l 257,15,-1
 724 1548 l 257,12,-1
110 894 m 257,16,-1
 110 693 l 257,17,-1
 1444 693 l 257,18,-1
 1444 894 l 257,19,-1
 110 894 l 257,16,-1
0 201 m 257,20,-1
 0 0 l 257,21,-1
 924 0 l 257,22,-1
 924 201 l 257,23,-1
 0 201 l 257,20,-1
1836 1420 m 257,24,-1
 1836 0 l 257,25,-1
 2034 0 l 257,26,-1
 2034 1420 l 257,27,-1
 1836 1420 l 257,24,-1
1326 2085 m 257,28,-1
 1326 1639 l 257,29,-1
 1526 1639 l 257,30,-1
 1526 2085 l 257,31,-1
 1326 2085 l 257,28,-1
1332 1842 m 257,32,-1
 1332 1641 l 257,33,-1
 2048 1641 l 257,34,-1
 2048 1842 l 257,35,-1
 1332 1842 l 257,32,-1
1848 2083 m 257,36,-1
 1848 1641 l 257,37,-1
 2048 1641 l 257,38,-1
 2048 2083 l 257,39,-1
 1848 2083 l 257,36,-1
EndSplineSet
EndChar

StartChar: uni0912
Encoding: 2322 2322 442
GlifName: uni0912
Width: 2048
VWidth: 0
GlyphClass: 2
Flags: W
AnchorPoint: "abvm_deva" 2062 1610 basechar 0
LayerCount: 2
Fore
SplineSet
1328 1548 m 257,0,-1
 1328 1348 l 257,1,-1
 2048 1348 l 257,2,-1
 2048 1548 l 257,3,-1
 1328 1548 l 257,0,-1
1349 1419 m 257,4,-1
 1349 0 l 257,5,-1
 1548 0 l 257,6,-1
 1548 1419 l 257,7,-1
 1349 1419 l 257,4,-1
25 1548 m 257,8,-1
 25 1348 l 257,9,-1
 897 1348 l 257,10,-1
 897 1548 l 257,11,-1
 25 1548 l 257,8,-1
723 1548 m 257,12,-1
 723 140 l 257,13,-1
 923 140 l 257,14,-1
 923 1548 l 257,15,-1
 723 1548 l 257,12,-1
109 894 m 257,16,-1
 109 693 l 257,17,-1
 1443 693 l 257,18,-1
 1443 894 l 257,19,-1
 109 894 l 257,16,-1
0 201 m 257,20,-1
 0 0 l 257,21,-1
 923 0 l 257,22,-1
 923 201 l 257,23,-1
 0 201 l 257,20,-1
1843 1420 m 257,24,-1
 1843 0 l 257,25,-1
 2042 0 l 257,26,-1
 2042 1420 l 257,27,-1
 1843 1420 l 257,24,-1
1066 2155 m 257,28,-1
 1066 1836 l 257,29,-1
 1264 1836 l 257,30,-1
 1264 2155 l 257,31,-1
 1066 2155 l 257,28,-1
1065 1967 m 257,32,-1
 1065 1768 l 257,33,-1
 1980 1768 l 257,34,-1
 1980 1967 l 257,35,-1
 1065 1967 l 257,32,-1
1781 1956 m 257,36,-1
 1781 1516 l 257,37,-1
 1982 1516 l 257,38,-1
 1982 1956 l 257,39,-1
 1781 1956 l 257,36,-1
EndSplineSet
EndChar

StartChar: uni0913
Encoding: 2323 2323 443
GlifName: uni0913
Width: 2048
VWidth: 0
GlyphClass: 2
Flags: W
AnchorPoint: "abvm_deva" 2051 1571 basechar 0
LayerCount: 2
Fore
SplineSet
1344 1548 m 257,0,-1
 1344 1348 l 257,1,-1
 2032 1348 l 257,2,-1
 2032 1548 l 257,3,-1
 1344 1548 l 257,0,-1
1360 1419 m 257,4,-1
 1360 0 l 257,5,-1
 1559 0 l 257,6,-1
 1559 1419 l 257,7,-1
 1360 1419 l 257,4,-1
41 1548 m 257,8,-1
 41 1348 l 257,9,-1
 901 1348 l 257,10,-1
 901 1548 l 257,11,-1
 41 1548 l 257,8,-1
727 1548 m 257,12,-1
 727 140 l 257,13,-1
 927 140 l 257,14,-1
 927 1548 l 257,15,-1
 727 1548 l 257,12,-1
125 894 m 257,16,-1
 125 693 l 257,17,-1
 1459 693 l 257,18,-1
 1459 894 l 257,19,-1
 125 894 l 257,16,-1
16 201 m 257,20,-1
 16 0 l 257,21,-1
 927 0 l 257,22,-1
 927 201 l 257,23,-1
 16 201 l 257,20,-1
1827 1423 m 257,24,-1
 1827 5 l 257,25,-1
 2026 5 l 257,26,-1
 2026 1423 l 257,27,-1
 1827 1423 l 257,24,-1
1455 1768 m 257,28,-1
 1816 1458 l 257,29,-1
 1994 1548 l 257,30,-1
 1632 1861 l 257,31,-1
 1455 1768 l 257,28,-1
EndSplineSet
EndChar

StartChar: uni0914
Encoding: 2324 2324 444
GlifName: uni0914
Width: 2048
VWidth: 0
GlyphClass: 2
Flags: W
AnchorPoint: "abvm_deva" 2080 1585 basechar 0
LayerCount: 2
Fore
SplineSet
1344 1548 m 257,0,-1
 1344 1343 l 257,1,-1
 2032 1343 l 257,2,-1
 2032 1548 l 257,3,-1
 1344 1548 l 257,0,-1
1360 1419 m 257,4,-1
 1360 0 l 257,5,-1
 1559 0 l 257,6,-1
 1559 1419 l 257,7,-1
 1360 1419 l 257,4,-1
41 1548 m 257,8,-1
 41 1348 l 257,9,-1
 901 1348 l 257,10,-1
 901 1548 l 257,11,-1
 41 1548 l 257,8,-1
727 1548 m 257,12,-1
 727 140 l 257,13,-1
 927 140 l 257,14,-1
 927 1548 l 257,15,-1
 727 1548 l 257,12,-1
125 894 m 257,16,-1
 125 693 l 257,17,-1
 1459 693 l 257,18,-1
 1459 894 l 257,19,-1
 125 894 l 257,16,-1
16 201 m 257,20,-1
 16 0 l 257,21,-1
 927 0 l 257,22,-1
 927 201 l 257,23,-1
 16 201 l 257,20,-1
1827 1420 m 257,24,-1
 1827 0 l 257,25,-1
 2026 0 l 257,26,-1
 2026 1420 l 257,27,-1
 1827 1420 l 257,24,-1
1155 1750 m 257,28,-1
 1435 1523 l 257,29,-1
 1766 1523 l 257,30,-1
 1291 1903 l 257,31,-1
 1155 1750 l 257,28,-1
1744 1949 m 257,32,-1
 1807 1522 l 257,33,-1
 2019 1548 l 257,34,-1
 1941 1988 l 257,35,-1
 1744 1949 l 257,32,-1
EndSplineSet
EndChar

StartChar: uni0915
Encoding: 2325 2325 445
GlifName: uni0915
Width: 2048
VWidth: 0
GlyphClass: 2
Flags: W
AnchorPoint: "abvm_deva" 1199 1603 basechar 0
AnchorPoint: "blwm_deva" 1196 -64 basechar 0
LayerCount: 2
Fore
SplineSet
5 1548 m 257,0,-1
 5 1343 l 257,1,-1
 2043 1343 l 257,2,-1
 2043 1548 l 257,3,-1
 5 1548 l 257,0,-1
1108 1516 m 257,4,-1
 1108 10 l 257,5,-1
 1310 10 l 257,6,-1
 1310 1516 l 257,7,-1
 1108 1516 l 257,4,-1
137 1029 m 257,8,-1
 137 829 l 257,9,-1
 1024 829 l 257,10,-1
 1024 1029 l 257,11,-1
 137 1029 l 257,8,-1
137 1029 m 257,12,-1
 137 408 l 257,13,-1
 303 408 l 257,14,-1
 303 1029 l 257,15,-1
 137 1029 l 257,12,-1
155 604 m 257,16,-1
 155 401 l 257,17,-1
 1162 401 l 257,18,-1
 1162 604 l 257,19,-1
 155 604 l 257,16,-1
1214 947 m 257,20,-1
 1214 746 l 257,21,-1
 1950 746 l 257,22,-1
 1950 947 l 257,23,-1
 1214 947 l 257,20,-1
1751 879 m 257,24,-1
 1751 587 l 257,25,-1
 1950 587 l 257,26,-1
 1950 879 l 257,27,-1
 1751 879 l 257,24,-1
EndSplineSet
EndChar

StartChar: uni0915_uni0930_uni094D.vatu
Encoding: 65536 -1 446
GlifName: uni0915_uni0930_uni094D_.vatu
Width: 2048
VWidth: 0
GlyphClass: 3
Flags: W
LayerCount: 2
Fore
SplineSet
5 1548 m 257,0,-1
 5 1343 l 257,1,-1
 2043 1343 l 257,2,-1
 2043 1548 l 257,3,-1
 5 1548 l 257,0,-1
1108 1516 m 257,4,-1
 1108 10 l 257,5,-1
 1310 10 l 257,6,-1
 1310 1516 l 257,7,-1
 1108 1516 l 257,4,-1
137 1029 m 257,8,-1
 137 829 l 257,9,-1
 1015 829 l 257,10,-1
 1015 1029 l 257,11,-1
 137 1029 l 257,8,-1
137 989 m 257,12,-1
 137 443 l 257,13,-1
 303 443 l 257,14,-1
 303 989 l 257,15,-1
 137 989 l 257,12,-1
132 604 m 257,16,-1
 132 401 l 257,17,-1
 1162 401 l 257,18,-1
 1162 604 l 257,19,-1
 132 604 l 257,16,-1
1214 947 m 257,20,-1
 1214 746 l 257,21,-1
 1950 746 l 257,22,-1
 1950 947 l 257,23,-1
 1214 947 l 257,20,-1
1751 879 m 257,24,-1
 1751 587 l 257,25,-1
 1950 587 l 257,26,-1
 1950 879 l 257,27,-1
 1751 879 l 257,24,-1
52 0 m 257,28,-1
 476 0 l 257,29,-1
 1274 134 l 257,30,-1
 1274 335 l 257,31,-1
 52 0 l 257,28,-1
EndSplineSet
Ligature2: "rkrfRakarVariantsinDevanagari2lookup0 subtable" uni0915 uni094D uni0930
EndChar

StartChar: uni0915_uni094D.half
Encoding: 65537 -1 447
GlifName: uni0915_uni094D_.half
Width: 2048
VWidth: 0
GlyphClass: 2
Flags: W
LayerCount: 2
Fore
SplineSet
5 1548 m 257,0,-1
 5 1343 l 257,1,-1
 2043 1343 l 257,2,-1
 2043 1548 l 257,3,-1
 5 1548 l 257,0,-1
1108 1516 m 257,4,-1
 1108 10 l 257,5,-1
 1310 10 l 257,6,-1
 1310 1516 l 257,7,-1
 1108 1516 l 257,4,-1
137 1029 m 257,8,-1
 137 829 l 257,9,-1
 1014 829 l 257,10,-1
 1014 1029 l 257,11,-1
 137 1029 l 257,8,-1
137 989 m 257,12,-1
 137 443 l 257,13,-1
 303 443 l 257,14,-1
 303 989 l 257,15,-1
 137 989 l 257,12,-1
155 604 m 257,16,-1
 155 401 l 257,17,-1
 1162 401 l 257,18,-1
 1162 604 l 257,19,-1
 155 604 l 257,16,-1
1202 947 m 257,20,-1
 1202 746 l 257,21,-1
 2090 746 l 257,22,-1
 2090 947 l 257,23,-1
 1202 947 l 257,20,-1
EndSplineSet
Ligature2: "halfHalfFormsinDevanagari2lookup0 subtable" uni0915 uni094D
EndChar

StartChar: uni0915_uni094D.haln
Encoding: 65538 -1 448
GlifName: uni0915_uni094D_.haln
Width: 2048
VWidth: 0
GlyphClass: 3
Flags: W
LayerCount: 2
Fore
SplineSet
5 1548 m 257,0,-1
 5 1343 l 257,1,-1
 2043 1343 l 257,2,-1
 2043 1548 l 257,3,-1
 5 1548 l 257,0,-1
1108 1516 m 257,4,-1
 1108 10 l 257,5,-1
 1310 10 l 257,6,-1
 1310 1516 l 257,7,-1
 1108 1516 l 257,4,-1
137 1029 m 257,8,-1
 137 829 l 257,9,-1
 1024 829 l 257,10,-1
 1024 1029 l 257,11,-1
 137 1029 l 257,8,-1
137 1029 m 257,12,-1
 137 408 l 257,13,-1
 303 408 l 257,14,-1
 303 1029 l 257,15,-1
 137 1029 l 257,12,-1
155 604 m 257,16,-1
 155 401 l 257,17,-1
 1162 401 l 257,18,-1
 1162 604 l 257,19,-1
 155 604 l 257,16,-1
1214 947 m 257,20,-1
 1214 746 l 257,21,-1
 1950 746 l 257,22,-1
 1950 947 l 257,23,-1
 1214 947 l 257,20,-1
1751 879 m 257,24,-1
 1751 587 l 257,25,-1
 1950 587 l 257,26,-1
 1950 879 l 257,27,-1
 1751 879 l 257,24,-1
971 -22 m 257,28,-1
 971 -218 l 257,29,-1
 1328 -218 l 257,30,-1
 1328 -22 l 257,31,-1
 971 -22 l 257,28,-1
1187 -183 m 257,32,-1
 1657 -588 l 257,33,-1
 1801 -425 l 257,34,-1
 1330 -21 l 257,35,-1
 1187 -183 l 257,32,-1
EndSplineSet
Ligature2: "halnHalantFormsinDevanagari2lookup0 subtable" uni0915 uni094D
EndChar

StartChar: uni0915_uni094D_uni0937.akhn
Encoding: 65539 -1 449
GlifName: uni0915_uni094D__uni0937.akhn
Width: 2048
VWidth: 0
GlyphClass: 3
Flags: W
LayerCount: 2
Fore
SplineSet
1689 1548 m 257,0,-1
 1689 1351 l 257,1,-1
 2048 1351 l 257,2,-1
 2048 1548 l 257,3,-1
 1689 1548 l 257,0,-1
1746 1511 m 257,4,-1
 1746 0 l 257,5,-1
 1945 0 l 257,6,-1
 1945 1511 l 257,7,-1
 1746 1511 l 257,4,-1
48 1078 m 257,8,-1
 48 878 l 257,9,-1
 1945 878 l 257,10,-1
 1945 1078 l 257,11,-1
 48 1078 l 257,8,-1
47 1023 m 257,12,-1
 248 1023 l 257,13,-1
 248 1422 l 257,14,-1
 47 1422 l 257,15,-1
 47 1023 l 257,12,-1
48 1435 m 257,16,-1
 48 1235 l 257,17,-1
 1079 1235 l 257,18,-1
 1079 1435 l 257,19,-1
 48 1435 l 257,16,-1
880 1422 m 257,20,-1
 880 882 l 257,21,-1
 1078 882 l 257,22,-1
 1078 1422 l 257,23,-1
 880 1422 l 257,20,-1
158 635 m 257,24,-1
 355 635 l 257,25,-1
 1077 880 l 257,26,-1
 879 880 l 257,27,-1
 158 635 l 257,24,-1
158 635 m 257,28,-1
 158 200 l 257,29,-1
 357 200 l 257,30,-1
 357 635 l 257,31,-1
 158 635 l 257,28,-1
158 367 m 257,32,-1
 158 166 l 257,33,-1
 1906 166 l 257,34,-1
 1906 367 l 257,35,-1
 158 367 l 257,32,-1
EndSplineSet
Ligature2: "akhnAkhandinDevanagari2lookup0 subtable" uni0915 uni094D uni0937
EndChar

StartChar: uni0915_uni094D_uni0937.half
Encoding: 65540 -1 450
GlifName: uni0915_uni094D__uni0937.half
Width: 2048
VWidth: 0
GlyphClass: 3
Flags: W
LayerCount: 2
Fore
SplineSet
1689 1548 m 257,0,-1
 1689 1351 l 257,1,-1
 2048 1351 l 257,2,-1
 2048 1548 l 257,3,-1
 1689 1548 l 257,0,-1
48 1078 m 257,4,-1
 48 878 l 257,5,-1
 2065 878 l 257,6,-1
 2065 1078 l 257,7,-1
 48 1078 l 257,4,-1
47 1023 m 257,8,-1
 248 1023 l 257,9,-1
 248 1422 l 257,10,-1
 47 1422 l 257,11,-1
 47 1023 l 257,8,-1
48 1435 m 257,12,-1
 48 1235 l 257,13,-1
 1079 1235 l 257,14,-1
 1079 1435 l 257,15,-1
 48 1435 l 257,12,-1
880 1422 m 257,16,-1
 880 882 l 257,17,-1
 1078 882 l 257,18,-1
 1078 1422 l 257,19,-1
 880 1422 l 257,16,-1
158 635 m 257,20,-1
 355 635 l 257,21,-1
 1077 880 l 257,22,-1
 879 880 l 257,23,-1
 158 635 l 257,20,-1
158 635 m 257,24,-1
 158 200 l 257,25,-1
 357 200 l 257,26,-1
 357 635 l 257,27,-1
 158 635 l 257,24,-1
158 367 m 257,28,-1
 158 166 l 257,29,-1
 2026 166 l 257,30,-1
 2026 367 l 257,31,-1
 158 367 l 257,28,-1
EndSplineSet
Ligature2: "halfHalfFormsinDevanagari2lookup0 subtable" uni0915_uni094D_uni0937.akhn uni094D
EndChar

StartChar: uni0915_uni094D_uni0937_uni094D
Encoding: 65541 -1 451
GlifName: uni0915_uni094D__uni0937_uni094D_
Width: 2048
VWidth: 0
GlyphClass: 2
Flags: W
LayerCount: 2
Fore
SplineSet
1689 1548 m 257,0,-1
 1689 1351 l 257,1,-1
 2048 1351 l 257,2,-1
 2048 1548 l 257,3,-1
 1689 1548 l 257,0,-1
1746 1511 m 257,4,-1
 1746 0 l 257,5,-1
 1945 0 l 257,6,-1
 1945 1511 l 257,7,-1
 1746 1511 l 257,4,-1
48 1078 m 257,8,-1
 48 878 l 257,9,-1
 1945 878 l 257,10,-1
 1945 1078 l 257,11,-1
 48 1078 l 257,8,-1
47 1023 m 257,12,-1
 248 1023 l 257,13,-1
 248 1422 l 257,14,-1
 47 1422 l 257,15,-1
 47 1023 l 257,12,-1
48 1435 m 257,16,-1
 48 1235 l 257,17,-1
 1079 1235 l 257,18,-1
 1079 1435 l 257,19,-1
 48 1435 l 257,16,-1
880 1422 m 257,20,-1
 880 882 l 257,21,-1
 1078 882 l 257,22,-1
 1078 1422 l 257,23,-1
 880 1422 l 257,20,-1
158 635 m 257,24,-1
 355 635 l 257,25,-1
 1077 880 l 257,26,-1
 879 880 l 257,27,-1
 158 635 l 257,24,-1
158 635 m 257,28,-1
 158 200 l 257,29,-1
 357 200 l 257,30,-1
 357 635 l 257,31,-1
 158 635 l 257,28,-1
158 367 m 257,32,-1
 158 166 l 257,33,-1
 1906 166 l 257,34,-1
 1906 367 l 257,35,-1
 158 367 l 257,32,-1
1471 -22 m 257,36,-1
 1471 -218 l 257,37,-1
 1828 -218 l 257,38,-1
 1828 -22 l 257,39,-1
 1471 -22 l 257,36,-1
1687 -183 m 257,40,-1
 2157 -588 l 257,41,-1
 2301 -425 l 257,42,-1
 1830 -21 l 257,43,-1
 1687 -183 l 257,40,-1
EndSplineSet
Ligature2: "halnHalantFormsinDevanagari2lookup0 subtable" uni0915_uni094D_uni0937.akhn uni094D
EndChar

StartChar: uni0916
Encoding: 2326 2326 452
GlifName: uni0916
Width: 2048
VWidth: 0
GlyphClass: 2
Flags: W
AnchorPoint: "abvm_deva" 1783 1635 basechar 0
AnchorPoint: "blwm_deva" 1812 -64 basechar 0
LayerCount: 2
Fore
SplineSet
0 1548 m 257,0,-1
 0 1349 l 257,1,-1
 2052 1349 l 257,2,-1
 2052 1548 l 257,3,-1
 0 1548 l 257,0,-1
1720 1514 m 257,4,-1
 1720 0 l 257,5,-1
 1920 0 l 257,6,-1
 1920 1514 l 257,7,-1
 1720 1514 l 257,4,-1
1033 979 m 257,8,-1
 1033 779 l 257,9,-1
 1461 779 l 257,10,-1
 1461 979 l 257,11,-1
 1033 979 l 257,8,-1
1003 979 m 257,12,-1
 1003 457 l 257,13,-1
 1203 457 l 257,14,-1
 1203 979 l 257,15,-1
 1003 979 l 257,12,-1
1003 568 m 257,16,-1
 1003 368 l 257,17,-1
 1772 368 l 257,18,-1
 1772 568 l 257,19,-1
 1003 568 l 257,16,-1
318 1441 m 257,20,-1
 318 120 l 257,21,-1
 518 120 l 257,22,-1
 518 1441 l 257,23,-1
 318 1441 l 257,20,-1
13 734 m 257,24,-1
 13 534 l 257,25,-1
 517 534 l 257,26,-1
 517 734 l 257,27,-1
 13 734 l 257,24,-1
317 270 m 257,28,-1
 317 70 l 257,29,-1
 1857 70 l 257,30,-1
 1857 270 l 257,31,-1
 317 270 l 257,28,-1
EndSplineSet
EndChar

StartChar: uni0916_uni0930_uni094D.vatu
Encoding: 65542 -1 453
GlifName: uni0916_uni0930_uni094D_.vatu
Width: 2048
VWidth: 0
GlyphClass: 3
Flags: W
LayerCount: 2
Fore
SplineSet
52 0 m 257,0,-1
 476 0 l 257,1,-1
 1778 215 l 257,2,-1
 1778 416 l 257,3,-1
 52 0 l 257,0,-1
0 1548 m 257,4,-1
 0 1349 l 257,5,-1
 2052 1349 l 257,6,-1
 2052 1548 l 257,7,-1
 0 1548 l 257,4,-1
1720 1514 m 257,8,-1
 1720 0 l 257,9,-1
 1920 0 l 257,10,-1
 1920 1514 l 257,11,-1
 1720 1514 l 257,8,-1
1033 1279 m 257,12,-1
 1033 1079 l 257,13,-1
 1461 1079 l 257,14,-1
 1461 1279 l 257,15,-1
 1033 1279 l 257,12,-1
1003 1279 m 257,16,-1
 1003 757 l 257,17,-1
 1203 757 l 257,18,-1
 1203 1279 l 257,19,-1
 1003 1279 l 257,16,-1
1003 868 m 257,20,-1
 1003 668 l 257,21,-1
 1772 668 l 257,22,-1
 1772 868 l 257,23,-1
 1003 868 l 257,20,-1
318 1441 m 257,24,-1
 318 420 l 257,25,-1
 518 420 l 257,26,-1
 518 1441 l 257,27,-1
 318 1441 l 257,24,-1
13 1034 m 257,28,-1
 13 834 l 257,29,-1
 517 834 l 257,30,-1
 517 1034 l 257,31,-1
 13 1034 l 257,28,-1
317 570 m 257,32,-1
 317 370 l 257,33,-1
 1857 370 l 257,34,-1
 1857 570 l 257,35,-1
 317 570 l 257,32,-1
EndSplineSet
Ligature2: "rkrfRakarVariantsinDevanagari2lookup0 subtable" uni0916 uni094D uni0930
EndChar

StartChar: uni0916_uni094D.half
Encoding: 65543 -1 454
GlifName: uni0916_uni094D_.half
Width: 2048
VWidth: 0
GlyphClass: 2
Flags: W
LayerCount: 2
Fore
SplineSet
0 1548 m 257,0,-1
 0 1349 l 257,1,-1
 2052 1349 l 257,2,-1
 2052 1548 l 257,3,-1
 0 1548 l 257,0,-1
1033 979 m 257,4,-1
 1033 779 l 257,5,-1
 1461 779 l 257,6,-1
 1461 979 l 257,7,-1
 1033 979 l 257,4,-1
1003 979 m 257,8,-1
 1003 457 l 257,9,-1
 1203 457 l 257,10,-1
 1203 979 l 257,11,-1
 1003 979 l 257,8,-1
1003 568 m 257,12,-1
 1003 368 l 257,13,-1
 1972 368 l 257,14,-1
 1972 568 l 257,15,-1
 1003 568 l 257,12,-1
318 1441 m 257,16,-1
 318 120 l 257,17,-1
 518 120 l 257,18,-1
 518 1441 l 257,19,-1
 318 1441 l 257,16,-1
13 734 m 257,20,-1
 13 534 l 257,21,-1
 517 534 l 257,22,-1
 517 734 l 257,23,-1
 13 734 l 257,20,-1
317 270 m 257,24,-1
 317 70 l 257,25,-1
 2057 70 l 257,26,-1
 2057 270 l 257,27,-1
 317 270 l 257,24,-1
EndSplineSet
Ligature2: "halfHalfFormsinDevanagari2lookup0 subtable" uni0916 uni094D
EndChar

StartChar: uni0916_uni094D.haln
Encoding: 65544 -1 455
GlifName: uni0916_uni094D_.haln
Width: 2048
VWidth: 0
GlyphClass: 3
Flags: W
LayerCount: 2
Fore
SplineSet
0 1548 m 257,0,-1
 0 1349 l 257,1,-1
 2052 1349 l 257,2,-1
 2052 1548 l 257,3,-1
 0 1548 l 257,0,-1
1720 1514 m 257,4,-1
 1720 0 l 257,5,-1
 1920 0 l 257,6,-1
 1920 1514 l 257,7,-1
 1720 1514 l 257,4,-1
1033 979 m 257,8,-1
 1033 779 l 257,9,-1
 1461 779 l 257,10,-1
 1461 979 l 257,11,-1
 1033 979 l 257,8,-1
1003 979 m 257,12,-1
 1003 457 l 257,13,-1
 1203 457 l 257,14,-1
 1203 979 l 257,15,-1
 1003 979 l 257,12,-1
1003 568 m 257,16,-1
 1003 368 l 257,17,-1
 1772 368 l 257,18,-1
 1772 568 l 257,19,-1
 1003 568 l 257,16,-1
318 1441 m 257,20,-1
 318 120 l 257,21,-1
 518 120 l 257,22,-1
 518 1441 l 257,23,-1
 318 1441 l 257,20,-1
13 734 m 257,24,-1
 13 534 l 257,25,-1
 517 534 l 257,26,-1
 517 734 l 257,27,-1
 13 734 l 257,24,-1
317 270 m 257,28,-1
 317 70 l 257,29,-1
 1857 70 l 257,30,-1
 1857 270 l 257,31,-1
 317 270 l 257,28,-1
1495 -22 m 257,32,-1
 1495 -218 l 257,33,-1
 1852 -218 l 257,34,-1
 1852 -22 l 257,35,-1
 1495 -22 l 257,32,-1
1711 -183 m 257,36,-1
 2181 -588 l 257,37,-1
 2325 -425 l 257,38,-1
 1854 -21 l 257,39,-1
 1711 -183 l 257,36,-1
EndSplineSet
Ligature2: "halnHalantFormsinDevanagari2lookup0 subtable" uni0916 uni094D
EndChar

StartChar: uni0917
Encoding: 2327 2327 456
GlifName: uni0917
Width: 2048
VWidth: 0
GlyphClass: 2
Flags: W
AnchorPoint: "abvm_deva" 1783 1635 basechar 0
AnchorPoint: "blwm_deva" 1801 -68 basechar 0
LayerCount: 2
Fore
SplineSet
51 853 m 257,0,-1
 250 853 l 257,1,-1
 250 1044 l 257,2,-1
 51 1044 l 257,3,-1
 51 853 l 257,0,-1
51 882 m 257,4,-1
 51 683 l 257,5,-1
 1039 683 l 257,6,-1
 1039 882 l 257,7,-1
 51 882 l 257,4,-1
840 1548 m 257,8,-1
 840 812 l 257,9,-1
 1039 812 l 257,10,-1
 1039 1548 l 257,11,-1
 840 1548 l 257,8,-1
1997 1548 m 257,12,-1
 210 1548 l 257,13,-1
 210 1348 l 257,14,-1
 1997 1348 l 257,15,-1
 1997 1548 l 257,12,-1
1717 1523 m 257,16,-1
 1717 0 l 257,17,-1
 1916 0 l 257,18,-1
 1916 1523 l 257,19,-1
 1717 1523 l 257,16,-1
EndSplineSet
EndChar

StartChar: uni0917_uni0930_uni094D.vatu
Encoding: 65545 -1 457
GlifName: uni0917_uni0930_uni094D_.vatu
Width: 2048
VWidth: 0
GlyphClass: 3
Flags: W
LayerCount: 2
Fore
SplineSet
52 0 m 257,0,-1
 476 0 l 257,1,-1
 1778 215 l 257,2,-1
 1778 416 l 257,3,-1
 52 0 l 257,0,-1
51 853 m 257,4,-1
 250 853 l 257,5,-1
 250 1044 l 257,6,-1
 51 1044 l 257,7,-1
 51 853 l 257,4,-1
51 882 m 257,8,-1
 51 683 l 257,9,-1
 1039 683 l 257,10,-1
 1039 882 l 257,11,-1
 51 882 l 257,8,-1
840 1548 m 257,12,-1
 840 812 l 257,13,-1
 1039 812 l 257,14,-1
 1039 1548 l 257,15,-1
 840 1548 l 257,12,-1
1997 1548 m 257,16,-1
 210 1548 l 257,17,-1
 210 1348 l 257,18,-1
 1997 1348 l 257,19,-1
 1997 1548 l 257,16,-1
1717 1523 m 257,20,-1
 1717 0 l 257,21,-1
 1916 0 l 257,22,-1
 1916 1523 l 257,23,-1
 1717 1523 l 257,20,-1
EndSplineSet
Ligature2: "rkrfRakarVariantsinDevanagari2lookup0 subtable" uni0917 uni094D uni0930
EndChar

StartChar: uni0917_uni094D.half
Encoding: 65546 -1 458
GlifName: uni0917_uni094D_.half
Width: 2048
VWidth: 0
GlyphClass: 3
Flags: W
LayerCount: 2
Fore
SplineSet
51 853 m 257,0,-1
 250 853 l 257,1,-1
 250 1044 l 257,2,-1
 51 1044 l 257,3,-1
 51 853 l 257,0,-1
51 882 m 257,4,-1
 51 683 l 257,5,-1
 1039 683 l 257,6,-1
 1039 882 l 257,7,-1
 51 882 l 257,4,-1
840 1548 m 257,8,-1
 840 812 l 257,9,-1
 1039 812 l 257,10,-1
 1039 1548 l 257,11,-1
 840 1548 l 257,8,-1
2097 1548 m 257,12,-1
 210 1548 l 257,13,-1
 210 1348 l 257,14,-1
 2097 1348 l 257,15,-1
 2097 1548 l 257,12,-1
EndSplineSet
Ligature2: "halfHalfFormsinDevanagari2lookup0 subtable" uni0917 uni094D
EndChar

StartChar: uni0917_uni094D.haln
Encoding: 65547 -1 459
GlifName: uni0917_uni094D_.haln
Width: 2048
VWidth: 0
GlyphClass: 3
Flags: W
LayerCount: 2
Fore
SplineSet
51 853 m 257,0,-1
 250 853 l 257,1,-1
 250 1044 l 257,2,-1
 51 1044 l 257,3,-1
 51 853 l 257,0,-1
51 882 m 257,4,-1
 51 683 l 257,5,-1
 1039 683 l 257,6,-1
 1039 882 l 257,7,-1
 51 882 l 257,4,-1
840 1548 m 257,8,-1
 840 812 l 257,9,-1
 1039 812 l 257,10,-1
 1039 1548 l 257,11,-1
 840 1548 l 257,8,-1
1997 1548 m 257,12,-1
 210 1548 l 257,13,-1
 210 1348 l 257,14,-1
 1997 1348 l 257,15,-1
 1997 1548 l 257,12,-1
1717 1523 m 257,16,-1
 1717 0 l 257,17,-1
 1916 0 l 257,18,-1
 1916 1523 l 257,19,-1
 1717 1523 l 257,16,-1
1495 -22 m 257,20,-1
 1495 -218 l 257,21,-1
 1852 -218 l 257,22,-1
 1852 -22 l 257,23,-1
 1495 -22 l 257,20,-1
1711 -183 m 257,24,-1
 2181 -588 l 257,25,-1
 2325 -425 l 257,26,-1
 1854 -21 l 257,27,-1
 1711 -183 l 257,24,-1
EndSplineSet
Ligature2: "halnHalantFormsinDevanagari2lookup0 subtable" uni0917 uni094D
EndChar

StartChar: uni0918
Encoding: 2328 2328 460
GlifName: uni0918
Width: 2048
VWidth: 0
GlyphClass: 2
Flags: W
AnchorPoint: "abvm_deva" 732 1618 basechar 0
AnchorPoint: "blwm_deva" 1819 -32 basechar 0
LayerCount: 2
Fore
SplineSet
0 1554 m 257,0,-1
 0 1354 l 257,1,-1
 2048 1354 l 257,2,-1
 2048 1554 l 257,3,-1
 0 1554 l 257,0,-1
1726 1522 m 257,4,-1
 1726 13 l 257,5,-1
 1926 13 l 257,6,-1
 1926 1522 l 257,7,-1
 1726 1522 l 257,4,-1
172 1515 m 257,8,-1
 172 883 l 257,9,-1
 372 883 l 257,10,-1
 372 1515 l 257,11,-1
 172 1515 l 257,8,-1
266 917 m 257,12,-1
 266 717 l 257,13,-1
 1022 717 l 257,14,-1
 1022 917 l 257,15,-1
 266 917 l 257,12,-1
178 469 m 257,16,-1
 178 269 l 257,17,-1
 1902 269 l 257,18,-1
 1902 469 l 257,19,-1
 178 469 l 257,16,-1
172 269 m 257,20,-1
 372 269 l 257,21,-1
 372 764 l 257,22,-1
 172 764 l 257,23,-1
 172 269 l 257,20,-1
EndSplineSet
EndChar

StartChar: uni0918_uni0930_uni094D.vatu
Encoding: 65548 -1 461
GlifName: uni0918_uni0930_uni094D_.vatu
Width: 2048
VWidth: 0
GlyphClass: 3
Flags: W
LayerCount: 2
Fore
SplineSet
52 0 m 257,0,-1
 476 0 l 257,1,-1
 1778 215 l 257,2,-1
 1778 416 l 257,3,-1
 52 0 l 257,0,-1
0 1554 m 257,4,-1
 0 1354 l 257,5,-1
 2048 1354 l 257,6,-1
 2048 1554 l 257,7,-1
 0 1554 l 257,4,-1
1726 1522 m 257,8,-1
 1726 13 l 257,9,-1
 1926 13 l 257,10,-1
 1926 1522 l 257,11,-1
 1726 1522 l 257,8,-1
172 1515 m 257,12,-1
 172 1083 l 257,13,-1
 372 1083 l 257,14,-1
 372 1515 l 257,15,-1
 172 1515 l 257,12,-1
266 1117 m 257,16,-1
 266 917 l 257,17,-1
 1022 917 l 257,18,-1
 1022 1117 l 257,19,-1
 266 1117 l 257,16,-1
178 669 m 257,20,-1
 178 469 l 257,21,-1
 1902 469 l 257,22,-1
 1902 669 l 257,23,-1
 178 669 l 257,20,-1
172 469 m 257,24,-1
 372 469 l 257,25,-1
 372 964 l 257,26,-1
 172 964 l 257,27,-1
 172 469 l 257,24,-1
EndSplineSet
Ligature2: "rkrfRakarVariantsinDevanagari2lookup0 subtable" uni0918 uni094D uni0930
EndChar

StartChar: uni0918_uni094D.half
Encoding: 65549 -1 462
GlifName: uni0918_uni094D_.half
Width: 2048
VWidth: 0
GlyphClass: 3
Flags: W
LayerCount: 2
Fore
SplineSet
0 1554 m 257,0,-1
 0 1354 l 257,1,-1
 2048 1354 l 257,2,-1
 2048 1554 l 257,3,-1
 0 1554 l 257,0,-1
172 1515 m 257,4,-1
 172 883 l 257,5,-1
 372 883 l 257,6,-1
 372 1515 l 257,7,-1
 172 1515 l 257,4,-1
266 917 m 257,8,-1
 266 717 l 257,9,-1
 1022 717 l 257,10,-1
 1022 917 l 257,11,-1
 266 917 l 257,8,-1
178 469 m 257,12,-1
 178 269 l 257,13,-1
 2102 269 l 257,14,-1
 2102 469 l 257,15,-1
 178 469 l 257,12,-1
172 269 m 257,16,-1
 372 269 l 257,17,-1
 372 764 l 257,18,-1
 172 764 l 257,19,-1
 172 269 l 257,16,-1
EndSplineSet
Ligature2: "halfHalfFormsinDevanagari2lookup0 subtable" uni0918 uni094D
EndChar

StartChar: uni0918_uni094D.haln
Encoding: 65550 -1 463
GlifName: uni0918_uni094D_.haln
Width: 2048
VWidth: 0
GlyphClass: 3
Flags: W
LayerCount: 2
Fore
SplineSet
0 1554 m 257,0,-1
 0 1354 l 257,1,-1
 2048 1354 l 257,2,-1
 2048 1554 l 257,3,-1
 0 1554 l 257,0,-1
1726 1522 m 257,4,-1
 1726 13 l 257,5,-1
 1926 13 l 257,6,-1
 1926 1522 l 257,7,-1
 1726 1522 l 257,4,-1
172 1515 m 257,8,-1
 172 883 l 257,9,-1
 372 883 l 257,10,-1
 372 1515 l 257,11,-1
 172 1515 l 257,8,-1
266 917 m 257,12,-1
 266 717 l 257,13,-1
 1022 717 l 257,14,-1
 1022 917 l 257,15,-1
 266 917 l 257,12,-1
178 469 m 257,16,-1
 178 269 l 257,17,-1
 1902 269 l 257,18,-1
 1902 469 l 257,19,-1
 178 469 l 257,16,-1
172 269 m 257,20,-1
 372 269 l 257,21,-1
 372 764 l 257,22,-1
 172 764 l 257,23,-1
 172 269 l 257,20,-1
1495 -22 m 257,24,-1
 1495 -218 l 257,25,-1
 1852 -218 l 257,26,-1
 1852 -22 l 257,27,-1
 1495 -22 l 257,24,-1
1711 -183 m 257,28,-1
 2181 -588 l 257,29,-1
 2325 -425 l 257,30,-1
 1854 -21 l 257,31,-1
 1711 -183 l 257,28,-1
EndSplineSet
Ligature2: "halnHalantFormsinDevanagari2lookup0 subtable" uni0918 uni094D
EndChar

StartChar: uni0919
Encoding: 2329 2329 464
GlifName: uni0919
Width: 2048
VWidth: 0
GlyphClass: 2
Flags: W
AnchorPoint: "abvm_deva" 630 1582 basechar 0
AnchorPoint: "blwm_deva" 1220 -89 basechar 0
LayerCount: 2
Fore
SplineSet
0 1554 m 257,0,-1
 0 1354 l 257,1,-1
 2050 1354 l 257,2,-1
 2050 1554 l 257,3,-1
 0 1554 l 257,0,-1
1023 1543 m 257,4,-1
 1023 1023 l 257,5,-1
 1223 1023 l 257,6,-1
 1223 1543 l 257,7,-1
 1023 1543 l 257,4,-1
1214 1226 m 257,8,-1
 228 1226 l 257,9,-1
 228 1023 l 257,10,-1
 1214 1023 l 257,11,-1
 1214 1226 l 257,8,-1
227 1083 m 257,12,-1
 227 629 l 257,13,-1
 432 629 l 257,14,-1
 432 1083 l 257,15,-1
 227 1083 l 257,12,-1
227 820 m 257,16,-1
 227 620 l 257,17,-1
 1300 620 l 257,18,-1
 1300 820 l 257,19,-1
 227 820 l 257,16,-1
1100 680 m 257,20,-1
 1100 29 l 257,21,-1
 1300 29 l 257,22,-1
 1300 680 l 257,23,-1
 1100 680 l 257,20,-1
114 201 m 257,24,-1
 114 0 l 257,25,-1
 1301 0 l 257,26,-1
 1301 201 l 257,27,-1
 114 201 l 257,24,-1
114 423 m 257,28,-1
 114 8 l 257,29,-1
 315 8 l 257,30,-1
 315 423 l 257,31,-1
 114 423 l 257,28,-1
1327 1037 m 257,32,-1
 1327 890 l 257,33,-1
 1484 890 l 257,34,-1
 1484 1037 l 257,35,-1
 1327 1037 l 257,32,-1
EndSplineSet
EndChar

StartChar: uni0919_uni0930_uni094D.vatu
Encoding: 65551 -1 465
GlifName: uni0919_uni0930_uni094D_.vatu
Width: 2048
VWidth: 0
GlyphClass: 3
Flags: W
LayerCount: 2
Fore
SplineSet
929 90 m 257,0,-1
 1153 -290 l 257,1,-1
 1435 -290 l 257,2,-1
 1051 259 l 257,3,-1
 929 90 l 257,0,-1
1051 259 m 257,4,-1
 644 -299 l 257,5,-1
 865 -299 l 257,6,-1
 1166 94 l 257,7,-1
 1051 259 l 257,4,-1
0 1554 m 257,8,-1
 0 1354 l 257,9,-1
 2050 1354 l 257,10,-1
 2050 1554 l 257,11,-1
 0 1554 l 257,8,-1
1023 1543 m 257,12,-1
 1023 1126 l 257,13,-1
 1223 1126 l 257,14,-1
 1223 1543 l 257,15,-1
 1023 1543 l 257,12,-1
1214 1326 m 257,16,-1
 228 1326 l 257,17,-1
 228 1126 l 257,18,-1
 1214 1126 l 257,19,-1
 1214 1326 l 257,16,-1
227 1183 m 257,20,-1
 227 829 l 257,21,-1
 432 829 l 257,22,-1
 432 1183 l 257,23,-1
 227 1183 l 257,20,-1
227 1023 m 257,24,-1
 227 820 l 257,25,-1
 1300 820 l 257,26,-1
 1300 1023 l 257,27,-1
 227 1023 l 257,24,-1
1100 880 m 257,28,-1
 1100 329 l 257,29,-1
 1300 329 l 257,30,-1
 1300 880 l 257,31,-1
 1100 880 l 257,28,-1
114 501 m 257,32,-1
 114 300 l 257,33,-1
 1301 300 l 257,34,-1
 1301 501 l 257,35,-1
 114 501 l 257,32,-1
114 723 m 257,36,-1
 114 308 l 257,37,-1
 315 308 l 257,38,-1
 315 723 l 257,39,-1
 114 723 l 257,36,-1
1353 1171 m 257,40,-1
 1353 1023 l 257,41,-1
 1510 1023 l 257,42,-1
 1510 1171 l 257,43,-1
 1353 1171 l 257,40,-1
EndSplineSet
Ligature2: "rkrfRakarVariantsinDevanagari2lookup0 subtable" uni0919 uni094D uni0930
EndChar

StartChar: uni0919_uni094D.half
Encoding: 65552 -1 466
GlifName: uni0919_uni094D_.half
Width: 2048
VWidth: 0
GlyphClass: 3
Flags: W
LayerCount: 2
Fore
SplineSet
0 1554 m 257,0,-1
 0 1354 l 257,1,-1
 2050 1354 l 257,2,-1
 2050 1554 l 257,3,-1
 0 1554 l 257,0,-1
1023 1543 m 257,4,-1
 1023 1023 l 257,5,-1
 1223 1023 l 257,6,-1
 1223 1543 l 257,7,-1
 1023 1543 l 257,4,-1
1214 1226 m 257,8,-1
 228 1226 l 257,9,-1
 228 1023 l 257,10,-1
 1214 1023 l 257,11,-1
 1214 1226 l 257,8,-1
227 1083 m 257,12,-1
 227 729 l 257,13,-1
 432 729 l 257,14,-1
 432 1083 l 257,15,-1
 227 1083 l 257,12,-1
227 920 m 257,16,-1
 227 720 l 257,17,-1
 1300 720 l 257,18,-1
 1300 920 l 257,19,-1
 227 920 l 257,16,-1
1100 780 m 257,20,-1
 1100 129 l 257,21,-1
 1300 129 l 257,22,-1
 1300 780 l 257,23,-1
 1100 780 l 257,20,-1
114 301 m 257,24,-1
 114 100 l 257,25,-1
 1301 100 l 257,26,-1
 1301 301 l 257,27,-1
 114 301 l 257,24,-1
114 523 m 257,28,-1
 114 108 l 257,29,-1
 315 108 l 257,30,-1
 315 523 l 257,31,-1
 114 523 l 257,28,-1
1327 1037 m 257,32,-1
 1327 890 l 257,33,-1
 1484 890 l 257,34,-1
 1484 1037 l 257,35,-1
 1327 1037 l 257,32,-1
1095 78 m 257,36,-1
 1095 -118 l 257,37,-1
 1452 -118 l 257,38,-1
 1452 78 l 257,39,-1
 1095 78 l 257,36,-1
1311 -83 m 257,40,-1
 1781 -488 l 257,41,-1
 1925 -325 l 257,42,-1
 1454 79 l 257,43,-1
 1311 -83 l 257,40,-1
EndSplineSet
Ligature2: "halfHalfFormsinDevanagari2lookup0 subtable" uni0919 uni094D
EndChar

StartChar: uni0919_uni094D.haln
Encoding: 65553 -1 467
GlifName: uni0919_uni094D_.haln
Width: 2048
VWidth: 0
GlyphClass: 3
Flags: W
LayerCount: 2
Fore
SplineSet
0 1554 m 257,0,-1
 0 1354 l 257,1,-1
 2050 1354 l 257,2,-1
 2050 1554 l 257,3,-1
 0 1554 l 257,0,-1
1023 1543 m 257,4,-1
 1023 1023 l 257,5,-1
 1223 1023 l 257,6,-1
 1223 1543 l 257,7,-1
 1023 1543 l 257,4,-1
1214 1226 m 257,8,-1
 228 1226 l 257,9,-1
 228 1023 l 257,10,-1
 1214 1023 l 257,11,-1
 1214 1226 l 257,8,-1
227 1083 m 257,12,-1
 227 629 l 257,13,-1
 432 629 l 257,14,-1
 432 1083 l 257,15,-1
 227 1083 l 257,12,-1
227 820 m 257,16,-1
 227 620 l 257,17,-1
 1300 620 l 257,18,-1
 1300 820 l 257,19,-1
 227 820 l 257,16,-1
1100 680 m 257,20,-1
 1100 29 l 257,21,-1
 1300 29 l 257,22,-1
 1300 680 l 257,23,-1
 1100 680 l 257,20,-1
114 201 m 257,24,-1
 114 0 l 257,25,-1
 1301 0 l 257,26,-1
 1301 201 l 257,27,-1
 114 201 l 257,24,-1
114 423 m 257,28,-1
 114 8 l 257,29,-1
 315 8 l 257,30,-1
 315 423 l 257,31,-1
 114 423 l 257,28,-1
1327 1037 m 257,32,-1
 1327 890 l 257,33,-1
 1484 890 l 257,34,-1
 1484 1037 l 257,35,-1
 1327 1037 l 257,32,-1
1495 -22 m 257,36,-1
 1495 -218 l 257,37,-1
 1852 -218 l 257,38,-1
 1852 -22 l 257,39,-1
 1495 -22 l 257,36,-1
1711 -183 m 257,40,-1
 2181 -588 l 257,41,-1
 2325 -425 l 257,42,-1
 1854 -21 l 257,43,-1
 1711 -183 l 257,40,-1
EndSplineSet
Ligature2: "halnHalantFormsinDevanagari2lookup0 subtable" uni0919 uni094D
EndChar

StartChar: uni091A
Encoding: 2330 2330 468
GlifName: uni091A_
Width: 2048
VWidth: 0
GlyphClass: 2
Flags: W
AnchorPoint: "abvm_deva" 720 1624 basechar 0
AnchorPoint: "blwm_deva" 1819 -32 basechar 0
LayerCount: 2
Fore
SplineSet
0 1556 m 257,0,-1
 0 1356 l 257,1,-1
 2048 1356 l 257,2,-1
 2048 1556 l 257,3,-1
 0 1556 l 257,0,-1
1662 1553 m 257,4,-1
 1662 0 l 257,5,-1
 1862 0 l 257,6,-1
 1862 1553 l 257,7,-1
 1662 1553 l 257,4,-1
1829 280 m 257,8,-1
 1829 480 l 257,9,-1
 808 480 l 257,10,-1
 808 280 l 257,11,-1
 1829 280 l 257,8,-1
808 837 m 257,12,-1
 808 421 l 257,13,-1
 1008 421 l 257,14,-1
 1008 837 l 257,15,-1
 808 837 l 257,12,-1
72 991 m 257,16,-1
 72 791 l 257,17,-1
 1080 791 l 257,18,-1
 1080 991 l 257,19,-1
 72 991 l 257,16,-1
EndSplineSet
EndChar

StartChar: uni091A_uni0930_uni094D.vatu
Encoding: 65554 -1 469
GlifName: uni091A__uni0930_uni094D_.vatu
Width: 2048
VWidth: 0
GlyphClass: 2
Flags: W
LayerCount: 2
Fore
SplineSet
52 0 m 257,0,-1
 476 0 l 257,1,-1
 1778 215 l 257,2,-1
 1778 416 l 257,3,-1
 52 0 l 257,0,-1
0 1556 m 257,4,-1
 0 1356 l 257,5,-1
 2048 1356 l 257,6,-1
 2048 1556 l 257,7,-1
 0 1556 l 257,4,-1
1662 1553 m 257,8,-1
 1662 0 l 257,9,-1
 1862 0 l 257,10,-1
 1862 1553 l 257,11,-1
 1662 1553 l 257,8,-1
1829 480 m 257,12,-1
 1829 680 l 257,13,-1
 808 680 l 257,14,-1
 808 480 l 257,15,-1
 1829 480 l 257,12,-1
808 1037 m 257,16,-1
 808 621 l 257,17,-1
 1008 621 l 257,18,-1
 1008 1037 l 257,19,-1
 808 1037 l 257,16,-1
72 1191 m 257,20,-1
 72 991 l 257,21,-1
 1080 991 l 257,22,-1
 1080 1191 l 257,23,-1
 72 1191 l 257,20,-1
EndSplineSet
Ligature2: "rkrfRakarVariantsinDevanagari2lookup0 subtable" uni091A uni094D uni0930
EndChar

StartChar: uni091A_uni094D.half
Encoding: 65555 -1 470
GlifName: uni091A__uni094D_.half
Width: 2048
VWidth: 0
GlyphClass: 3
Flags: W
LayerCount: 2
Fore
SplineSet
0 1556 m 257,0,-1
 0 1356 l 257,1,-1
 2048 1356 l 257,2,-1
 2048 1556 l 257,3,-1
 0 1556 l 257,0,-1
2129 280 m 257,4,-1
 2129 480 l 257,5,-1
 1108 480 l 257,6,-1
 1108 280 l 257,7,-1
 2129 280 l 257,4,-1
1108 837 m 257,8,-1
 1108 421 l 257,9,-1
 1308 421 l 257,10,-1
 1308 837 l 257,11,-1
 1108 837 l 257,8,-1
372 991 m 257,12,-1
 372 791 l 257,13,-1
 1380 791 l 257,14,-1
 1380 991 l 257,15,-1
 372 991 l 257,12,-1
EndSplineSet
Ligature2: "halfHalfFormsinDevanagari2lookup0 subtable" uni091A uni094D
EndChar

StartChar: uni091A_uni094D.haln
Encoding: 65556 -1 471
GlifName: uni091A__uni094D_.haln
Width: 2048
VWidth: 0
GlyphClass: 3
Flags: W
LayerCount: 2
Fore
SplineSet
0 1556 m 257,0,-1
 0 1356 l 257,1,-1
 2048 1356 l 257,2,-1
 2048 1556 l 257,3,-1
 0 1556 l 257,0,-1
1662 1553 m 257,4,-1
 1662 0 l 257,5,-1
 1862 0 l 257,6,-1
 1862 1553 l 257,7,-1
 1662 1553 l 257,4,-1
1829 280 m 257,8,-1
 1829 480 l 257,9,-1
 808 480 l 257,10,-1
 808 280 l 257,11,-1
 1829 280 l 257,8,-1
808 837 m 257,12,-1
 808 421 l 257,13,-1
 1008 421 l 257,14,-1
 1008 837 l 257,15,-1
 808 837 l 257,12,-1
72 991 m 257,16,-1
 72 791 l 257,17,-1
 1080 791 l 257,18,-1
 1080 991 l 257,19,-1
 72 991 l 257,16,-1
1495 -22 m 257,20,-1
 1495 -218 l 257,21,-1
 1852 -218 l 257,22,-1
 1852 -22 l 257,23,-1
 1495 -22 l 257,20,-1
1711 -183 m 257,24,-1
 2181 -588 l 257,25,-1
 2325 -425 l 257,26,-1
 1854 -21 l 257,27,-1
 1711 -183 l 257,24,-1
EndSplineSet
Ligature2: "halnHalantFormsinDevanagari2lookup0 subtable" uni091A uni094D
EndChar

StartChar: uni091B
Encoding: 2331 2331 472
GlifName: uni091B_
Width: 2048
VWidth: 0
GlyphClass: 2
Flags: W
AnchorPoint: "abvm_deva" 600 1600 basechar 0
AnchorPoint: "blwm_deva" 1473 -72 basechar 0
LayerCount: 2
Fore
SplineSet
0 1555 m 257,0,-1
 0 1355 l 257,1,-1
 2051 1355 l 257,2,-1
 2051 1555 l 257,3,-1
 0 1555 l 257,0,-1
1236 1130 m 257,4,-1
 95 1130 l 257,5,-1
 95 931 l 257,6,-1
 1236 931 l 257,7,-1
 1236 1130 l 257,4,-1
92 1130 m 257,8,-1
 92 584 l 257,9,-1
 292 584 l 257,10,-1
 292 1130 l 257,11,-1
 92 1130 l 257,8,-1
170 639 m 257,12,-1
 170 439 l 257,13,-1
 820 439 l 257,14,-1
 820 639 l 257,15,-1
 170 639 l 257,12,-1
87 493 m 257,16,-1
 87 0 l 257,17,-1
 287 0 l 257,18,-1
 287 493 l 257,19,-1
 87 493 l 257,16,-1
87 199 m 257,20,-1
 87 0 l 257,21,-1
 1522 0 l 257,22,-1
 1522 199 l 257,23,-1
 87 199 l 257,20,-1
1321 6 m 257,24,-1
 1522 6 l 257,25,-1
 1522 1515 l 257,26,-1
 1321 1515 l 257,27,-1
 1321 6 l 257,24,-1
1462 1007 m 257,28,-1
 1462 808 l 257,29,-1
 2032 808 l 257,30,-1
 2032 1007 l 257,31,-1
 1462 1007 l 257,28,-1
1831 868 m 257,32,-1
 1831 471 l 257,33,-1
 2032 471 l 257,34,-1
 2032 868 l 257,35,-1
 1831 868 l 257,32,-1
EndSplineSet
EndChar

StartChar: uni091B_uni0930_uni094D.vatu
Encoding: 65557 -1 473
GlifName: uni091B__uni0930_uni094D_.vatu
Width: 2048
VWidth: 0
GlyphClass: 3
Flags: W
LayerCount: 2
Fore
SplineSet
536 0 m 257,0,-1
 960 0 l 257,1,-1
 1525 70 l 257,2,-1
 1525 271 l 257,3,-1
 536 0 l 257,0,-1
0 1555 m 257,4,-1
 0 1355 l 257,5,-1
 2051 1355 l 257,6,-1
 2051 1555 l 257,7,-1
 0 1555 l 257,4,-1
1236 1258 m 257,8,-1
 95 1258 l 257,9,-1
 95 1072 l 257,10,-1
 1236 1072 l 257,11,-1
 1236 1258 l 257,8,-1
92 1264 m 257,12,-1
 92 815 l 257,13,-1
 292 815 l 257,14,-1
 292 1264 l 257,15,-1
 92 1264 l 257,12,-1
170 870 m 257,16,-1
 170 670 l 257,17,-1
 820 670 l 257,18,-1
 820 870 l 257,19,-1
 170 870 l 257,16,-1
87 724 m 257,20,-1
 87 231 l 257,21,-1
 287 231 l 257,22,-1
 287 724 l 257,23,-1
 87 724 l 257,20,-1
87 430 m 257,24,-1
 87 231 l 257,25,-1
 1522 231 l 257,26,-1
 1522 430 l 257,27,-1
 87 430 l 257,24,-1
1321 6 m 257,28,-1
 1522 6 l 257,29,-1
 1522 1515 l 257,30,-1
 1321 1515 l 257,31,-1
 1321 6 l 257,28,-1
1462 1104 m 257,32,-1
 1462 905 l 257,33,-1
 2032 905 l 257,34,-1
 2032 1104 l 257,35,-1
 1462 1104 l 257,32,-1
1831 965 m 257,36,-1
 1831 568 l 257,37,-1
 2032 568 l 257,38,-1
 2032 965 l 257,39,-1
 1831 965 l 257,36,-1
EndSplineSet
Ligature2: "rkrfRakarVariantsinDevanagari2lookup0 subtable" uni091B uni094D uni0930
EndChar

StartChar: uni091B_uni094D.half
Encoding: 65558 -1 474
GlifName: uni091B__uni094D_.half
Width: 2048
VWidth: 0
GlyphClass: 3
Flags: W
LayerCount: 2
Fore
SplineSet
0 1555 m 257,0,-1
 0 1355 l 257,1,-1
 2051 1355 l 257,2,-1
 2051 1555 l 257,3,-1
 0 1555 l 257,0,-1
1836 1130 m 257,4,-1
 695 1130 l 257,5,-1
 695 931 l 257,6,-1
 1836 931 l 257,7,-1
 1836 1130 l 257,4,-1
692 1130 m 257,8,-1
 692 584 l 257,9,-1
 892 584 l 257,10,-1
 892 1130 l 257,11,-1
 692 1130 l 257,8,-1
770 639 m 257,12,-1
 770 439 l 257,13,-1
 1420 439 l 257,14,-1
 1420 639 l 257,15,-1
 770 639 l 257,12,-1
687 493 m 257,16,-1
 687 0 l 257,17,-1
 887 0 l 257,18,-1
 887 493 l 257,19,-1
 687 493 l 257,16,-1
687 199 m 257,20,-1
 687 0 l 257,21,-1
 2122 0 l 257,22,-1
 2122 199 l 257,23,-1
 687 199 l 257,20,-1
EndSplineSet
Ligature2: "halfHalfFormsinDevanagari2lookup0 subtable" uni091B uni094D
EndChar

StartChar: uni091B_uni094D.haln
Encoding: 65559 -1 475
GlifName: uni091B__uni094D_.haln
Width: 2048
VWidth: 0
GlyphClass: 3
Flags: W
LayerCount: 2
Fore
SplineSet
0 1555 m 257,0,-1
 0 1355 l 257,1,-1
 2051 1355 l 257,2,-1
 2051 1555 l 257,3,-1
 0 1555 l 257,0,-1
1236 1130 m 257,4,-1
 95 1130 l 257,5,-1
 95 931 l 257,6,-1
 1236 931 l 257,7,-1
 1236 1130 l 257,4,-1
92 1130 m 257,8,-1
 92 584 l 257,9,-1
 292 584 l 257,10,-1
 292 1130 l 257,11,-1
 92 1130 l 257,8,-1
170 639 m 257,12,-1
 170 439 l 257,13,-1
 820 439 l 257,14,-1
 820 639 l 257,15,-1
 170 639 l 257,12,-1
87 493 m 257,16,-1
 87 0 l 257,17,-1
 287 0 l 257,18,-1
 287 493 l 257,19,-1
 87 493 l 257,16,-1
87 199 m 257,20,-1
 87 0 l 257,21,-1
 1522 0 l 257,22,-1
 1522 199 l 257,23,-1
 87 199 l 257,20,-1
1321 6 m 257,24,-1
 1522 6 l 257,25,-1
 1522 1515 l 257,26,-1
 1321 1515 l 257,27,-1
 1321 6 l 257,24,-1
1462 1007 m 257,28,-1
 1462 808 l 257,29,-1
 2032 808 l 257,30,-1
 2032 1007 l 257,31,-1
 1462 1007 l 257,28,-1
1831 868 m 257,32,-1
 1831 471 l 257,33,-1
 2032 471 l 257,34,-1
 2032 868 l 257,35,-1
 1831 868 l 257,32,-1
1290 -22 m 257,36,-1
 1290 -218 l 257,37,-1
 1647 -218 l 257,38,-1
 1647 -22 l 257,39,-1
 1290 -22 l 257,36,-1
1506 -183 m 257,40,-1
 1976 -588 l 257,41,-1
 2120 -425 l 257,42,-1
 1649 -21 l 257,43,-1
 1506 -183 l 257,40,-1
EndSplineSet
Ligature2: "halnHalantFormsinDevanagari2lookup0 subtable" uni091B uni094D
EndChar

StartChar: uni091C
Encoding: 2332 2332 476
GlifName: uni091C_
Width: 2048
VWidth: 0
GlyphClass: 2
Flags: W
AnchorPoint: "abvm_deva" 762 1594 basechar 0
AnchorPoint: "blwm_deva" 1819 -32 basechar 0
LayerCount: 2
Fore
SplineSet
-17 1548 m 257,0,-1
 -17 1350 l 257,1,-1
 2065 1350 l 257,2,-1
 2065 1548 l 257,3,-1
 -17 1548 l 257,0,-1
1719 1548 m 257,4,-1
 1719 -12 l 257,5,-1
 1918 -12 l 257,6,-1
 1918 1548 l 257,7,-1
 1719 1548 l 257,4,-1
926 860 m 257,8,-1
 926 663 l 257,9,-1
 1852 663 l 257,10,-1
 1852 860 l 257,11,-1
 926 860 l 257,8,-1
880 860 m 257,12,-1
 880 413 l 257,13,-1
 1080 413 l 257,14,-1
 1080 860 l 257,15,-1
 880 860 l 257,12,-1
58 567 m 257,16,-1
 58 367 l 257,17,-1
 1080 367 l 257,18,-1
 1080 567 l 257,19,-1
 58 567 l 257,16,-1
58 855 m 257,20,-1
 58 509 l 257,21,-1
 258 509 l 257,22,-1
 258 855 l 257,23,-1
 58 855 l 257,20,-1
EndSplineSet
EndChar

StartChar: uni091C_uni0930_uni094D.vatu
Encoding: 65560 -1 477
GlifName: uni091C__uni0930_uni094D_.vatu
Width: 2048
VWidth: 0
GlyphClass: 2
Flags: W
LayerCount: 2
Fore
SplineSet
52 0 m 257,0,-1
 476 0 l 257,1,-1
 1778 215 l 257,2,-1
 1778 416 l 257,3,-1
 52 0 l 257,0,-1
-17 1548 m 257,4,-1
 -17 1350 l 257,5,-1
 2065 1350 l 257,6,-1
 2065 1548 l 257,7,-1
 -17 1548 l 257,4,-1
1719 1548 m 257,8,-1
 1719 -12 l 257,9,-1
 1918 -12 l 257,10,-1
 1918 1548 l 257,11,-1
 1719 1548 l 257,8,-1
926 860 m 257,12,-1
 926 663 l 257,13,-1
 1852 663 l 257,14,-1
 1852 860 l 257,15,-1
 926 860 l 257,12,-1
880 860 m 257,16,-1
 880 413 l 257,17,-1
 1080 413 l 257,18,-1
 1080 860 l 257,19,-1
 880 860 l 257,16,-1
58 567 m 257,20,-1
 58 367 l 257,21,-1
 1080 367 l 257,22,-1
 1080 567 l 257,23,-1
 58 567 l 257,20,-1
58 855 m 257,24,-1
 58 509 l 257,25,-1
 258 509 l 257,26,-1
 258 855 l 257,27,-1
 58 855 l 257,24,-1
EndSplineSet
Ligature2: "rkrfRakarVariantsinDevanagari2lookup0 subtable" uni091C uni094D uni0930
EndChar

StartChar: uni091C_uni094D.half
Encoding: 65561 -1 478
GlifName: uni091C__uni094D_.half
Width: 2048
VWidth: 0
GlyphClass: 3
Flags: W
LayerCount: 2
Fore
SplineSet
-17 1548 m 257,0,-1
 -17 1350 l 257,1,-1
 2065 1350 l 257,2,-1
 2065 1548 l 257,3,-1
 -17 1548 l 257,0,-1
1226 860 m 257,4,-1
 1226 663 l 257,5,-1
 2152 663 l 257,6,-1
 2152 860 l 257,7,-1
 1226 860 l 257,4,-1
1180 860 m 257,8,-1
 1180 413 l 257,9,-1
 1380 413 l 257,10,-1
 1380 860 l 257,11,-1
 1180 860 l 257,8,-1
358 567 m 257,12,-1
 358 367 l 257,13,-1
 1380 367 l 257,14,-1
 1380 567 l 257,15,-1
 358 567 l 257,12,-1
358 855 m 257,16,-1
 358 509 l 257,17,-1
 558 509 l 257,18,-1
 558 855 l 257,19,-1
 358 855 l 257,16,-1
EndSplineSet
Ligature2: "halfHalfFormsinDevanagari2lookup0 subtable" uni091C uni094D
EndChar

StartChar: uni091C_uni094D.haln
Encoding: 65562 -1 479
GlifName: uni091C__uni094D_.haln
Width: 2048
VWidth: 0
GlyphClass: 3
Flags: W
LayerCount: 2
Fore
SplineSet
-17 1548 m 257,0,-1
 -17 1350 l 257,1,-1
 2065 1350 l 257,2,-1
 2065 1548 l 257,3,-1
 -17 1548 l 257,0,-1
1719 1548 m 257,4,-1
 1719 -12 l 257,5,-1
 1918 -12 l 257,6,-1
 1918 1548 l 257,7,-1
 1719 1548 l 257,4,-1
926 860 m 257,8,-1
 926 663 l 257,9,-1
 1852 663 l 257,10,-1
 1852 860 l 257,11,-1
 926 860 l 257,8,-1
880 860 m 257,12,-1
 880 413 l 257,13,-1
 1080 413 l 257,14,-1
 1080 860 l 257,15,-1
 880 860 l 257,12,-1
58 567 m 257,16,-1
 58 367 l 257,17,-1
 1080 367 l 257,18,-1
 1080 567 l 257,19,-1
 58 567 l 257,16,-1
58 855 m 257,20,-1
 58 509 l 257,21,-1
 258 509 l 257,22,-1
 258 855 l 257,23,-1
 58 855 l 257,20,-1
1495 -22 m 257,24,-1
 1495 -218 l 257,25,-1
 1852 -218 l 257,26,-1
 1852 -22 l 257,27,-1
 1495 -22 l 257,24,-1
1711 -183 m 257,28,-1
 2181 -588 l 257,29,-1
 2325 -425 l 257,30,-1
 1854 -21 l 257,31,-1
 1711 -183 l 257,28,-1
EndSplineSet
Ligature2: "halnHalantFormsinDevanagari2lookup0 subtable" uni091C uni094D
EndChar

StartChar: uni091C_uni094D_uni091E.akhn
Encoding: 65563 -1 480
GlifName: uni091C__uni094D__uni091E_.akhn
Width: 2048
VWidth: 0
GlyphClass: 3
Flags: W
LayerCount: 2
Fore
SplineSet
-34 1548 m 257,0,-1
 -34 1350 l 257,1,-1
 2048 1350 l 257,2,-1
 2048 1548 l 257,3,-1
 -34 1548 l 257,0,-1
1702 1548 m 257,4,-1
 1702 -12 l 257,5,-1
 1901 -12 l 257,6,-1
 1901 1548 l 257,7,-1
 1702 1548 l 257,4,-1
909 860 m 257,8,-1
 909 663 l 257,9,-1
 1835 663 l 257,10,-1
 1835 860 l 257,11,-1
 909 860 l 257,8,-1
863 860 m 257,12,-1
 863 413 l 257,13,-1
 1063 413 l 257,14,-1
 1063 860 l 257,15,-1
 863 860 l 257,12,-1
41 567 m 257,16,-1
 41 367 l 257,17,-1
 1063 367 l 257,18,-1
 1063 567 l 257,19,-1
 41 567 l 257,16,-1
41 368 m 257,20,-1
 313 75 l 257,21,-1
 571 75 l 257,22,-1
 284 368 l 257,23,-1
 41 368 l 257,20,-1
EndSplineSet
Ligature2: "akhnAkhandinDevanagari2lookup0 subtable" uni091C uni094D uni091E
EndChar

StartChar: uni091C_uni094D_uni091E.half
Encoding: 65564 -1 481
GlifName: uni091C__uni094D__uni091E_.half
Width: 2048
VWidth: 0
GlyphClass: 3
Flags: W
LayerCount: 2
Fore
SplineSet
-34 1548 m 257,0,-1
 -34 1350 l 257,1,-1
 2048 1350 l 257,2,-1
 2048 1548 l 257,3,-1
 -34 1548 l 257,0,-1
1109 860 m 257,4,-1
 1109 663 l 257,5,-1
 2035 663 l 257,6,-1
 2035 860 l 257,7,-1
 1109 860 l 257,4,-1
1063 860 m 257,8,-1
 1063 413 l 257,9,-1
 1263 413 l 257,10,-1
 1263 860 l 257,11,-1
 1063 860 l 257,8,-1
241 567 m 257,12,-1
 241 367 l 257,13,-1
 1263 367 l 257,14,-1
 1263 567 l 257,15,-1
 241 567 l 257,12,-1
241 368 m 257,16,-1
 513 75 l 257,17,-1
 771 75 l 257,18,-1
 484 368 l 257,19,-1
 241 368 l 257,16,-1
EndSplineSet
Ligature2: "halfHalfFormsinDevanagari2lookup0 subtable" uni091C_uni094D_uni091E.akhn uni094D
EndChar

StartChar: uni091C_uni094D_uni091E_uni094D
Encoding: 65565 -1 482
GlifName: uni091C__uni094D__uni091E__uni094D_
Width: 2048
VWidth: 0
GlyphClass: 2
Flags: W
LayerCount: 2
Fore
SplineSet
-34 1548 m 257,0,-1
 -34 1350 l 257,1,-1
 2048 1350 l 257,2,-1
 2048 1548 l 257,3,-1
 -34 1548 l 257,0,-1
1702 1548 m 257,4,-1
 1702 -12 l 257,5,-1
 1901 -12 l 257,6,-1
 1901 1548 l 257,7,-1
 1702 1548 l 257,4,-1
909 860 m 257,8,-1
 909 663 l 257,9,-1
 1835 663 l 257,10,-1
 1835 860 l 257,11,-1
 909 860 l 257,8,-1
863 860 m 257,12,-1
 863 413 l 257,13,-1
 1063 413 l 257,14,-1
 1063 860 l 257,15,-1
 863 860 l 257,12,-1
41 567 m 257,16,-1
 41 367 l 257,17,-1
 1063 367 l 257,18,-1
 1063 567 l 257,19,-1
 41 567 l 257,16,-1
41 368 m 257,20,-1
 313 75 l 257,21,-1
 571 75 l 257,22,-1
 284 368 l 257,23,-1
 41 368 l 257,20,-1
1471 -22 m 257,24,-1
 1471 -218 l 257,25,-1
 1828 -218 l 257,26,-1
 1828 -22 l 257,27,-1
 1471 -22 l 257,24,-1
1687 -183 m 257,28,-1
 2157 -588 l 257,29,-1
 2301 -425 l 257,30,-1
 1830 -21 l 257,31,-1
 1687 -183 l 257,28,-1
EndSplineSet
Ligature2: "halnHalantFormsinDevanagari2lookup0 subtable" uni091C_uni094D_uni091E.akhn uni094D
EndChar

StartChar: uni091D
Encoding: 2333 2333 483
GlifName: uni091D_
Width: 2048
VWidth: 0
GlyphClass: 2
Flags: W
AnchorPoint: "abvm_deva" 762 1594 basechar 0
AnchorPoint: "blwm_deva" 1791 -78 basechar 0
LayerCount: 2
Fore
SplineSet
-8 1548 m 257,0,-1
 -8 1349 l 257,1,-1
 2056 1349 l 257,2,-1
 2056 1548 l 257,3,-1
 -8 1548 l 257,0,-1
1712 1537 m 257,4,-1
 1712 -5 l 257,5,-1
 1914 -5 l 257,6,-1
 1914 1537 l 257,7,-1
 1712 1537 l 257,4,-1
968 1537 m 257,8,-1
 968 1023 l 257,9,-1
 1168 1023 l 257,10,-1
 1168 1537 l 257,11,-1
 968 1537 l 257,8,-1
134 1223 m 257,12,-1
 134 1023 l 257,13,-1
 1168 1023 l 257,14,-1
 1168 1223 l 257,15,-1
 134 1223 l 257,12,-1
134 1085 m 257,16,-1
 134 651 l 257,17,-1
 334 651 l 257,18,-1
 334 1085 l 257,19,-1
 134 1085 l 257,16,-1
134 837 m 257,20,-1
 134 638 l 257,21,-1
 1908 638 l 257,22,-1
 1908 837 l 257,23,-1
 134 837 l 257,20,-1
940 691 m 257,24,-1
 940 7 l 257,25,-1
 1140 7 l 257,26,-1
 1140 691 l 257,27,-1
 940 691 l 257,24,-1
134 203 m 257,28,-1
 134 0 l 257,29,-1
 1140 0 l 257,30,-1
 1140 203 l 257,31,-1
 134 203 l 257,28,-1
134 63 m 257,32,-1
 134 -148 l 257,33,-1
 334 -148 l 257,34,-1
 334 63 l 257,35,-1
 134 63 l 257,32,-1
EndSplineSet
EndChar

StartChar: uni091D_uni0930_uni094D.vatu
Encoding: 65566 -1 484
GlifName: uni091D__uni0930_uni094D_.vatu
Width: 2048
VWidth: 0
GlyphClass: 3
Flags: W
LayerCount: 2
Fore
SplineSet
902 0 m 257,0,-1
 1416 0 l 257,1,-1
 1778 215 l 257,2,-1
 1778 416 l 257,3,-1
 902 0 l 257,0,-1
-8 1548 m 257,4,-1
 -8 1349 l 257,5,-1
 2056 1349 l 257,6,-1
 2056 1548 l 257,7,-1
 -8 1548 l 257,4,-1
1712 1537 m 257,8,-1
 1712 -5 l 257,9,-1
 1914 -5 l 257,10,-1
 1914 1537 l 257,11,-1
 1712 1537 l 257,8,-1
968 1537 m 257,12,-1
 968 1023 l 257,13,-1
 1168 1023 l 257,14,-1
 1168 1537 l 257,15,-1
 968 1537 l 257,12,-1
134 1223 m 257,16,-1
 134 1023 l 257,17,-1
 1168 1023 l 257,18,-1
 1168 1223 l 257,19,-1
 134 1223 l 257,16,-1
134 1085 m 257,20,-1
 134 651 l 257,21,-1
 334 651 l 257,22,-1
 334 1085 l 257,23,-1
 134 1085 l 257,20,-1
134 837 m 257,24,-1
 134 638 l 257,25,-1
 1908 638 l 257,26,-1
 1908 837 l 257,27,-1
 134 837 l 257,24,-1
650 691 m 257,28,-1
 650 7 l 257,29,-1
 850 7 l 257,30,-1
 850 691 l 257,31,-1
 650 691 l 257,28,-1
134 203 m 257,32,-1
 134 0 l 257,33,-1
 850 0 l 257,34,-1
 850 203 l 257,35,-1
 134 203 l 257,32,-1
134 63 m 257,36,-1
 134 -148 l 257,37,-1
 334 -148 l 257,38,-1
 334 63 l 257,39,-1
 134 63 l 257,36,-1
EndSplineSet
Ligature2: "rkrfRakarVariantsinDevanagari2lookup0 subtable" uni091D uni094D uni0930
EndChar

StartChar: uni091D_uni094D.half
Encoding: 65567 -1 485
GlifName: uni091D__uni094D_.half
Width: 2048
VWidth: 0
GlyphClass: 3
Flags: W
LayerCount: 2
Fore
SplineSet
-8 1548 m 257,0,-1
 -8 1349 l 257,1,-1
 2056 1349 l 257,2,-1
 2056 1548 l 257,3,-1
 -8 1548 l 257,0,-1
1268 1537 m 257,4,-1
 1268 1023 l 257,5,-1
 1468 1023 l 257,6,-1
 1468 1537 l 257,7,-1
 1268 1537 l 257,4,-1
434 1223 m 257,8,-1
 434 1023 l 257,9,-1
 1468 1023 l 257,10,-1
 1468 1223 l 257,11,-1
 434 1223 l 257,8,-1
434 1085 m 257,12,-1
 434 651 l 257,13,-1
 634 651 l 257,14,-1
 634 1085 l 257,15,-1
 434 1085 l 257,12,-1
434 837 m 257,16,-1
 434 638 l 257,17,-1
 2208 638 l 257,18,-1
 2208 837 l 257,19,-1
 434 837 l 257,16,-1
1240 691 m 257,20,-1
 1240 7 l 257,21,-1
 1440 7 l 257,22,-1
 1440 691 l 257,23,-1
 1240 691 l 257,20,-1
434 203 m 257,24,-1
 434 0 l 257,25,-1
 1440 0 l 257,26,-1
 1440 203 l 257,27,-1
 434 203 l 257,24,-1
434 63 m 257,28,-1
 434 -148 l 257,29,-1
 634 -148 l 257,30,-1
 634 63 l 257,31,-1
 434 63 l 257,28,-1
EndSplineSet
Ligature2: "halfHalfFormsinDevanagari2lookup0 subtable" uni091D uni094D
EndChar

StartChar: uni091D_uni094D.haln
Encoding: 65568 -1 486
GlifName: uni091D__uni094D_.haln
Width: 2048
VWidth: 0
GlyphClass: 3
Flags: W
LayerCount: 2
Fore
SplineSet
-8 1548 m 257,0,-1
 -8 1349 l 257,1,-1
 2056 1349 l 257,2,-1
 2056 1548 l 257,3,-1
 -8 1548 l 257,0,-1
1712 1537 m 257,4,-1
 1712 -5 l 257,5,-1
 1914 -5 l 257,6,-1
 1914 1537 l 257,7,-1
 1712 1537 l 257,4,-1
968 1537 m 257,8,-1
 968 1023 l 257,9,-1
 1168 1023 l 257,10,-1
 1168 1537 l 257,11,-1
 968 1537 l 257,8,-1
134 1223 m 257,12,-1
 134 1023 l 257,13,-1
 1168 1023 l 257,14,-1
 1168 1223 l 257,15,-1
 134 1223 l 257,12,-1
134 1085 m 257,16,-1
 134 651 l 257,17,-1
 334 651 l 257,18,-1
 334 1085 l 257,19,-1
 134 1085 l 257,16,-1
134 837 m 257,20,-1
 134 638 l 257,21,-1
 1908 638 l 257,22,-1
 1908 837 l 257,23,-1
 134 837 l 257,20,-1
940 691 m 257,24,-1
 940 7 l 257,25,-1
 1140 7 l 257,26,-1
 1140 691 l 257,27,-1
 940 691 l 257,24,-1
134 203 m 257,28,-1
 134 0 l 257,29,-1
 1140 0 l 257,30,-1
 1140 203 l 257,31,-1
 134 203 l 257,28,-1
134 63 m 257,32,-1
 134 -148 l 257,33,-1
 334 -148 l 257,34,-1
 334 63 l 257,35,-1
 134 63 l 257,32,-1
1495 -22 m 257,36,-1
 1495 -218 l 257,37,-1
 1852 -218 l 257,38,-1
 1852 -22 l 257,39,-1
 1495 -22 l 257,36,-1
1711 -183 m 257,40,-1
 2181 -588 l 257,41,-1
 2325 -425 l 257,42,-1
 1854 -21 l 257,43,-1
 1711 -183 l 257,40,-1
EndSplineSet
Ligature2: "halnHalantFormsinDevanagari2lookup0 subtable" uni091D uni094D
EndChar

StartChar: uni091E
Encoding: 2334 2334 487
GlifName: uni091E_
Width: 2048
VWidth: 0
GlyphClass: 2
Flags: W
AnchorPoint: "abvm_deva" 834 1600 basechar 0
AnchorPoint: "blwm_deva" 1824 -31 basechar 0
LayerCount: 2
Fore
SplineSet
0 1548 m 257,0,-1
 0 1348 l 257,1,-1
 2050 1348 l 257,2,-1
 2050 1548 l 257,3,-1
 0 1548 l 257,0,-1
1756 1537 m 257,4,-1
 1756 -8 l 257,5,-1
 1956 -8 l 257,6,-1
 1956 1537 l 257,7,-1
 1756 1537 l 257,4,-1
980 737 m 257,8,-1
 980 537 l 257,9,-1
 1854 537 l 257,10,-1
 1854 737 l 257,11,-1
 980 737 l 257,8,-1
86 960 m 257,12,-1
 86 760 l 257,13,-1
 956 760 l 257,14,-1
 956 960 l 257,15,-1
 86 960 l 257,12,-1
926 960 m 257,16,-1
 926 316 l 257,17,-1
 1126 316 l 257,18,-1
 1126 960 l 257,19,-1
 926 960 l 257,16,-1
64 460 m 257,20,-1
 64 260 l 257,21,-1
 1126 260 l 257,22,-1
 1126 460 l 257,23,-1
 64 460 l 257,20,-1
EndSplineSet
EndChar

StartChar: uni091E_uni0930_uni094D.vatu
Encoding: 65569 -1 488
GlifName: uni091E__uni0930_uni094D_.vatu
Width: 2048
VWidth: 0
GlyphClass: 3
Flags: W
LayerCount: 2
Fore
SplineSet
52 0 m 257,0,-1
 476 0 l 257,1,-1
 1778 215 l 257,2,-1
 1778 416 l 257,3,-1
 52 0 l 257,0,-1
0 1548 m 257,4,-1
 0 1348 l 257,5,-1
 2050 1348 l 257,6,-1
 2050 1548 l 257,7,-1
 0 1548 l 257,4,-1
1756 1537 m 257,8,-1
 1756 -8 l 257,9,-1
 1956 -8 l 257,10,-1
 1956 1537 l 257,11,-1
 1756 1537 l 257,8,-1
980 737 m 257,12,-1
 980 537 l 257,13,-1
 1854 537 l 257,14,-1
 1854 737 l 257,15,-1
 980 737 l 257,12,-1
86 960 m 257,16,-1
 86 760 l 257,17,-1
 956 760 l 257,18,-1
 956 960 l 257,19,-1
 86 960 l 257,16,-1
926 960 m 257,20,-1
 926 316 l 257,21,-1
 1126 316 l 257,22,-1
 1126 960 l 257,23,-1
 926 960 l 257,20,-1
64 482 m 257,24,-1
 64 282 l 257,25,-1
 1126 282 l 257,26,-1
 1126 482 l 257,27,-1
 64 482 l 257,24,-1
EndSplineSet
Ligature2: "rkrfRakarVariantsinDevanagari2lookup0 subtable" uni091E uni094D uni0930
EndChar

StartChar: uni091E_uni094D.half
Encoding: 65570 -1 489
GlifName: uni091E__uni094D_.half
Width: 2048
VWidth: 0
GlyphClass: 3
Flags: W
LayerCount: 2
Fore
SplineSet
0 1548 m 257,0,-1
 0 1348 l 257,1,-1
 2050 1348 l 257,2,-1
 2050 1548 l 257,3,-1
 0 1548 l 257,0,-1
1240 737 m 257,4,-1
 1240 537 l 257,5,-1
 2114 537 l 257,6,-1
 2114 737 l 257,7,-1
 1240 737 l 257,4,-1
346 960 m 257,8,-1
 346 760 l 257,9,-1
 1216 760 l 257,10,-1
 1216 960 l 257,11,-1
 346 960 l 257,8,-1
1186 960 m 257,12,-1
 1186 316 l 257,13,-1
 1386 316 l 257,14,-1
 1386 960 l 257,15,-1
 1186 960 l 257,12,-1
324 460 m 257,16,-1
 324 260 l 257,17,-1
 1386 260 l 257,18,-1
 1386 460 l 257,19,-1
 324 460 l 257,16,-1
EndSplineSet
Ligature2: "halfHalfFormsinDevanagari2lookup0 subtable" uni091E uni094D
EndChar

StartChar: uni091E_uni094D.haln
Encoding: 65571 -1 490
GlifName: uni091E__uni094D_.haln
Width: 2048
VWidth: 0
GlyphClass: 3
Flags: W
LayerCount: 2
Fore
SplineSet
0 1548 m 257,0,-1
 0 1348 l 257,1,-1
 2050 1348 l 257,2,-1
 2050 1548 l 257,3,-1
 0 1548 l 257,0,-1
1756 1537 m 257,4,-1
 1756 -8 l 257,5,-1
 1956 -8 l 257,6,-1
 1956 1537 l 257,7,-1
 1756 1537 l 257,4,-1
980 737 m 257,8,-1
 980 537 l 257,9,-1
 1854 537 l 257,10,-1
 1854 737 l 257,11,-1
 980 737 l 257,8,-1
86 960 m 257,12,-1
 86 760 l 257,13,-1
 956 760 l 257,14,-1
 956 960 l 257,15,-1
 86 960 l 257,12,-1
926 960 m 257,16,-1
 926 316 l 257,17,-1
 1126 316 l 257,18,-1
 1126 960 l 257,19,-1
 926 960 l 257,16,-1
64 460 m 257,20,-1
 64 260 l 257,21,-1
 1126 260 l 257,22,-1
 1126 460 l 257,23,-1
 64 460 l 257,20,-1
1495 -22 m 257,24,-1
 1495 -218 l 257,25,-1
 1852 -218 l 257,26,-1
 1852 -22 l 257,27,-1
 1495 -22 l 257,24,-1
1711 -183 m 257,28,-1
 2181 -588 l 257,29,-1
 2325 -425 l 257,30,-1
 1854 -21 l 257,31,-1
 1711 -183 l 257,28,-1
EndSplineSet
Ligature2: "halnHalantFormsinDevanagari2lookup0 subtable" uni091E uni094D
EndChar

StartChar: uni091F
Encoding: 2335 2335 491
GlifName: uni091F_
Width: 2048
VWidth: 0
GlyphClass: 2
Flags: W
AnchorPoint: "abvm_deva" 660 1582 basechar 0
AnchorPoint: "blwm_deva" 1019 -58 basechar 0
LayerCount: 2
Fore
SplineSet
0 1548 m 257,0,-1
 0 1348 l 257,1,-1
 2052 1348 l 257,2,-1
 2052 1548 l 257,3,-1
 0 1548 l 257,0,-1
1597 1528 m 257,4,-1
 1597 988 l 257,5,-1
 1797 988 l 257,6,-1
 1797 1528 l 257,7,-1
 1597 1528 l 257,4,-1
1797 1023 m 257,8,-1
 106 1023 l 257,9,-1
 106 822 l 257,10,-1
 1797 822 l 257,11,-1
 1797 1023 l 257,8,-1
85 1023 m 257,12,-1
 85 5 l 257,13,-1
 285 5 l 257,14,-1
 285 1023 l 257,15,-1
 85 1023 l 257,12,-1
85 201 m 257,16,-1
 85 0 l 257,17,-1
 1840 0 l 257,18,-1
 1840 201 l 257,19,-1
 85 201 l 257,16,-1
EndSplineSet
EndChar

StartChar: uni091F_uni0930_uni094D.vatu
Encoding: 65572 -1 492
GlifName: uni091F__uni0930_uni094D_.vatu
Width: 2048
VWidth: 0
GlyphClass: 3
Flags: W
LayerCount: 2
Fore
SplineSet
929 90 m 257,0,-1
 1153 -290 l 257,1,-1
 1435 -290 l 257,2,-1
 1051 259 l 257,3,-1
 929 90 l 257,0,-1
1051 259 m 257,4,-1
 644 -299 l 257,5,-1
 865 -299 l 257,6,-1
 1166 94 l 257,7,-1
 1051 259 l 257,4,-1
0 1548 m 257,8,-1
 0 1348 l 257,9,-1
 2052 1348 l 257,10,-1
 2052 1548 l 257,11,-1
 0 1548 l 257,8,-1
1597 1528 m 257,12,-1
 1597 988 l 257,13,-1
 1797 988 l 257,14,-1
 1797 1528 l 257,15,-1
 1597 1528 l 257,12,-1
1797 1023 m 257,16,-1
 106 1023 l 257,17,-1
 106 822 l 257,18,-1
 1797 822 l 257,19,-1
 1797 1023 l 257,16,-1
85 1023 m 257,20,-1
 85 305 l 257,21,-1
 285 305 l 257,22,-1
 285 1023 l 257,23,-1
 85 1023 l 257,20,-1
85 501 m 257,24,-1
 85 300 l 257,25,-1
 1840 300 l 257,26,-1
 1840 501 l 257,27,-1
 85 501 l 257,24,-1
EndSplineSet
Ligature2: "rkrfRakarVariantsinDevanagari2lookup0 subtable" uni091F uni094D uni0930
EndChar

StartChar: uni091F_uni094D.haln
Encoding: 65573 -1 493
GlifName: uni091F__uni094D_.haln
Width: 2048
VWidth: 0
GlyphClass: 3
Flags: W
LayerCount: 2
Fore
SplineSet
0 1548 m 257,0,-1
 0 1348 l 257,1,-1
 2052 1348 l 257,2,-1
 2052 1548 l 257,3,-1
 0 1548 l 257,0,-1
1597 1528 m 257,4,-1
 1597 988 l 257,5,-1
 1797 988 l 257,6,-1
 1797 1528 l 257,7,-1
 1597 1528 l 257,4,-1
1797 1023 m 257,8,-1
 106 1023 l 257,9,-1
 106 822 l 257,10,-1
 1797 822 l 257,11,-1
 1797 1023 l 257,8,-1
85 1023 m 257,12,-1
 85 5 l 257,13,-1
 285 5 l 257,14,-1
 285 1023 l 257,15,-1
 85 1023 l 257,12,-1
85 201 m 257,16,-1
 85 0 l 257,17,-1
 1840 0 l 257,18,-1
 1840 201 l 257,19,-1
 85 201 l 257,16,-1
1495 -22 m 257,20,-1
 1495 -218 l 257,21,-1
 1852 -218 l 257,22,-1
 1852 -22 l 257,23,-1
 1495 -22 l 257,20,-1
1711 -183 m 257,24,-1
 2181 -588 l 257,25,-1
 2325 -425 l 257,26,-1
 1854 -21 l 257,27,-1
 1711 -183 l 257,24,-1
EndSplineSet
Ligature2: "halnHalantFormsinDevanagari2lookup0 subtable" uni091F uni094D
EndChar

StartChar: uni0920
Encoding: 2336 2336 494
GlifName: uni0920
Width: 2048
VWidth: 0
GlyphClass: 2
Flags: W
AnchorPoint: "abvm_deva" 552 1594 basechar 0
AnchorPoint: "blwm_deva" 1019 -58 basechar 0
LayerCount: 2
Fore
SplineSet
0 1548 m 257,0,-1
 0 1350 l 257,1,-1
 2048 1350 l 257,2,-1
 2048 1548 l 257,3,-1
 0 1548 l 257,0,-1
912 1484 m 257,4,-1
 912 1023 l 257,5,-1
 1120 1023 l 257,6,-1
 1120 1484 l 257,7,-1
 912 1484 l 257,4,-1
85 1035 m 257,8,-1
 85 834 l 257,9,-1
 1985 834 l 257,10,-1
 1985 1035 l 257,11,-1
 85 1035 l 257,8,-1
72 1035 m 257,12,-1
 72 13 l 257,13,-1
 272 13 l 257,14,-1
 272 1035 l 257,15,-1
 72 1035 l 257,12,-1
1785 1035 m 257,16,-1
 1785 0 l 257,17,-1
 1985 0 l 257,18,-1
 1985 1035 l 257,19,-1
 1785 1035 l 257,16,-1
73 198 m 257,20,-1
 73 0 l 257,21,-1
 1965 0 l 257,22,-1
 1965 198 l 257,23,-1
 73 198 l 257,20,-1
EndSplineSet
EndChar

StartChar: uni0920_uni0930_uni094D.vatu
Encoding: 65574 -1 495
GlifName: uni0920_uni0930_uni094D_.vatu
Width: 2048
VWidth: 0
GlyphClass: 3
Flags: W
LayerCount: 2
Fore
SplineSet
929 90 m 257,0,-1
 1153 -290 l 257,1,-1
 1435 -290 l 257,2,-1
 1051 259 l 257,3,-1
 929 90 l 257,0,-1
1051 259 m 257,4,-1
 644 -299 l 257,5,-1
 865 -299 l 257,6,-1
 1166 94 l 257,7,-1
 1051 259 l 257,4,-1
0 1548 m 257,8,-1
 0 1350 l 257,9,-1
 2048 1350 l 257,10,-1
 2048 1548 l 257,11,-1
 0 1548 l 257,8,-1
912 1484 m 257,12,-1
 912 1023 l 257,13,-1
 1120 1023 l 257,14,-1
 1120 1484 l 257,15,-1
 912 1484 l 257,12,-1
85 1035 m 257,16,-1
 85 834 l 257,17,-1
 1985 834 l 257,18,-1
 1985 1035 l 257,19,-1
 85 1035 l 257,16,-1
72 1035 m 257,20,-1
 72 313 l 257,21,-1
 272 313 l 257,22,-1
 272 1035 l 257,23,-1
 72 1035 l 257,20,-1
1785 1035 m 257,24,-1
 1785 298 l 257,25,-1
 1985 298 l 257,26,-1
 1985 1035 l 257,27,-1
 1785 1035 l 257,24,-1
73 498 m 257,28,-1
 73 297 l 257,29,-1
 1965 297 l 257,30,-1
 1965 498 l 257,31,-1
 73 498 l 257,28,-1
EndSplineSet
Ligature2: "rkrfRakarVariantsinDevanagari2lookup0 subtable" uni0920 uni094D uni0930
EndChar

StartChar: uni0920_uni094D.haln
Encoding: 65575 -1 496
GlifName: uni0920_uni094D_.haln
Width: 2048
VWidth: 0
GlyphClass: 3
Flags: W
LayerCount: 2
Fore
SplineSet
0 1548 m 257,0,-1
 0 1350 l 257,1,-1
 2048 1350 l 257,2,-1
 2048 1548 l 257,3,-1
 0 1548 l 257,0,-1
912 1484 m 257,4,-1
 912 1023 l 257,5,-1
 1120 1023 l 257,6,-1
 1120 1484 l 257,7,-1
 912 1484 l 257,4,-1
85 1035 m 257,8,-1
 85 834 l 257,9,-1
 1985 834 l 257,10,-1
 1985 1035 l 257,11,-1
 85 1035 l 257,8,-1
72 1035 m 257,12,-1
 72 13 l 257,13,-1
 272 13 l 257,14,-1
 272 1035 l 257,15,-1
 72 1035 l 257,12,-1
1785 1035 m 257,16,-1
 1785 0 l 257,17,-1
 1985 0 l 257,18,-1
 1985 1035 l 257,19,-1
 1785 1035 l 257,16,-1
73 198 m 257,20,-1
 73 0 l 257,21,-1
 1965 0 l 257,22,-1
 1965 198 l 257,23,-1
 73 198 l 257,20,-1
1495 -22 m 257,24,-1
 1495 -218 l 257,25,-1
 1852 -218 l 257,26,-1
 1852 -22 l 257,27,-1
 1495 -22 l 257,24,-1
1711 -183 m 257,28,-1
 2181 -588 l 257,29,-1
 2325 -425 l 257,30,-1
 1854 -21 l 257,31,-1
 1711 -183 l 257,28,-1
EndSplineSet
Ligature2: "halnHalantFormsinDevanagari2lookup0 subtable" uni0920 uni094D
EndChar

StartChar: uni0921
Encoding: 2337 2337 497
GlifName: uni0921
Width: 2048
VWidth: 0
GlyphClass: 2
Flags: W
AnchorPoint: "abvm_deva" 864 1606 basechar 0
AnchorPoint: "blwm_deva" 1019 -58 basechar 0
LayerCount: 2
Fore
SplineSet
0 1548 m 257,0,-1
 0 1348 l 257,1,-1
 2052 1348 l 257,2,-1
 2052 1548 l 257,3,-1
 0 1548 l 257,0,-1
384 1049 m 257,4,-1
 384 638 l 257,5,-1
 583 638 l 257,6,-1
 583 1049 l 257,7,-1
 384 1049 l 257,4,-1
384 746 m 257,8,-1
 384 538 l 257,9,-1
 1581 538 l 257,10,-1
 1581 746 l 257,11,-1
 384 746 l 257,8,-1
1382 703 m 257,12,-1
 1383 5 l 257,13,-1
 1582 5 l 257,14,-1
 1581 703 l 257,15,-1
 1382 703 l 257,12,-1
62 200 m 257,16,-1
 62 0 l 257,17,-1
 1582 0 l 257,18,-1
 1580 200 l 257,19,-1
 62 200 l 257,16,-1
62 331 m 257,20,-1
 62 5 l 257,21,-1
 262 5 l 257,22,-1
 262 331 l 257,23,-1
 62 331 l 257,20,-1
384 1134 m 257,24,-1
 384 926 l 257,25,-1
 1445 926 l 257,26,-1
 1445 1134 l 257,27,-1
 384 1134 l 257,24,-1
1246 1391 m 257,28,-1
 1246 980 l 257,29,-1
 1445 980 l 257,30,-1
 1445 1391 l 257,31,-1
 1246 1391 l 257,28,-1
EndSplineSet
EndChar

StartChar: uni0921_uni0930_uni094D.vatu
Encoding: 65576 -1 498
GlifName: uni0921_uni0930_uni094D_.vatu
Width: 2048
VWidth: 0
GlyphClass: 3
Flags: W
LayerCount: 2
Fore
SplineSet
929 63 m 257,0,-1
 1153 -222 l 257,1,-1
 1435 -222 l 257,2,-1
 1051 190 l 257,3,-1
 929 63 l 257,0,-1
1051 190 m 257,4,-1
 644 -228 l 257,5,-1
 865 -228 l 257,6,-1
 1166 67 l 257,7,-1
 1051 190 l 257,4,-1
0 1548 m 257,8,-1
 0 1348 l 257,9,-1
 2052 1348 l 257,10,-1
 2052 1548 l 257,11,-1
 0 1548 l 257,8,-1
384 1106 m 257,12,-1
 384 729 l 257,13,-1
 583 729 l 257,14,-1
 583 1106 l 257,15,-1
 384 1106 l 257,12,-1
384 837 m 257,16,-1
 384 629 l 257,17,-1
 1581 629 l 257,18,-1
 1581 837 l 257,19,-1
 384 837 l 257,16,-1
1382 794 m 257,20,-1
 1383 164 l 257,21,-1
 1582 164 l 257,22,-1
 1581 794 l 257,23,-1
 1382 794 l 257,20,-1
62 359 m 257,24,-1
 62 159 l 257,25,-1
 1582 159 l 257,26,-1
 1580 359 l 257,27,-1
 62 359 l 257,24,-1
62 490 m 257,28,-1
 62 164 l 257,29,-1
 262 164 l 257,30,-1
 262 490 l 257,31,-1
 62 490 l 257,28,-1
384 1191 m 257,32,-1
 384 983 l 257,33,-1
 1445 983 l 257,34,-1
 1445 1191 l 257,35,-1
 384 1191 l 257,32,-1
1246 1391 m 257,36,-1
 1246 1037 l 257,37,-1
 1445 1037 l 257,38,-1
 1445 1391 l 257,39,-1
 1246 1391 l 257,36,-1
EndSplineSet
Ligature2: "rkrfRakarVariantsinDevanagari2lookup0 subtable" uni0921 uni094D uni0930
EndChar

StartChar: uni0921_uni094D.haln
Encoding: 65577 -1 499
GlifName: uni0921_uni094D_.haln
Width: 2048
VWidth: 0
GlyphClass: 3
Flags: W
LayerCount: 2
Fore
SplineSet
0 1548 m 257,0,-1
 0 1348 l 257,1,-1
 2052 1348 l 257,2,-1
 2052 1548 l 257,3,-1
 0 1548 l 257,0,-1
384 1049 m 257,4,-1
 384 638 l 257,5,-1
 583 638 l 257,6,-1
 583 1049 l 257,7,-1
 384 1049 l 257,4,-1
384 746 m 257,8,-1
 384 538 l 257,9,-1
 1581 538 l 257,10,-1
 1581 746 l 257,11,-1
 384 746 l 257,8,-1
1382 703 m 257,12,-1
 1383 5 l 257,13,-1
 1582 5 l 257,14,-1
 1581 703 l 257,15,-1
 1382 703 l 257,12,-1
62 200 m 257,16,-1
 62 0 l 257,17,-1
 1582 0 l 257,18,-1
 1580 200 l 257,19,-1
 62 200 l 257,16,-1
62 331 m 257,20,-1
 62 5 l 257,21,-1
 262 5 l 257,22,-1
 262 331 l 257,23,-1
 62 331 l 257,20,-1
384 1134 m 257,24,-1
 384 926 l 257,25,-1
 1445 926 l 257,26,-1
 1445 1134 l 257,27,-1
 384 1134 l 257,24,-1
1246 1391 m 257,28,-1
 1246 980 l 257,29,-1
 1445 980 l 257,30,-1
 1445 1391 l 257,31,-1
 1246 1391 l 257,28,-1
1495 -22 m 257,32,-1
 1495 -218 l 257,33,-1
 1852 -218 l 257,34,-1
 1852 -22 l 257,35,-1
 1495 -22 l 257,32,-1
1711 -183 m 257,36,-1
 2181 -588 l 257,37,-1
 2325 -425 l 257,38,-1
 1854 -21 l 257,39,-1
 1711 -183 l 257,36,-1
EndSplineSet
Ligature2: "halnHalantFormsinDevanagari2lookup0 subtable" uni0921 uni094D
EndChar

StartChar: uni0922
Encoding: 2338 2338 500
GlifName: uni0922
Width: 2048
VWidth: 0
GlyphClass: 2
Flags: W
AnchorPoint: "abvm_deva" 1691 1558 basechar 0
AnchorPoint: "blwm_deva" 1003 -56 basechar 0
LayerCount: 2
Fore
SplineSet
5 1548 m 257,0,-1
 5 1348 l 257,1,-1
 2043 1348 l 257,2,-1
 2043 1548 l 257,3,-1
 5 1548 l 257,0,-1
1588 1528 m 257,4,-1
 1588 988 l 257,5,-1
 1788 988 l 257,6,-1
 1788 1528 l 257,7,-1
 1588 1528 l 257,4,-1
1788 1023 m 257,8,-1
 115 1023 l 257,9,-1
 115 822 l 257,10,-1
 1788 822 l 257,11,-1
 1788 1023 l 257,8,-1
94 1023 m 257,12,-1
 94 5 l 257,13,-1
 294 5 l 257,14,-1
 294 1023 l 257,15,-1
 94 1023 l 257,12,-1
94 201 m 257,16,-1
 94 0 l 257,17,-1
 1831 0 l 257,18,-1
 1831 201 l 257,19,-1
 94 201 l 257,16,-1
1632 544 m 257,20,-1
 1632 0 l 257,21,-1
 1833 0 l 257,22,-1
 1833 544 l 257,23,-1
 1632 544 l 257,20,-1
1579 547 m 257,24,-1
 1579 347 l 257,25,-1
 1831 347 l 257,26,-1
 1831 547 l 257,27,-1
 1579 547 l 257,24,-1
EndSplineSet
EndChar

StartChar: uni0922_uni0930_uni094D.vatu
Encoding: 65578 -1 501
GlifName: uni0922_uni0930_uni094D_.vatu
Width: 2048
VWidth: 0
GlyphClass: 2
Flags: W
LayerCount: 2
Fore
SplineSet
934 90 m 257,0,-1
 1158 -290 l 257,1,-1
 1440 -290 l 257,2,-1
 1056 259 l 257,3,-1
 934 90 l 257,0,-1
1056 259 m 257,4,-1
 649 -299 l 257,5,-1
 870 -299 l 257,6,-1
 1171 94 l 257,7,-1
 1056 259 l 257,4,-1
10 1548 m 257,8,-1
 10 1348 l 257,9,-1
 2048 1348 l 257,10,-1
 2048 1548 l 257,11,-1
 10 1548 l 257,8,-1
1593 1528 m 257,12,-1
 1593 1088 l 257,13,-1
 1793 1088 l 257,14,-1
 1793 1528 l 257,15,-1
 1593 1528 l 257,12,-1
1793 1123 m 257,16,-1
 120 1123 l 257,17,-1
 120 922 l 257,18,-1
 1793 922 l 257,19,-1
 1793 1123 l 257,16,-1
99 1124 m 257,20,-1
 99 305 l 257,21,-1
 299 305 l 257,22,-1
 299 1124 l 257,23,-1
 99 1124 l 257,20,-1
99 501 m 257,24,-1
 99 300 l 257,25,-1
 1836 300 l 257,26,-1
 1836 501 l 257,27,-1
 99 501 l 257,24,-1
1637 844 m 257,28,-1
 1637 298 l 257,29,-1
 1838 298 l 257,30,-1
 1838 844 l 257,31,-1
 1637 844 l 257,28,-1
1584 847 m 257,32,-1
 1584 647 l 257,33,-1
 1836 647 l 257,34,-1
 1836 847 l 257,35,-1
 1584 847 l 257,32,-1
EndSplineSet
Ligature2: "rkrfRakarVariantsinDevanagari2lookup0 subtable" uni0922 uni094D uni0930
EndChar

StartChar: uni0922_uni094D.haln
Encoding: 65579 -1 502
GlifName: uni0922_uni094D_.haln
Width: 2048
VWidth: 0
GlyphClass: 3
Flags: W
LayerCount: 2
Fore
SplineSet
5 1548 m 257,0,-1
 5 1348 l 257,1,-1
 2043 1348 l 257,2,-1
 2043 1548 l 257,3,-1
 5 1548 l 257,0,-1
1588 1528 m 257,4,-1
 1588 988 l 257,5,-1
 1788 988 l 257,6,-1
 1788 1528 l 257,7,-1
 1588 1528 l 257,4,-1
1788 1023 m 257,8,-1
 115 1023 l 257,9,-1
 115 822 l 257,10,-1
 1788 822 l 257,11,-1
 1788 1023 l 257,8,-1
94 1023 m 257,12,-1
 94 5 l 257,13,-1
 294 5 l 257,14,-1
 294 1023 l 257,15,-1
 94 1023 l 257,12,-1
94 201 m 257,16,-1
 94 0 l 257,17,-1
 1831 0 l 257,18,-1
 1831 201 l 257,19,-1
 94 201 l 257,16,-1
1632 544 m 257,20,-1
 1632 0 l 257,21,-1
 1833 0 l 257,22,-1
 1833 544 l 257,23,-1
 1632 544 l 257,20,-1
1579 547 m 257,24,-1
 1579 347 l 257,25,-1
 1831 347 l 257,26,-1
 1831 547 l 257,27,-1
 1579 547 l 257,24,-1
1495 -22 m 257,28,-1
 1495 -218 l 257,29,-1
 1852 -218 l 257,30,-1
 1852 -22 l 257,31,-1
 1495 -22 l 257,28,-1
1711 -183 m 257,32,-1
 2181 -588 l 257,33,-1
 2325 -425 l 257,34,-1
 1854 -21 l 257,35,-1
 1711 -183 l 257,32,-1
EndSplineSet
Ligature2: "halnHalantFormsinDevanagari2lookup0 subtable" uni0922 uni094D
EndChar

StartChar: uni0923
Encoding: 2339 2339 503
GlifName: uni0923
Width: 2048
VWidth: 0
GlyphClass: 2
Flags: W
AnchorPoint: "abvm_deva" 846 1588 basechar 0
AnchorPoint: "blwm_deva" 1845 -86 basechar 0
LayerCount: 2
Fore
SplineSet
0 1548 m 257,0,-1
 0 1350 l 257,1,-1
 2048 1350 l 257,2,-1
 2048 1548 l 257,3,-1
 0 1548 l 257,0,-1
1740 1530 m 257,4,-1
 1740 0 l 257,5,-1
 1940 0 l 257,6,-1
 1940 1530 l 257,7,-1
 1740 1530 l 257,4,-1
110 1543 m 257,8,-1
 110 855 l 257,9,-1
 310 855 l 257,10,-1
 310 1543 l 257,11,-1
 110 1543 l 257,8,-1
966 1528 m 257,12,-1
 966 844 l 257,13,-1
 1166 844 l 257,14,-1
 1166 1528 l 257,15,-1
 966 1528 l 257,12,-1
110 1023 m 257,16,-1
 110 825 l 257,17,-1
 1166 825 l 257,18,-1
 1166 1023 l 257,19,-1
 110 1023 l 257,16,-1
EndSplineSet
EndChar

StartChar: uni0923_uni0930_uni094D.vatu
Encoding: 65580 -1 504
GlifName: uni0923_uni0930_uni094D_.vatu
Width: 2048
VWidth: 0
GlyphClass: 2
Flags: W
LayerCount: 2
Fore
SplineSet
52 0 m 257,0,-1
 476 0 l 257,1,-1
 1778 215 l 257,2,-1
 1778 416 l 257,3,-1
 52 0 l 257,0,-1
0 1548 m 257,4,-1
 0 1350 l 257,5,-1
 2048 1350 l 257,6,-1
 2048 1548 l 257,7,-1
 0 1548 l 257,4,-1
1740 1530 m 257,8,-1
 1740 0 l 257,9,-1
 1940 0 l 257,10,-1
 1940 1530 l 257,11,-1
 1740 1530 l 257,8,-1
110 1543 m 257,12,-1
 110 855 l 257,13,-1
 310 855 l 257,14,-1
 310 1543 l 257,15,-1
 110 1543 l 257,12,-1
966 1528 m 257,16,-1
 966 844 l 257,17,-1
 1166 844 l 257,18,-1
 1166 1528 l 257,19,-1
 966 1528 l 257,16,-1
110 1023 m 257,20,-1
 110 825 l 257,21,-1
 1166 825 l 257,22,-1
 1166 1023 l 257,23,-1
 110 1023 l 257,20,-1
EndSplineSet
Ligature2: "rkrfRakarVariantsinDevanagari2lookup0 subtable" uni0923 uni094D uni0930
EndChar

StartChar: uni0923_uni094D.half
Encoding: 65581 -1 505
GlifName: uni0923_uni094D_.half
Width: 2048
VWidth: 0
GlyphClass: 3
Flags: W
LayerCount: 2
Fore
SplineSet
0 1548 m 257,0,-1
 0 1350 l 257,1,-1
 2048 1350 l 257,2,-1
 2048 1548 l 257,3,-1
 0 1548 l 257,0,-1
510 1543 m 257,4,-1
 510 855 l 257,5,-1
 710 855 l 257,6,-1
 710 1543 l 257,7,-1
 510 1543 l 257,4,-1
1366 1528 m 257,8,-1
 1366 844 l 257,9,-1
 1566 844 l 257,10,-1
 1566 1528 l 257,11,-1
 1366 1528 l 257,8,-1
510 1023 m 257,12,-1
 510 825 l 257,13,-1
 1566 825 l 257,14,-1
 1566 1023 l 257,15,-1
 510 1023 l 257,12,-1
EndSplineSet
Ligature2: "halfHalfFormsinDevanagari2lookup0 subtable" uni0923 uni094D
EndChar

StartChar: uni0923_uni094D.haln
Encoding: 65582 -1 506
GlifName: uni0923_uni094D_.haln
Width: 2048
VWidth: 0
GlyphClass: 3
Flags: W
AnchorPoint: "abvm_deva" 1891 1608 basechar 0
AnchorPoint: "blwm_deva" 1836 -199 basechar 0
LayerCount: 2
Fore
SplineSet
0 1548 m 257,0,-1
 0 1350 l 257,1,-1
 2048 1350 l 257,2,-1
 2048 1548 l 257,3,-1
 0 1548 l 257,0,-1
1740 1530 m 257,4,-1
 1740 0 l 257,5,-1
 1940 0 l 257,6,-1
 1940 1530 l 257,7,-1
 1740 1530 l 257,4,-1
110 1543 m 257,8,-1
 110 855 l 257,9,-1
 310 855 l 257,10,-1
 310 1543 l 257,11,-1
 110 1543 l 257,8,-1
966 1528 m 257,12,-1
 966 844 l 257,13,-1
 1166 844 l 257,14,-1
 1166 1528 l 257,15,-1
 966 1528 l 257,12,-1
110 1023 m 257,16,-1
 110 825 l 257,17,-1
 1166 825 l 257,18,-1
 1166 1023 l 257,19,-1
 110 1023 l 257,16,-1
1495 -22 m 257,20,-1
 1495 -218 l 257,21,-1
 1852 -218 l 257,22,-1
 1852 -22 l 257,23,-1
 1495 -22 l 257,20,-1
1711 -183 m 257,24,-1
 2181 -588 l 257,25,-1
 2325 -425 l 257,26,-1
 1854 -21 l 257,27,-1
 1711 -183 l 257,24,-1
EndSplineSet
Ligature2: "halnHalantFormsinDevanagari2lookup0 subtable" uni0923 uni094D
EndChar

StartChar: uni0924
Encoding: 2340 2340 507
GlifName: uni0924
Width: 2048
VWidth: 0
GlyphClass: 2
Flags: W
AnchorPoint: "abvm_deva" 744 1582 basechar 0
AnchorPoint: "blwm_deva" 1834 -73 basechar 0
LayerCount: 2
Fore
SplineSet
-15 1562 m 257,0,-1
 -15 1362 l 257,1,-1
 2063 1362 l 257,2,-1
 2063 1562 l 257,3,-1
 -15 1562 l 257,0,-1
1673 1562 m 257,4,-1
 1673 0 l 257,5,-1
 1872 0 l 257,6,-1
 1872 1562 l 257,7,-1
 1673 1562 l 257,4,-1
1827 788 m 257,8,-1
 120 788 l 257,9,-1
 120 588 l 257,10,-1
 1827 588 l 257,11,-1
 1827 788 l 257,8,-1
120 766 m 257,12,-1
 120 26 l 257,13,-1
 320 26 l 257,14,-1
 320 766 l 257,15,-1
 120 766 l 257,12,-1
EndSplineSet
EndChar

StartChar: uni0924_uni0930_uni094D.vatu
Encoding: 65583 -1 508
GlifName: uni0924_uni0930_uni094D_.vatu
Width: 2048
VWidth: 0
GlyphClass: 3
Flags: W
AnchorPoint: "abvm_deva" 1807 1633 basechar 0
AnchorPoint: "blwm_deva" 1752 -174 basechar 0
LayerCount: 2
Fore
SplineSet
52 0 m 257,0,-1
 476 0 l 257,1,-1
 1778 215 l 257,2,-1
 1778 416 l 257,3,-1
 52 0 l 257,0,-1
-15 1562 m 257,4,-1
 -15 1362 l 257,5,-1
 2063 1362 l 257,6,-1
 2063 1562 l 257,7,-1
 -15 1562 l 257,4,-1
1673 1562 m 257,8,-1
 1673 0 l 257,9,-1
 1872 0 l 257,10,-1
 1872 1562 l 257,11,-1
 1673 1562 l 257,8,-1
1763 348 m 257,12,-1
 284 1201 l 257,13,-1
 184 1028 l 257,14,-1
 1663 175 l 257,15,-1
 1763 348 l 257,12,-1
EndSplineSet
Ligature2: "rkrfRakarVariantsinDevanagari2lookup0 subtable" uni0924 uni094D uni0930
EndChar

StartChar: uni0924_uni094D.half
Encoding: 65584 -1 509
GlifName: uni0924_uni094D_.half
Width: 2048
VWidth: 0
GlyphClass: 3
Flags: W
LayerCount: 2
Fore
SplineSet
-15 1562 m 257,0,-1
 -15 1362 l 257,1,-1
 2063 1362 l 257,2,-1
 2063 1562 l 257,3,-1
 -15 1562 l 257,0,-1
2072 788 m 257,4,-1
 365 788 l 257,5,-1
 365 588 l 257,6,-1
 2072 588 l 257,7,-1
 2072 788 l 257,4,-1
365 766 m 257,8,-1
 365 26 l 257,9,-1
 565 26 l 257,10,-1
 565 766 l 257,11,-1
 365 766 l 257,8,-1
EndSplineSet
Ligature2: "halfHalfFormsinDevanagari2lookup0 subtable" uni0924 uni094D
EndChar

StartChar: uni0924_uni094D.haln
Encoding: 65585 -1 510
GlifName: uni0924_uni094D_.haln
Width: 2048
VWidth: 0
GlyphClass: 3
Flags: W
LayerCount: 2
Fore
SplineSet
-15 1562 m 257,0,-1
 -15 1362 l 257,1,-1
 2063 1362 l 257,2,-1
 2063 1562 l 257,3,-1
 -15 1562 l 257,0,-1
1673 1562 m 257,4,-1
 1673 0 l 257,5,-1
 1872 0 l 257,6,-1
 1872 1562 l 257,7,-1
 1673 1562 l 257,4,-1
1827 788 m 257,8,-1
 120 788 l 257,9,-1
 120 588 l 257,10,-1
 1827 588 l 257,11,-1
 1827 788 l 257,8,-1
120 766 m 257,12,-1
 120 26 l 257,13,-1
 320 26 l 257,14,-1
 320 766 l 257,15,-1
 120 766 l 257,12,-1
1495 -22 m 257,16,-1
 1495 -218 l 257,17,-1
 1852 -218 l 257,18,-1
 1852 -22 l 257,19,-1
 1495 -22 l 257,16,-1
1711 -183 m 257,20,-1
 2181 -588 l 257,21,-1
 2325 -425 l 257,22,-1
 1854 -21 l 257,23,-1
 1711 -183 l 257,20,-1
EndSplineSet
Ligature2: "halnHalantFormsinDevanagari2lookup0 subtable" uni0924 uni094D
EndChar

StartChar: uni0924_uni094D_uni0924.pres
Encoding: 65586 -1 511
GlifName: uni0924_uni094D__uni0924.pres
Width: 2048
VWidth: 0
GlyphClass: 3
Flags: W
LayerCount: 2
Fore
SplineSet
-30 1554 m 257,0,-1
 -30 1354 l 257,1,-1
 2049 1354 l 257,2,-1
 2049 1554 l 257,3,-1
 -30 1554 l 257,0,-1
1659 1511 m 257,4,-1
 1659 0 l 257,5,-1
 1858 0 l 257,6,-1
 1858 1511 l 257,7,-1
 1659 1511 l 257,4,-1
1813 788 m 257,8,-1
 105 788 l 257,9,-1
 105 588 l 257,10,-1
 1813 588 l 257,11,-1
 1813 788 l 257,8,-1
105 588 m 257,12,-1
 212 0 l 257,13,-1
 412 0 l 257,14,-1
 304 588 l 257,15,-1
 105 588 l 257,12,-1
1724 1038 m 257,16,-1
 16 1038 l 257,17,-1
 16 838 l 257,18,-1
 1724 838 l 257,19,-1
 1724 1038 l 257,16,-1
EndSplineSet
Ligature2: "presPreBaseSubstitutionsinDevanagari2lookup0 subtable" uni0924_uni094D.half uni0924
EndChar

